<svg width="364" height="175" viewBox="0 0 364 175" fill="none" xmlns="http://www.w3.org/2000/svg">
<rect width="364" height="175" fill="#08C5DA" fill-opacity="0.04"/>
<g clip-path="url(#clip0_105_383)">
<path d="M59.1072 174.925C59.1072 174.925 25.8767 139.202 53.4866 100.526C77.9857 66.2107 106.54 68.5629 127.499 82.4824C136.423 88.4111 162.156 83.2127 184.049 48.2958C213.911 0.683771 317.432 29.5646 298.564 102.814C289.425 138.268 326.367 139.557 307.542 174.989L59.1072 174.925Z" fill="#EBF3FA"/>
<path d="M122.908 105.875C122.908 105.875 106.475 82.4502 100.05 85.479C93.6249 88.5186 122.908 105.875 122.908 105.875Z" fill="#A8D29F"/>
<path d="M121.868 99.581C121.868 99.581 119.358 81.9667 115.399 82.6541C111.441 83.3415 121.868 99.581 121.868 99.581Z" fill="#A8D29F"/>
<path d="M107.966 154.486C107.966 154.486 109.543 146.645 103.407 145.657C103.407 145.657 99.2456 145.507 96.8 147.086C96.8 147.086 103.761 151.113 102.935 152.359C102.11 153.605 95.5021 147.322 95.5021 147.322C95.5021 147.322 88.0365 150.598 86.3739 152.961C86.3739 152.961 95.191 154.529 94.0754 155.538C92.9706 156.548 83.7137 155.334 83.7137 155.334C83.7137 155.334 77.7498 160.146 80.3456 163.969C82.9414 167.793 85.9019 167.772 86.8458 167.106C87.779 166.44 92.3699 160.951 92.9599 161.693C93.5391 162.444 91.5226 167.084 89.1306 168.577C89.1306 168.577 96.6391 171.112 98.8916 167.9C101.155 164.689 100.104 162.197 101.541 160.243C102.978 158.288 104.62 157.375 104.319 158.707C104.03 160.049 101.026 162.863 101.015 165.43C101.005 167.997 100.747 169.866 103.676 167.589C106.604 165.323 110.487 160.081 109.221 157.268C107.966 154.486 107.966 154.486 107.966 154.486Z" fill="#82B378"/>
<path d="M83.6602 162.262C83.6602 162.262 101.166 151.564 107.977 154.475C107.977 154.475 110.315 156.602 114.338 157.493L115.4 158.406C115.4 158.406 110.476 156.87 109.253 157.289C109.232 157.289 107.43 149.975 83.6602 162.262Z" fill="#82B378"/>
<path d="M114.327 157.493C114.327 157.493 119.755 158.191 122.855 163.121L122.19 163.572C122.19 163.572 118.028 159.007 114.67 158.191C111.302 157.375 114.327 157.493 114.327 157.493Z" fill="#82B378"/>
<path d="M83.3293 121.609C83.3293 121.609 96.0401 114.477 90.1084 104.811C90.1084 104.811 85.3673 98.8715 80.283 97.3464C80.283 97.3464 82.9968 111.771 80.283 112.114C77.5692 112.458 78.4166 95.8212 78.4166 95.8212C78.4166 95.8212 65.03 89.377 59.774 89.8818C59.774 89.8818 68.0763 103.962 65.3625 103.629C62.6487 103.286 53.3275 89.0333 53.3275 89.0333C53.3275 89.0333 39.5976 86.4878 37.3987 94.629C35.1998 102.77 38.7502 106.841 40.7883 107.356C42.8263 107.861 55.8696 107.7 55.5371 109.397C55.1939 111.094 46.3875 113.811 41.4748 112.286C41.4748 112.286 46.9023 125.69 54.014 125.014C61.1363 124.337 63.3352 119.923 67.7438 119.579C72.1524 119.235 75.3703 120.427 73.1714 121.62C70.9724 122.812 63.5068 122.006 59.9564 125.035C56.3952 128.064 53.5205 129.933 60.128 131.286C66.7355 132.639 78.5989 131.791 80.9695 126.7C83.3293 121.609 83.3293 121.609 83.3293 121.609Z" fill="#A8D29F"/>
<path d="M43.6736 97.1746C43.6736 97.1746 79.264 108.71 83.3293 121.609C83.3293 121.609 83.1577 127.377 86.7189 133.993V136.538C86.7189 136.538 82.9861 127.881 80.9588 126.7C80.9588 126.7 88.9178 115.498 43.6736 97.1746Z" fill="#82B378"/>
<path d="M86.7187 133.993C86.7187 133.993 92.2107 142.338 89.0785 152.498L87.6626 152.122C87.6626 152.122 89.0356 140.931 86.1609 135.303C83.2862 129.675 86.7187 133.993 86.7187 133.993Z" fill="#82B378"/>
<path d="M292.666 90.1611C292.666 90.1611 284.106 84.6942 288.622 78.207C288.622 78.207 292.162 74.2653 295.755 73.4061C295.755 73.4061 293.299 83.3302 295.165 83.6739C297.042 84.0176 297.107 72.418 297.107 72.418C297.107 72.418 306.675 68.4655 310.311 69.0348C310.311 69.0348 303.972 78.497 305.87 78.3681C307.769 78.2393 314.816 68.7018 314.816 68.7018C314.816 68.7018 324.459 67.4774 325.671 73.2343C326.883 78.9911 324.245 81.6762 322.807 81.9447C321.37 82.2132 312.306 81.5795 312.478 82.7717C312.649 83.9639 318.667 86.2086 322.142 85.3387C322.142 85.3387 317.841 94.4465 312.918 93.6839C307.994 92.9321 306.643 89.7744 303.586 89.3555C300.539 88.9474 298.244 89.6455 299.735 90.5585C301.215 91.4714 306.439 91.2136 308.788 93.4691C311.137 95.7138 313.068 97.1316 308.423 97.8082C303.768 98.4849 295.562 97.4216 294.114 93.7913C292.666 90.1611 292.666 90.1611 292.666 90.1611Z" fill="#C7DCFB"/>
<path d="M321.209 74.7485C321.209 74.7485 296.002 81.3539 292.655 90.161C292.655 90.161 292.548 94.1779 289.802 98.6351L289.705 100.407C289.705 100.407 292.644 94.543 294.103 93.7912C294.114 93.7912 289.019 85.6822 321.209 74.7485Z" fill="#C7DCFB"/>
<path d="M289.813 98.6352C289.813 98.6352 285.662 104.22 287.431 111.405L288.429 111.201C288.429 111.201 287.925 103.361 290.145 99.5696C292.365 95.7675 289.813 98.6352 289.813 98.6352Z" fill="#C7DCFB"/>
<g clip-path="url(#clip1_105_383)">
<path d="M279.942 107.847L269.163 57.08C269.163 56.975 269.111 56.9225 269.111 56.8175C266.39 44.375 254.198 36.5 241.797 39.1775L240.332 39.4925L239.965 38.6525C238.919 36.2375 236.198 35.03 233.739 35.87C233.634 35.9225 233.529 35.9225 233.425 35.975C231.227 36.92 230.023 39.2825 230.494 41.54L227.407 42.2225L227.041 41.33C225.994 38.915 223.273 37.7075 220.814 38.5475C220.709 38.6 220.605 38.6 220.5 38.6525C218.25 39.5975 217.099 41.96 217.57 44.27L214.326 44.9525L213.959 44.06C212.913 41.645 210.192 40.4375 207.733 41.2775C207.628 41.33 207.523 41.33 207.419 41.3825C205.169 42.3275 204.018 44.7425 204.489 47.0525L201.244 47.735L200.826 46.79C199.779 44.375 197.058 43.1675 194.599 44.0075C194.494 44.06 194.39 44.06 194.285 44.1125C192.035 45.0575 190.832 47.525 191.355 49.835L188.163 50.5175L187.744 49.52C186.698 47.105 183.977 45.8975 181.518 46.7375C181.413 46.79 181.308 46.79 181.204 46.8425C178.901 47.7875 177.75 50.255 178.326 52.6175L175.134 53.3L174.663 52.25C173.616 49.835 170.896 48.6275 168.436 49.4675C168.332 49.52 168.227 49.52 168.122 49.5725C165.82 50.57 164.669 53.0375 165.244 55.4L162.053 56.0825L161.582 54.98C160.535 52.565 157.814 51.3575 155.355 52.1975C155.25 52.25 155.146 52.25 155.041 52.3025C152.739 53.3 151.535 55.82 152.163 58.1825L150.593 58.4975C138.192 61.1225 130.239 73.355 132.75 85.7975C132.75 85.9025 132.803 85.955 132.803 86.06L143.582 136.827C146.564 151.002 159.122 160.295 171.628 157.617L262.57 138.192C275.285 135.62 282.977 121.97 279.942 107.847Z" fill="#C1D9DB"/>
<path d="M237.924 36.4476L146.983 55.8726C134.581 58.4976 126.628 70.73 129.14 83.1726L265.291 54.14C262.518 41.6975 250.326 33.8226 237.924 36.4476Z" fill="#8371F0"/>
<path d="M163.727 155.203C152.686 155.203 142.849 146.33 140.233 134.15L129.454 83.3826L265.082 54.4551L275.861 105.223C278.843 119.188 271.204 132.733 258.907 135.358L167.965 154.783C166.552 155.045 165.14 155.203 163.727 155.203Z" fill="white"/>
<path d="M264.872 54.7176L275.599 105.223C278.529 119.083 270.994 132.418 258.855 135.043L167.913 154.468C166.552 154.783 165.14 154.888 163.727 154.888C152.843 154.888 143.058 146.12 140.494 134.045L129.768 83.5401L264.872 54.7176ZM265.291 54.0876L129.14 83.1726C129.14 83.2776 129.192 83.3301 129.192 83.4351L139.971 134.203C142.64 146.75 152.738 155.465 163.727 155.465C165.14 155.465 166.605 155.308 168.018 154.993L258.959 135.568C271.465 132.89 279.105 119.24 276.122 105.118L265.343 54.3501C265.343 54.2451 265.291 54.1926 265.291 54.0876Z" fill="#C1D9DB"/>
<path d="M162 80.5475C163.518 80.5475 164.826 81.65 165.14 83.12L166.239 88.3175C166.605 90.05 165.506 91.7825 163.779 92.15L158.599 93.2525C158.39 93.305 158.128 93.305 157.919 93.305C156.401 93.305 155.093 92.2025 154.779 90.7325L153.68 85.535C153.523 84.695 153.68 83.8025 154.151 83.12C154.622 82.385 155.355 81.9125 156.192 81.7025L161.372 80.6C161.529 80.6 161.739 80.5475 162 80.5475ZM162 80.0225C161.739 80.0225 161.477 80.075 161.215 80.1275L156.035 81.23C153.994 81.65 152.686 83.6975 153.157 85.6925L154.256 90.89C154.622 92.675 156.192 93.8825 157.919 93.8825C158.18 93.8825 158.442 93.83 158.704 93.7775L163.884 92.675C165.925 92.255 167.233 90.2075 166.762 88.2125L165.663 83.015C165.297 81.23 163.727 80.0225 162 80.0225Z" fill="#C1D9DB"/>
<path d="M177.959 77.1349C179.477 77.1349 180.785 78.2374 181.099 79.7074L182.198 84.9049C182.564 86.6374 181.465 88.3699 179.738 88.7374L174.558 89.8399C174.349 89.8924 174.087 89.8924 173.878 89.8924C172.361 89.8924 171.052 88.7899 170.738 87.3199L169.64 82.1224C169.483 81.2824 169.64 80.3899 170.111 79.7074C170.581 78.9724 171.314 78.4999 172.151 78.2899L177.331 77.1874C177.488 77.1874 177.75 77.1349 177.959 77.1349ZM177.959 76.6099C177.698 76.6099 177.436 76.6624 177.174 76.7149L171.994 77.8174C169.954 78.2374 168.645 80.2849 169.116 82.2799L170.215 87.4774C170.581 89.2624 172.151 90.4699 173.878 90.4699C174.14 90.4699 174.401 90.4174 174.663 90.3649L179.843 89.2624C181.884 88.8424 183.192 86.7949 182.721 84.7999L181.622 79.6024C181.256 77.8174 179.686 76.6099 177.959 76.6099Z" fill="#C1D9DB"/>
<path d="M193.971 73.7223C195.489 73.7223 196.797 74.8248 197.111 76.2948L198.209 81.4923C198.366 82.3323 198.209 83.2248 197.739 83.9073C197.268 84.6423 196.535 85.1148 195.698 85.3248L190.518 86.4273C190.308 86.4798 190.047 86.4798 189.837 86.4798C188.32 86.4798 187.012 85.3773 186.698 83.9073L185.599 78.7098C185.233 76.9773 186.332 75.2448 188.058 74.8773L193.239 73.7748C193.5 73.7748 193.709 73.7223 193.971 73.7223ZM193.971 73.1973C193.709 73.1973 193.448 73.2498 193.186 73.3023L188.006 74.4048C185.965 74.8248 184.657 76.8723 185.128 78.8673L186.227 84.0648C186.593 85.8498 188.163 87.0573 189.89 87.0573C190.151 87.0573 190.413 87.0048 190.675 86.9523L195.855 85.8498C197.895 85.4298 199.204 83.3823 198.733 81.3873L197.634 76.1898C197.268 74.4048 195.698 73.1973 193.971 73.1973Z" fill="#C1D9DB"/>
<path d="M209.93 70.3099C211.448 70.3099 212.756 71.4124 213.07 72.8824L214.169 78.0799C214.326 78.9199 214.169 79.8124 213.698 80.4949C213.227 81.2299 212.494 81.7024 211.657 81.9124L206.477 83.0149C206.268 83.0674 206.006 83.0674 205.797 83.0674C204.279 83.0674 202.971 81.9649 202.657 80.4949L201.558 75.2974C201.401 74.4574 201.558 73.5649 202.029 72.8824C202.5 72.1474 203.233 71.6749 204.07 71.4649L209.25 70.3624C209.459 70.3624 209.721 70.3099 209.93 70.3099ZM209.93 69.7849C209.669 69.7849 209.407 69.8374 209.145 69.8899L203.965 70.9924C201.924 71.4124 200.616 73.4599 201.087 75.4549L202.186 80.6524C202.552 82.4374 204.122 83.6449 205.849 83.6449C206.111 83.6449 206.372 83.5924 206.634 83.5399L211.814 82.4374C213.855 82.0174 215.163 79.9699 214.692 77.9749L213.593 72.7774C213.227 70.9924 211.657 69.7849 209.93 69.7849Z" fill="#C1D9DB"/>
<path d="M225.89 66.8973C227.407 66.8973 228.715 67.9998 229.029 69.4698L230.128 74.6673C230.285 75.5073 230.128 76.3998 229.657 77.0823C229.186 77.8173 228.454 78.2898 227.616 78.4998L222.436 79.6023C222.227 79.6548 221.965 79.6548 221.756 79.6548C220.238 79.6548 218.93 78.5523 218.616 77.0823L217.517 71.8848C217.36 71.0448 217.517 70.1523 217.988 69.4698C218.459 68.7348 219.192 68.2623 220.029 68.0523L225.209 66.9498C225.471 66.9498 225.68 66.8973 225.89 66.8973ZM225.89 66.3723C225.628 66.3723 225.366 66.4248 225.105 66.4773L219.924 67.5798C217.884 67.9998 216.576 70.0473 217.047 72.0423L218.145 77.2398C218.512 79.0248 220.081 80.2323 221.808 80.2323C222.07 80.2323 222.331 80.1798 222.593 80.1273L227.773 79.0248C229.814 78.6048 231.122 76.5573 230.651 74.5623L229.552 69.3648C229.238 67.5798 227.669 66.3723 225.89 66.3723Z" fill="#C1D9DB"/>
<path d="M241.901 63.485C243.419 63.485 244.727 64.5875 245.041 66.0575L246.14 71.255C246.506 72.9875 245.407 74.72 243.68 75.0875L238.5 76.19C238.291 76.2425 238.029 76.2425 237.82 76.2425C236.302 76.2425 234.994 75.14 234.68 73.67L233.581 68.525C233.425 67.685 233.581 66.7925 234.052 66.11C234.523 65.375 235.256 64.9025 236.093 64.6925L241.273 63.59C241.43 63.5375 241.692 63.485 241.901 63.485ZM241.901 62.96C241.64 62.96 241.378 63.0125 241.116 63.065L235.936 64.1675C233.895 64.5875 232.587 66.635 233.058 68.63L234.157 73.8275C234.523 75.6125 236.093 76.82 237.82 76.82C238.081 76.82 238.343 76.7675 238.605 76.715L243.785 75.6125C245.826 75.1925 247.134 73.145 246.663 71.15L245.564 65.9525C245.198 64.1675 243.628 62.96 241.901 62.96Z" fill="#C1D9DB"/>
<path d="M257.86 60.0724C259.378 60.0724 260.686 61.1749 261 62.6449L262.099 67.8424C262.256 68.6824 262.099 69.5749 261.628 70.2574C261.157 70.9924 260.424 71.4649 259.587 71.6749L254.407 72.7774C254.198 72.8299 253.936 72.8299 253.727 72.8299C252.209 72.8299 250.901 71.7274 250.587 70.2574L249.488 65.0599C249.122 63.3274 250.221 61.5949 251.948 61.2274L257.128 60.1249C257.442 60.1249 257.651 60.0724 257.86 60.0724ZM257.86 59.5474C257.599 59.5474 257.337 59.5999 257.076 59.6524L251.895 60.7549C249.855 61.1749 248.547 63.2224 249.017 65.2174L250.116 70.4149C250.483 72.1999 252.052 73.4074 253.779 73.4074C254.041 73.4074 254.302 73.3549 254.564 73.3024L259.744 72.1999C261.785 71.7799 263.093 69.7324 262.622 67.7374L261.523 62.5399C261.157 60.7549 259.64 59.5474 257.86 59.5474Z" fill="#C1D9DB"/>
<path d="M145.988 83.9598C147.506 83.9598 148.814 85.0623 149.128 86.5323L150.227 91.7298C150.384 92.5698 150.227 93.4623 149.756 94.1448C149.285 94.8798 148.552 95.3523 147.715 95.5623L142.535 96.6648C142.326 96.7173 142.064 96.7173 141.855 96.7173C140.337 96.7173 139.029 95.6148 138.715 94.1448L137.616 88.9473C137.25 87.2148 138.349 85.4823 140.076 85.1148L145.256 84.0123C145.57 84.0123 145.779 83.9598 145.988 83.9598ZM145.988 83.4348C145.727 83.4348 145.465 83.4873 145.204 83.5398L140.023 84.6423C137.983 85.0623 136.674 87.1098 137.145 89.1048L138.244 94.3023C138.611 96.0873 140.18 97.2948 141.907 97.2948C142.169 97.2948 142.43 97.2423 142.692 97.1898L147.872 96.0873C149.913 95.6673 151.221 93.6198 150.75 91.6248L149.651 86.4273C149.285 84.6423 147.767 83.4348 145.988 83.4348Z" fill="#C1D9DB"/>
<path d="M165.349 96.2975C166.866 96.2975 168.175 97.4 168.489 98.87L169.587 104.067C169.744 104.907 169.587 105.8 169.116 106.482C168.646 107.217 167.913 107.69 167.076 107.9L161.896 109.002C161.686 109.055 161.425 109.055 161.215 109.055C159.698 109.055 158.39 107.952 158.076 106.482L156.977 101.285C156.82 100.445 156.977 99.5525 157.448 98.87C157.919 98.135 158.651 97.6625 159.489 97.4525L164.669 96.35C164.878 96.35 165.087 96.2975 165.349 96.2975ZM165.349 95.7725C165.087 95.7725 164.826 95.825 164.564 95.8775L159.384 96.98C157.343 97.4 156.035 99.4475 156.506 101.442L157.605 106.64C157.971 108.425 159.541 109.632 161.268 109.632C161.529 109.632 161.791 109.58 162.052 109.527L167.233 108.425C169.273 108.005 170.582 105.957 170.111 103.962L169.012 98.765C168.646 96.98 167.076 95.7725 165.349 95.7725Z" fill="#C1D9DB"/>
<path d="M181.308 92.9374C182.826 92.9374 184.134 94.0399 184.448 95.5099L185.547 100.707C185.704 101.547 185.547 102.44 185.076 103.122C184.605 103.857 183.872 104.33 183.035 104.54L177.855 105.642C177.645 105.695 177.384 105.695 177.175 105.695C175.657 105.695 174.349 104.592 174.035 103.122L172.936 97.9249C172.779 97.0849 172.936 96.1924 173.407 95.5099C173.878 94.7749 174.611 94.3024 175.448 94.0924L180.628 92.9899C180.837 92.9374 181.099 92.9374 181.308 92.9374ZM181.308 92.3599C181.047 92.3599 180.785 92.4124 180.523 92.4649L175.343 93.5674C173.302 93.9874 171.994 96.0349 172.465 98.0299L173.564 103.227C173.93 105.012 175.5 106.22 177.227 106.22C177.488 106.22 177.75 106.167 178.012 106.115L183.192 105.012C185.233 104.592 186.541 102.545 186.07 100.55L184.971 95.3524C184.605 93.5674 183.035 92.3599 181.308 92.3599Z" fill="#C1D9DB"/>
<path d="M197.267 89.5248C198.785 89.5248 200.093 90.6273 200.407 92.0973L201.506 97.2948C201.872 99.0273 200.773 100.76 199.047 101.127L193.866 102.23C193.657 102.282 193.395 102.282 193.186 102.282C191.669 102.282 190.36 101.18 190.047 99.7098L188.948 94.5123C188.581 92.7798 189.68 91.0473 191.407 90.6798L196.587 89.5773C196.849 89.5248 197.058 89.5248 197.267 89.5248ZM197.267 88.9473C197.006 88.9473 196.744 88.9998 196.483 89.0523L191.302 90.1548C189.262 90.5748 187.954 92.6223 188.424 94.6173L189.523 99.8148C189.89 101.6 191.459 102.807 193.186 102.807C193.448 102.807 193.709 102.755 193.971 102.702L199.151 101.6C201.192 101.18 202.5 99.1323 202.029 97.1373L200.93 91.9398C200.616 90.1548 199.047 88.9473 197.267 88.9473Z" fill="#C1D9DB"/>
<path d="M213.279 86.1124C214.797 86.1124 216.105 87.2149 216.419 88.6849L217.518 93.8824C217.675 94.7224 217.518 95.6149 217.047 96.2974C216.576 97.0324 215.843 97.5049 215.006 97.7149L209.826 98.8174C209.616 98.8699 209.355 98.8699 209.145 98.8699C207.628 98.8699 206.32 97.7674 206.006 96.2974L204.907 91.0999C204.75 90.2599 204.907 89.3674 205.378 88.6849C205.849 87.9499 206.582 87.4774 207.419 87.2674L212.599 86.1649C212.808 86.1124 213.07 86.1124 213.279 86.1124ZM213.279 85.5349C213.018 85.5349 212.756 85.5874 212.494 85.6399L207.314 86.7424C205.273 87.1624 203.965 89.2099 204.436 91.2049L205.535 96.4024C205.901 98.1874 207.471 99.3949 209.198 99.3949C209.459 99.3949 209.721 99.3424 209.983 99.2899L215.163 98.1874C217.204 97.7674 218.512 95.7199 218.041 93.7249L216.942 88.5274C216.576 86.7424 215.006 85.5349 213.279 85.5349Z" fill="#C1D9DB"/>
<path d="M229.238 82.6998C230.756 82.6998 232.064 83.8023 232.378 85.2723L233.477 90.4698C233.843 92.2023 232.744 93.9348 231.017 94.3023L225.837 95.4048C225.628 95.4573 225.366 95.4573 225.157 95.4573C223.64 95.4573 222.331 94.3548 222.017 92.8848L220.919 87.6873C220.762 86.8473 220.919 85.9548 221.39 85.2723C221.861 84.5373 222.593 84.0648 223.43 83.8548L228.611 82.7523C228.82 82.6998 229.029 82.6998 229.238 82.6998ZM229.238 82.1223C228.977 82.1223 228.715 82.1748 228.454 82.2273L223.273 83.3298C221.233 83.7498 219.924 85.7973 220.395 87.7923L221.494 92.9898C221.861 94.7748 223.43 95.9823 225.157 95.9823C225.419 95.9823 225.68 95.9298 225.942 95.8773L231.122 94.7748C233.163 94.3548 234.471 92.3073 234 90.3123L232.901 85.1148C232.535 83.3298 231.017 82.1223 229.238 82.1223Z" fill="#C1D9DB"/>
<path d="M244.465 78.815L239.285 79.9175C237.244 80.3375 235.936 82.385 236.407 84.38L237.506 89.5775C237.663 90.26 237.977 90.8375 238.343 91.31L245.093 78.7625C244.884 78.71 244.675 78.7625 244.465 78.815Z" fill="#4F647B"/>
<path d="M245.459 79.2875C246.872 79.3925 248.128 80.4425 248.39 81.86L249.489 87.0575C249.855 88.79 248.756 90.5225 247.029 90.89L241.849 91.9925C241.64 92.045 241.378 92.045 241.169 92.045C240.384 92.045 239.599 91.73 239.023 91.205L245.459 79.2875ZM245.25 78.71C245.198 78.71 245.198 78.71 245.146 78.71L238.396 91.2575C239.076 92.045 240.122 92.5175 241.221 92.5175C241.483 92.5175 241.744 92.465 242.006 92.4125L247.186 91.31C249.227 90.89 250.535 88.8425 250.064 86.8475L248.965 81.65C248.547 79.9175 246.977 78.71 245.25 78.71Z" fill="#C1D9DB"/>
<path d="M261.209 75.8749C262.727 75.8749 264.035 76.9774 264.349 78.4474L265.448 83.6449C265.605 84.4849 265.448 85.3774 264.977 86.0599C264.506 86.7949 263.773 87.2674 262.936 87.4774L257.756 88.5799C257.547 88.6324 257.285 88.6324 257.076 88.6324C255.558 88.6324 254.25 87.5299 253.936 86.0599L252.837 80.8624C252.68 80.0224 252.837 79.1299 253.308 78.4474C253.779 77.7124 254.512 77.2399 255.349 77.0299L260.529 75.9274C260.738 75.8749 261 75.8749 261.209 75.8749ZM261.209 75.2974C260.948 75.2974 260.686 75.3499 260.424 75.4024L255.244 76.5049C253.204 76.9249 251.895 78.9724 252.366 80.9674L253.465 86.1649C253.831 87.9499 255.401 89.1574 257.128 89.1574C257.39 89.1574 257.651 89.1049 257.913 89.0524L263.093 87.9499C265.134 87.5299 266.442 85.4824 265.971 83.4874L264.872 78.2899C264.506 76.5049 262.936 75.2974 261.209 75.2974Z" fill="#C1D9DB"/>
<path d="M149.337 99.7098C150.855 99.7098 152.163 100.812 152.477 102.282L153.576 107.48C153.942 109.212 152.843 110.945 151.116 111.312L145.936 112.415C145.727 112.467 145.465 112.467 145.256 112.467C143.738 112.467 142.43 111.365 142.116 109.895L141.018 104.697C140.651 102.965 141.75 101.232 143.477 100.865L148.657 99.7623C148.866 99.7623 149.128 99.7098 149.337 99.7098ZM149.337 99.1848C149.076 99.1848 148.814 99.2373 148.552 99.2898L143.372 100.392C141.331 100.812 140.023 102.86 140.494 104.855L141.593 110.052C141.959 111.837 143.529 113.045 145.256 113.045C145.518 113.045 145.779 112.992 146.041 112.94L151.221 111.837C153.262 111.417 154.57 109.37 154.099 107.375L153 102.177C152.634 100.392 151.064 99.1848 149.337 99.1848Z" fill="#C1D9DB"/>
<path d="M168.07 112.205C169.587 112.205 170.895 113.307 171.209 114.777L172.308 119.975C172.674 121.707 171.576 123.44 169.849 123.807L164.669 124.91C164.459 124.962 164.198 124.962 163.988 124.962C162.471 124.962 161.163 123.86 160.849 122.39L159.75 117.192C159.384 115.46 160.483 113.727 162.209 113.36L167.389 112.257C167.651 112.257 167.86 112.205 168.07 112.205ZM168.07 111.68C167.808 111.68 167.546 111.732 167.285 111.785L162.105 112.887C160.064 113.307 158.756 115.355 159.227 117.35L160.326 122.547C160.692 124.332 162.262 125.54 163.988 125.54C164.25 125.54 164.512 125.487 164.773 125.435L169.953 124.332C171.994 123.912 173.302 121.865 172.831 119.87L171.733 114.672C171.366 112.887 169.849 111.68 168.07 111.68Z" fill="#C1D9DB"/>
<path d="M184.081 108.792C185.599 108.792 186.907 109.895 187.221 111.365L188.32 116.562C188.477 117.402 188.32 118.295 187.849 118.977C187.378 119.712 186.645 120.185 185.808 120.395L180.628 121.497C180.419 121.55 180.157 121.55 179.948 121.55C178.43 121.55 177.122 120.447 176.808 118.977L175.709 113.78C175.552 112.94 175.709 112.047 176.18 111.365C176.651 110.63 177.384 110.157 178.221 109.947L183.401 108.845C183.61 108.845 183.82 108.792 184.081 108.792ZM184.081 108.267C183.82 108.267 183.558 108.32 183.297 108.372L178.116 109.475C176.076 109.895 174.767 111.942 175.238 113.937L176.337 119.135C176.704 120.92 178.273 122.127 180 122.127C180.262 122.127 180.523 122.075 180.785 122.022L185.965 120.92C188.006 120.5 189.314 118.452 188.843 116.457L187.744 111.26C187.378 109.475 185.808 108.267 184.081 108.267Z" fill="#C1D9DB"/>
<path d="M200.041 105.38C201.558 105.38 202.866 106.482 203.18 107.952L204.279 113.15C204.436 113.99 204.279 114.882 203.808 115.565C203.337 116.3 202.605 116.772 201.767 116.982L196.587 118.085C196.378 118.137 196.116 118.137 195.907 118.137C194.389 118.137 193.081 117.035 192.767 115.565L191.669 110.367C191.512 109.527 191.669 108.635 192.139 107.952C192.61 107.217 193.343 106.745 194.18 106.535L199.36 105.432C199.57 105.432 199.831 105.38 200.041 105.38ZM200.041 104.855C199.779 104.855 199.517 104.907 199.256 104.96L194.076 106.062C192.035 106.482 190.727 108.53 191.198 110.525L192.296 115.722C192.663 117.507 194.233 118.715 195.959 118.715C196.221 118.715 196.483 118.662 196.744 118.61L201.924 117.507C203.965 117.087 205.273 115.04 204.802 113.045L203.703 107.847C203.337 106.062 201.767 104.855 200.041 104.855Z" fill="#C1D9DB"/>
<path d="M216.052 101.967C217.57 101.967 218.878 103.07 219.192 104.54L220.291 109.737C220.448 110.577 220.291 111.47 219.82 112.152C219.349 112.887 218.616 113.36 217.779 113.57L212.599 114.672C212.39 114.725 212.128 114.725 211.919 114.725C210.401 114.725 209.093 113.622 208.779 112.152L207.68 106.955C207.314 105.222 208.413 103.49 210.14 103.122L215.32 102.02C215.581 102.02 215.791 101.967 216.052 101.967ZM216.052 101.442C215.791 101.442 215.529 101.495 215.267 101.547L210.087 102.65C208.047 103.07 206.738 105.117 207.209 107.112L208.308 112.31C208.674 114.095 210.244 115.302 211.971 115.302C212.233 115.302 212.494 115.25 212.756 115.197L217.936 114.095C219.977 113.675 221.285 111.627 220.814 109.632L219.715 104.435C219.349 102.65 217.779 101.442 216.052 101.442Z" fill="#C1D9DB"/>
<path d="M233.895 110.682L228.715 111.785C226.674 112.205 224.686 110.892 224.267 108.897L223.169 103.7C222.75 101.652 224.058 99.6572 226.047 99.2372L231.227 98.1347C233.267 97.7147 235.256 99.0272 235.674 101.022L236.773 106.22C237.244 108.215 235.936 110.262 233.895 110.682Z" fill="url(#paint0_linear_105_383)"/>
<path d="M247.971 95.1424C249.488 95.1424 250.796 96.2449 251.11 97.7149L252.209 102.912C252.366 103.752 252.209 104.645 251.738 105.327C251.267 106.062 250.535 106.535 249.698 106.745L244.517 107.847C244.308 107.9 244.046 107.9 243.837 107.9C242.32 107.9 241.012 106.797 240.698 105.327L239.599 100.13C239.442 99.2899 239.599 98.3974 240.07 97.7149C240.541 96.9799 241.273 96.5074 242.11 96.2974L247.291 95.1949C247.552 95.1949 247.762 95.1424 247.971 95.1424ZM247.971 94.6174C247.709 94.6174 247.448 94.6699 247.186 94.7224L242.006 95.8249C239.965 96.2449 238.657 98.2924 239.128 100.287L240.227 105.485C240.593 107.27 242.163 108.477 243.889 108.477C244.151 108.477 244.413 108.425 244.674 108.372L249.855 107.27C251.895 106.85 253.203 104.802 252.732 102.807L251.634 97.6099C251.32 95.8249 249.75 94.6174 247.971 94.6174Z" fill="#C1D9DB"/>
<path d="M263.983 91.7298C265.5 91.7298 266.808 92.8323 267.122 94.3023L268.221 99.4998C268.378 100.34 268.221 101.232 267.75 101.915C267.279 102.65 266.546 103.122 265.709 103.332L260.529 104.435C260.32 104.487 260.058 104.487 259.849 104.487C258.331 104.487 257.023 103.385 256.709 101.915L255.61 96.7173C255.244 94.9848 256.343 93.2523 258.07 92.8848L263.25 91.7823C263.512 91.7823 263.773 91.7298 263.983 91.7298ZM263.983 91.2048C263.721 91.2048 263.459 91.2573 263.198 91.3098L258.017 92.4123C255.977 92.8323 254.669 94.8798 255.14 96.8748L256.238 102.072C256.605 103.857 258.174 105.065 259.901 105.065C260.163 105.065 260.424 105.012 260.686 104.96L265.866 103.857C267.907 103.437 269.215 101.39 268.744 99.3948L267.645 94.1973C267.279 92.4123 265.709 91.2048 263.983 91.2048Z" fill="#C1D9DB"/>
<path d="M152.11 115.617C153.628 115.617 154.936 116.72 155.25 118.19L156.349 123.387C156.506 124.227 156.349 125.12 155.878 125.802C155.407 126.537 154.674 127.01 153.837 127.22L148.657 128.322C148.448 128.375 148.186 128.375 147.977 128.375C146.459 128.375 145.151 127.272 144.837 125.802L143.738 120.605C143.581 119.765 143.738 118.872 144.209 118.19C144.68 117.455 145.413 116.982 146.25 116.772L151.43 115.67C151.64 115.67 151.849 115.617 152.11 115.617ZM152.11 115.092C151.849 115.092 151.587 115.145 151.326 115.197L146.145 116.3C144.105 116.72 142.797 118.767 143.267 120.762L144.366 125.96C144.733 127.745 146.302 128.952 148.029 128.952C148.291 128.952 148.552 128.9 148.814 128.847L153.994 127.745C156.035 127.325 157.343 125.277 156.872 123.282L155.773 118.085C155.407 116.3 153.837 115.092 152.11 115.092Z" fill="#C1D9DB"/>
<path d="M171.419 127.955C172.936 127.955 174.244 129.057 174.558 130.527L175.657 135.725C176.023 137.457 174.924 139.19 173.198 139.557L168.017 140.66C167.808 140.712 167.546 140.712 167.337 140.712C165.82 140.712 164.512 139.61 164.198 138.14L163.099 132.942C162.942 132.102 163.099 131.21 163.57 130.527C164.041 129.792 164.773 129.32 165.61 129.11L170.791 128.007C170.948 128.007 171.209 127.955 171.419 127.955ZM171.419 127.43C171.157 127.43 170.895 127.482 170.634 127.535L165.453 128.637C163.413 129.057 162.105 131.105 162.576 133.1L163.674 138.297C164.041 140.082 165.61 141.29 167.337 141.29C167.599 141.29 167.86 141.237 168.122 141.185L173.302 140.082C175.343 139.662 176.651 137.615 176.18 135.62L175.081 130.422C174.715 128.637 173.145 127.43 171.419 127.43Z" fill="#C1D9DB"/>
<path d="M187.43 124.542C188.948 124.542 190.256 125.645 190.57 127.115L191.669 132.312C191.826 133.152 191.669 134.045 191.198 134.727C190.727 135.462 189.994 135.935 189.157 136.145L183.977 137.247C183.768 137.3 183.506 137.3 183.297 137.3C181.779 137.3 180.471 136.197 180.157 134.727L179.058 129.53C178.901 128.69 179.058 127.797 179.529 127.115C180 126.38 180.733 125.907 181.57 125.697L186.75 124.595C186.959 124.595 187.169 124.542 187.43 124.542ZM187.43 124.017C187.169 124.017 186.907 124.07 186.645 124.122L181.465 125.225C179.424 125.645 178.116 127.692 178.587 129.687L179.686 134.885C180.052 136.67 181.622 137.877 183.349 137.877C183.611 137.877 183.872 137.825 184.134 137.772L189.314 136.67C191.355 136.25 192.663 134.202 192.192 132.207L191.093 127.01C190.727 125.225 189.157 124.017 187.43 124.017Z" fill="#C1D9DB"/>
<path d="M203.39 121.13C204.907 121.13 206.215 122.232 206.529 123.702L207.628 128.9C207.785 129.74 207.628 130.632 207.157 131.315C206.686 132.05 205.954 132.522 205.116 132.732L199.936 133.835C199.727 133.887 199.465 133.887 199.256 133.887C197.738 133.887 196.43 132.785 196.116 131.315L195.017 126.117C194.86 125.277 195.017 124.385 195.488 123.702C195.959 122.967 196.692 122.495 197.529 122.285L202.709 121.182C202.919 121.182 203.18 121.13 203.39 121.13ZM203.39 120.605C203.128 120.605 202.866 120.657 202.605 120.71L197.424 121.812C195.384 122.232 194.076 124.28 194.547 126.275L195.645 131.472C196.012 133.257 197.581 134.465 199.308 134.465C199.57 134.465 199.831 134.412 200.093 134.36L205.273 133.257C207.314 132.837 208.622 130.79 208.151 128.795L207.052 123.597C206.686 121.812 205.116 120.605 203.39 120.605Z" fill="#C1D9DB"/>
<path d="M221.233 129.845L216.052 130.947C214.012 131.367 212.023 130.055 211.605 128.06L210.506 122.862C210.087 120.815 211.395 118.82 213.384 118.4L218.564 117.297C220.605 116.877 222.593 118.19 223.012 120.185L224.11 125.382C224.581 127.43 223.273 129.425 221.233 129.845Z" fill="url(#paint1_linear_105_383)"/>
<path d="M237.244 126.432L232.064 127.535C230.023 127.955 228.035 126.642 227.616 124.647L226.518 119.45C226.099 117.402 227.407 115.407 229.395 114.987L234.576 113.885C236.616 113.465 238.605 114.777 239.023 116.772L240.122 121.97C240.541 124.017 239.285 126.012 237.244 126.432Z" fill="url(#paint2_linear_105_383)"/>
<path d="M253.204 123.02L248.023 124.122C245.983 124.542 243.994 123.23 243.576 121.235L242.477 116.037C242.058 113.99 243.366 111.995 245.355 111.575L250.535 110.472C252.576 110.052 254.564 111.365 254.983 113.36L256.081 118.557C256.552 120.605 255.244 122.6 253.204 123.02Z" fill="url(#paint3_linear_105_383)"/>
<path d="M267.331 107.532C268.849 107.532 270.157 108.635 270.471 110.105L271.57 115.302C271.727 116.142 271.57 117.035 271.099 117.717C270.628 118.452 269.895 118.925 269.058 119.135L263.878 120.237C263.669 120.29 263.407 120.29 263.198 120.29C261.68 120.29 260.372 119.187 260.058 117.717L258.959 112.52C258.802 111.68 258.959 110.787 259.43 110.105C259.901 109.37 260.634 108.897 261.471 108.687L266.651 107.585C266.861 107.532 267.07 107.532 267.331 107.532ZM267.331 106.955C267.07 106.955 266.808 107.007 266.547 107.06L261.366 108.162C259.326 108.582 258.017 110.63 258.488 112.625L259.587 117.822C259.954 119.607 261.523 120.815 263.25 120.815C263.512 120.815 263.773 120.762 264.035 120.71L269.215 119.607C271.256 119.187 272.564 117.14 272.093 115.145L270.994 109.947C270.628 108.162 269.058 106.955 267.331 106.955Z" fill="#C1D9DB"/>
<path d="M155.459 131.367C156.977 131.367 158.285 132.47 158.599 133.94L159.698 139.137C159.855 139.977 159.698 140.87 159.227 141.552C158.756 142.287 158.023 142.76 157.186 142.97L152.006 144.072C151.797 144.125 151.535 144.125 151.326 144.125C149.808 144.125 148.5 143.022 148.186 141.552L147.087 136.355C146.721 134.622 147.82 132.89 149.547 132.522L154.727 131.42C154.988 131.42 155.198 131.367 155.459 131.367ZM155.459 130.842C155.198 130.842 154.936 130.895 154.674 130.947L149.494 132.05C147.454 132.47 146.145 134.517 146.616 136.512L147.715 141.71C148.081 143.495 149.651 144.702 151.378 144.702C151.64 144.702 151.901 144.65 152.163 144.597L157.343 143.495C159.384 143.075 160.692 141.027 160.221 139.032L159.122 133.835C158.756 132.05 157.186 130.842 155.459 130.842Z" fill="#C1D9DB"/>
<path d="M287.686 55.5049L250.169 76.1374L250.064 76.2949L255.349 85.8499H255.558L287.686 68.2624" fill="#9FDA85"/>
<path d="M247.814 85.7449L255.349 85.8499L250.064 76.2949L246.14 82.8049L247.814 85.7449Z" fill="#F8D0C6"/>
<path d="M244.413 85.6924L247.814 85.7449L246.14 82.8049L244.413 85.6924Z" fill="#4F647B"/>
<path d="M157.971 52.3024C156.924 49.8874 154.203 48.6799 151.744 49.5199C153.157 49.9399 154.36 50.9374 154.988 52.4074L158.389 60.5449C159.436 63.0649 158.285 66.0049 155.721 67.0549C155.616 67.1074 155.512 67.1074 155.407 67.1599C156.453 67.4749 157.605 67.4224 158.651 66.9499C161.163 65.8999 162.366 62.9599 161.32 60.4399L157.971 52.3024Z" fill="#88A9AA"/>
<path d="M171 49.5724C169.953 47.1574 167.232 45.9499 164.773 46.7899C166.186 47.2099 167.389 48.2074 168.017 49.6774L171.419 57.8149C172.465 60.3349 171.314 63.2749 168.75 64.3249C168.645 64.3774 168.541 64.3774 168.436 64.4299C169.482 64.7449 170.634 64.6924 171.68 64.2199C174.192 63.1699 175.395 60.2299 174.349 57.7099L171 49.5724Z" fill="#88A9AA"/>
<path d="M184.081 46.8424C183.035 44.4274 180.314 43.2199 177.854 44.0599C179.267 44.4799 180.471 45.4774 181.099 46.9474L184.5 55.0849C185.546 57.6049 184.395 60.5449 181.831 61.5949C181.727 61.6474 181.622 61.6474 181.517 61.6999C182.564 62.0149 183.715 61.9624 184.761 61.4899C187.273 60.4399 188.477 57.4999 187.43 54.9799L184.081 46.8424Z" fill="#88A9AA"/>
<path d="M197.111 44.1124C196.064 41.6974 193.343 40.4899 190.884 41.3299C192.297 41.7499 193.5 42.7474 194.128 44.2174L197.529 52.3549C198.576 54.8749 197.424 57.8149 194.861 58.8649C194.756 58.9174 194.651 58.9174 194.547 58.9699C195.593 59.2849 196.744 59.2324 197.791 58.7599C200.302 57.7099 201.506 54.7699 200.459 52.2499L197.111 44.1124Z" fill="#88A9AA"/>
<path d="M210.192 41.3825C209.145 38.9675 206.424 37.76 203.965 38.6C205.378 39.02 206.581 40.0175 207.209 41.4875L210.61 49.625C211.657 52.145 210.506 55.085 207.942 56.135C207.837 56.1875 207.733 56.1875 207.628 56.24C208.674 56.555 209.826 56.5025 210.872 56.03C213.384 54.98 214.587 52.04 213.541 49.52L210.192 41.3825Z" fill="#88A9AA"/>
<path d="M223.221 38.6525C222.174 36.2375 219.453 35.03 216.994 35.87C218.407 36.29 219.61 37.2875 220.238 38.7575L223.639 46.895C224.686 49.415 223.535 52.355 220.971 53.405C220.866 53.4575 220.762 53.4575 220.657 53.51C221.703 53.825 222.855 53.7725 223.901 53.3C226.413 52.25 227.616 49.31 226.57 46.79L223.221 38.6525Z" fill="#88A9AA"/>
<path d="M239.546 44.06L236.145 35.975C235.099 33.56 232.378 32.3525 229.918 33.1925C231.331 33.6125 232.535 34.61 233.163 36.08L236.564 44.2175C237.61 46.7375 236.459 49.6775 233.895 50.7275C233.791 50.78 233.686 50.78 233.581 50.8325C234.628 51.1475 235.779 51.095 236.825 50.6225C239.442 49.52 240.593 46.6325 239.546 44.06Z" fill="#88A9AA"/>
<path d="M158.442 60.545L155.041 52.4075C154.413 50.9375 153.209 49.94 151.796 49.52C151.692 49.5725 151.587 49.5725 151.483 49.625C148.971 50.675 147.767 53.615 148.814 56.135L152.215 64.325C152.843 65.795 154.046 66.7925 155.459 67.2125C155.564 67.16 155.669 67.16 155.773 67.1075C158.285 66.005 159.488 63.065 158.442 60.545Z" fill="#C1D9DB"/>
<path d="M168.855 64.325C171.366 63.275 172.57 60.335 171.523 57.815L168.122 49.6775C167.494 48.2075 166.291 47.21 164.878 46.79C164.773 46.8425 164.668 46.8425 164.564 46.895C162.052 47.945 160.849 50.885 161.895 53.405L165.296 61.5425C165.924 63.0125 167.128 64.01 168.541 64.43C168.645 64.43 168.75 64.3775 168.855 64.325Z" fill="#C1D9DB"/>
<path d="M184.552 55.0851L181.151 46.9476C180.523 45.4776 179.32 44.4801 177.907 44.0601C177.802 44.1126 177.698 44.1126 177.593 44.1651C175.081 45.2151 173.878 48.1551 174.924 50.6751L178.325 58.8126C178.953 60.2826 180.157 61.2801 181.57 61.7001C181.674 61.6476 181.779 61.6476 181.884 61.5951C184.395 60.5451 185.599 57.6051 184.552 55.0851Z" fill="#C1D9DB"/>
<path d="M194.965 58.8651C197.477 57.8151 198.68 54.8751 197.634 52.3551L194.233 44.2176C193.605 42.7476 192.401 41.7501 190.988 41.3301C190.884 41.3826 190.779 41.3826 190.674 41.4351C188.163 42.4851 186.959 45.4251 188.006 47.9451L191.407 56.0826C192.035 57.5526 193.238 58.5501 194.651 58.9701C194.756 58.9701 194.86 58.9176 194.965 58.8651Z" fill="#C1D9DB"/>
<path d="M210.663 49.6251L207.262 41.4876C206.634 40.0176 205.43 39.0201 204.017 38.6001C203.913 38.6526 203.808 38.6526 203.703 38.7051C201.192 39.7551 199.988 42.6951 201.035 45.2151L204.436 53.3526C205.064 54.8226 206.267 55.8201 207.68 56.2401C207.785 56.1876 207.89 56.1876 207.994 56.1351C210.506 55.0851 211.709 52.1451 210.663 49.6251Z" fill="#C1D9DB"/>
<path d="M223.692 46.8949L220.291 38.7574C219.663 37.2874 218.459 36.2899 217.046 35.8699C216.942 35.9224 216.837 35.9224 216.733 35.9749C214.221 37.0249 213.017 39.9649 214.064 42.4849L217.465 50.6224C218.093 52.0924 219.296 53.0899 220.709 53.5099C220.814 53.4574 220.919 53.4574 221.023 53.4049C223.587 52.3549 224.791 49.4149 223.692 46.8949Z" fill="#C1D9DB"/>
<path d="M236.616 44.1649L233.215 36.0274C232.587 34.5574 231.384 33.5599 229.971 33.1399C229.866 33.1924 229.761 33.1924 229.657 33.2449C227.145 34.2949 225.942 37.2349 226.988 39.7549L230.389 47.8924C231.017 49.3624 232.221 50.3599 233.634 50.7799C233.738 50.7274 233.843 50.7274 233.948 50.6749C236.459 49.6249 237.663 46.7374 236.616 44.1649Z" fill="#C1D9DB"/>
<path d="M240.855 162.133C257.876 162.133 271.674 148.288 271.674 131.21C271.674 114.132 257.876 100.288 240.855 100.288C223.833 100.288 210.035 114.132 210.035 131.21C210.035 148.288 223.833 162.133 240.855 162.133Z" fill="white"/>
<path d="M274.44 145.214C283.336 127.86 276.527 106.557 259.231 97.6314C241.935 88.7059 220.702 95.5381 211.807 112.892C202.911 130.245 209.72 151.548 227.016 160.474C244.312 169.399 265.544 162.567 274.44 145.214Z" fill="#8477D6"/>
<path d="M261.223 151.304C273.467 141.273 275.288 123.181 265.29 110.896C255.292 98.6106 237.26 96.7836 225.016 106.815C212.771 116.847 210.95 134.938 220.949 147.224C230.947 159.509 248.978 161.336 261.223 151.304Z" fill="white"/>
<path d="M242.895 128.48C242.32 128.427 241.954 127.955 241.954 127.377L243.366 110.735C243.419 110.157 243.89 109.79 244.465 109.79C245.041 109.842 245.407 110.315 245.407 110.892L243.994 127.535C243.942 128.112 243.471 128.532 242.895 128.48Z" fill="#9FDA85"/>
<path d="M255.244 138.297C255.087 138.297 254.93 138.245 254.773 138.14L244.465 131.525C243.994 131.21 243.837 130.58 244.151 130.107C244.465 129.635 245.093 129.477 245.564 129.792L255.872 136.407C256.343 136.722 256.5 137.352 256.186 137.825C255.977 138.192 255.558 138.35 255.244 138.297Z" fill="#9FDA85"/>
<path d="M246.611 129.372C246.454 131.42 244.622 132.942 242.582 132.785C240.541 132.627 239.023 130.79 239.18 128.742C239.337 126.695 241.169 125.172 243.209 125.33C245.25 125.487 246.768 127.272 246.611 129.372Z" fill="#4F647B"/>
<path d="M245.041 106.955C244.674 106.902 244.36 106.587 244.413 106.22L244.57 104.172C244.622 103.805 244.936 103.49 245.302 103.542C245.669 103.595 245.982 103.91 245.93 104.277L245.773 106.325C245.773 106.745 245.459 107.007 245.041 106.955Z" fill="#D1E0E0"/>
<path d="M241.116 152.997C240.75 152.945 240.436 152.63 240.488 152.262L240.645 150.32C240.698 149.952 241.012 149.637 241.378 149.69C241.744 149.742 242.058 150.057 242.006 150.425L241.849 152.367C241.797 152.735 241.483 153.05 241.116 152.997Z" fill="#D1E0E0"/>
<path d="M267.122 131.052L265.238 130.895C264.872 130.842 264.558 130.527 264.61 130.16C264.663 129.792 264.977 129.477 265.343 129.53L267.227 129.687C267.593 129.74 267.907 130.055 267.855 130.422C267.855 130.79 267.488 131.052 267.122 131.052Z" fill="#D1E0E0"/>
<path d="M221.756 127.115L219.192 126.905C218.826 126.852 218.512 126.537 218.564 126.17C218.616 125.802 218.93 125.487 219.297 125.54L221.861 125.75C222.227 125.802 222.541 126.117 222.488 126.485C222.488 126.852 222.175 127.115 221.756 127.115Z" fill="#D1E0E0"/>
<path d="M253.465 150.74C253.256 150.74 252.994 150.582 252.89 150.372L252 148.535C251.843 148.167 252 147.8 252.314 147.642C252.68 147.485 253.047 147.642 253.204 147.957L254.093 149.795C254.25 150.162 254.093 150.53 253.779 150.687C253.727 150.74 253.57 150.792 253.465 150.74Z" fill="#D1E0E0"/>
<path d="M233.686 108.845C233.477 108.845 233.215 108.687 233.111 108.477L232.326 106.797C232.169 106.43 232.326 106.062 232.64 105.905C233.006 105.747 233.372 105.905 233.529 106.22L234.314 107.9C234.471 108.267 234.314 108.635 234 108.792C233.896 108.845 233.791 108.897 233.686 108.845Z" fill="#D1E0E0"/>
<path d="M229.291 148.64C229.186 148.64 229.082 148.587 228.977 148.535C228.663 148.325 228.611 147.905 228.82 147.59L230.128 145.752C230.337 145.437 230.756 145.385 231.07 145.595C231.384 145.805 231.436 146.225 231.227 146.54L229.919 148.377C229.762 148.587 229.5 148.692 229.291 148.64Z" fill="#D1E0E0"/>
<path d="M255.977 110.787C255.872 110.787 255.768 110.735 255.663 110.682C255.349 110.472 255.297 110.052 255.506 109.737L256.605 108.215C256.814 107.9 257.233 107.847 257.547 108.057C257.861 108.267 257.913 108.687 257.704 109.002L256.605 110.525C256.448 110.735 256.186 110.84 255.977 110.787Z" fill="#D1E0E0"/>
<path d="M221.965 140.397C221.756 140.397 221.547 140.24 221.442 140.03C221.285 139.715 221.39 139.295 221.704 139.085L223.744 137.983C224.058 137.825 224.477 137.93 224.686 138.245C224.843 138.56 224.738 138.98 224.425 139.19L222.384 140.293C222.227 140.345 222.122 140.397 221.965 140.397Z" fill="#D1E0E0"/>
<path d="M262.831 118.347C262.622 118.347 262.413 118.19 262.308 117.98C262.151 117.665 262.256 117.245 262.57 117.035L264.087 116.247C264.401 116.09 264.82 116.195 265.029 116.51C265.186 116.825 265.081 117.245 264.768 117.455L263.25 118.242C263.093 118.347 262.988 118.347 262.831 118.347Z" fill="#D1E0E0"/>
<path d="M262.099 143.862C261.994 143.862 261.837 143.81 261.733 143.705L260.268 142.55C259.954 142.34 259.901 141.867 260.163 141.605C260.372 141.29 260.843 141.237 261.105 141.5L262.57 142.655C262.884 142.865 262.936 143.337 262.674 143.6C262.518 143.81 262.308 143.862 262.099 143.862Z" fill="#D1E0E0"/>
<path d="M225.994 115.46C225.89 115.46 225.733 115.407 225.628 115.302L223.901 113.937C223.587 113.727 223.535 113.255 223.797 112.992C224.006 112.677 224.477 112.625 224.739 112.887L226.465 114.252C226.779 114.462 226.832 114.935 226.57 115.197C226.465 115.355 226.204 115.46 225.994 115.46Z" fill="#D1E0E0"/>
<path d="M169.849 159.77C168.384 164.233 169.273 169.378 173.146 172.318C174.611 173.473 176.756 174.523 178.692 174.208C180.209 173.998 181.361 172.685 180.785 171.163C180.209 169.588 178.43 169.378 177.018 170.008C175.134 170.848 173.878 172.79 173.564 174.785C172.884 178.618 176.076 181.925 179.948 181.085C181.361 180.77 183.454 179.563 182.721 177.778C181.989 175.94 179.634 176.518 178.326 177.305C175.186 179.195 173.302 183.658 174.872 187.123C176.442 190.588 181.256 192.058 184.448 189.905C185.547 189.17 186.646 187.49 185.337 186.335C184.186 185.285 182.459 185.915 181.57 187.018C178.797 190.43 180.733 196.258 184.134 198.41C185.913 199.565 188.163 199.933 190.256 199.513C191.93 199.198 193.919 198.095 193.919 196.1C193.919 194.578 192.454 193.895 191.146 194.315C189.366 194.84 188.634 196.888 188.686 198.62C188.739 202.978 192.82 205.918 196.954 204.868C198.68 204.448 200.773 203.188 201.087 201.298C201.349 199.723 199.989 198.83 198.576 199.198C196.744 199.67 196.012 201.665 196.012 203.398C196.012 205.498 196.901 207.598 198.366 209.068C199.884 210.59 202.029 211.273 204.122 211.22C206.111 211.168 208.622 210.38 209.616 208.49C210.297 207.125 209.93 205.288 208.256 205.078C206.372 204.815 205.012 206.548 204.436 208.07C203.128 211.483 204.541 215.893 207.994 217.415C209.512 218.098 211.762 218.203 212.913 216.733C213.803 215.578 213.593 213.845 212.442 212.953C210.872 211.745 208.622 212.585 207.314 213.74C205.744 215.105 204.332 217.258 204.175 219.358C204.018 220.985 204.802 222.98 206.582 223.243C207.942 223.453 209.616 222.56 209.826 221.09C210.035 219.673 208.779 218.465 207.419 218.833C207.105 218.938 207.209 219.41 207.576 219.358C209.303 218.938 209.773 221.09 208.832 222.088C208.361 222.56 207.68 222.823 207.053 222.823C204.907 222.77 204.489 220.093 204.959 218.465C205.64 215.998 208.936 211.535 211.971 213.268C213.907 214.37 212.913 216.943 211.029 217.363C209.616 217.678 208.047 217.048 206.948 216.155C205.064 214.58 204.175 211.903 204.646 209.488C204.907 208.07 205.692 206.443 207.053 205.865C208.308 205.34 209.721 206.128 209.459 207.65C209.302 208.648 208.518 209.383 207.68 209.855C204.907 211.483 201.035 211.063 198.785 208.805C196.849 206.915 195.384 202.663 197.582 200.458C198.209 199.828 199.256 199.46 200.041 200.038C201.035 200.773 200.512 202.033 199.832 202.82C198.733 204.08 196.954 204.71 195.332 204.71C192.244 204.763 189.733 202.505 189.314 199.46C189.105 197.99 189.419 196.153 190.727 195.26C191.459 194.788 192.715 194.525 193.291 195.47C193.919 196.468 193.029 197.833 192.244 198.358C189.733 200.09 185.756 199.303 183.611 197.413C181.361 195.418 180.419 191.953 181.308 189.065C181.727 187.7 183.244 185.653 184.919 186.755C186.07 187.543 185.18 188.908 184.396 189.538C183.715 190.01 182.983 190.325 182.146 190.43C179.634 190.85 176.861 189.748 175.605 187.49C174.349 185.18 174.925 182.293 176.337 180.193C177.07 179.09 178.116 178.145 179.32 177.62C180.366 177.148 183.297 177.095 182.198 179.353C181.779 180.193 180.68 180.613 179.843 180.823C176.39 181.505 173.512 178.565 174.087 175.153C174.349 173.525 175.239 171.95 176.651 171.058C177.384 170.585 178.43 170.165 179.268 170.48C180.68 170.953 180.837 172.948 179.529 173.683C178.064 174.47 176.023 173.683 174.663 172.948C173.355 172.213 172.204 171.163 171.314 169.903C169.378 167.015 169.221 163.34 170.32 160.138C170.425 159.613 169.954 159.455 169.849 159.77Z" fill="#C1D9DB"/>
<path d="M164.25 169.587C158.704 170.847 152.895 170.795 151.954 168.852C147.977 160.557 147.663 151.685 147.768 148.062C147.768 147.012 148.395 145.962 149.337 145.332C155.93 141.185 163.151 141.395 163.151 141.395C162.576 139.82 161.791 137.982 160.954 136.197C157.5 128.9 153.105 122.127 147.768 116.037C146.459 114.567 145.151 113.15 143.895 111.942C143.895 111.942 141.227 118.662 134.791 123.072C133.849 123.702 132.645 123.86 131.651 123.44C128.302 122.075 120.297 118.295 114.279 111.312C112.866 109.685 115.169 104.33 118.518 99.71C121.866 95.09 127.099 89.3675 135.262 92.2025C143.372 95.0375 157.082 113.832 161.895 121.182C166.657 128.48 178.43 148.587 177.802 157.197C177.175 165.807 169.849 168.327 164.25 169.587Z" fill="#6152BE"/>
<path d="M115.849 109.632C122.18 112.467 127.832 116.667 132.332 121.917C132.541 122.18 132.907 121.812 132.698 121.55C128.146 116.247 122.494 112.047 116.111 109.16C115.797 109.055 115.535 109.527 115.849 109.632Z" fill="#107746"/>
<path d="M149.599 147.013C152.739 153.68 154.204 161.03 153.837 168.38C153.837 168.695 154.361 168.695 154.361 168.38C154.727 160.925 153.262 153.47 150.07 146.75C149.913 146.435 149.442 146.698 149.599 147.013Z" fill="#107746"/>
<path d="M144.366 112.1C144.733 111.417 144.994 110.682 145.099 109.895C145.151 109.58 144.628 109.422 144.576 109.737C144.471 110.472 144.209 111.155 143.895 111.785C143.738 112.152 144.209 112.415 144.366 112.1Z" fill="#107746"/>
<path d="M163.308 141.448C164.25 141.448 165.244 141.5 166.186 141.658C166.5 141.71 166.657 141.238 166.343 141.133C165.349 140.975 164.355 140.87 163.361 140.87C162.942 140.923 162.942 141.448 163.308 141.448Z" fill="#107746"/>
<path d="M133.064 79.9701C137.093 79.1301 141.175 78.2376 145.204 77.3976C145.518 77.3451 145.413 76.8201 145.047 76.8726C141.018 77.7126 136.936 78.6051 132.907 79.4451C132.593 79.5501 132.75 80.0751 133.064 79.9701Z" fill="#107746"/>
<path d="M141.855 76.5574C143.791 76.1899 145.674 75.8224 147.611 75.5074C147.924 75.4549 147.82 74.9299 147.454 74.9824C145.518 75.3499 143.634 75.7174 141.698 76.0324C141.384 76.0849 141.541 76.6099 141.855 76.5574Z" fill="#107746"/>
<path d="M245.616 44.9524C246.977 44.6374 248.285 44.3224 249.645 44.0074C249.959 43.9549 249.855 43.4299 249.489 43.4824C248.128 43.7974 246.82 44.1124 245.459 44.4274C245.146 44.5324 245.302 45.0574 245.616 44.9524Z" fill="#107746"/>
<path d="M243.942 47.3674C245.25 47.0524 246.506 46.7374 247.814 46.4224C248.128 46.3174 248.023 45.8449 247.657 45.8974C246.349 46.2124 245.093 46.5274 243.785 46.8424C243.471 46.9474 243.628 47.4724 243.942 47.3674Z" fill="#107746"/>
<path d="M246.82 55.5575C251.163 54.6125 255.454 53.72 259.797 52.775C260.111 52.7225 260.006 52.1975 259.64 52.25C255.297 53.195 251.006 54.0875 246.663 55.0325C246.349 55.085 246.506 55.61 246.82 55.5575Z" fill="#107746"/>
</g>
</g>
<defs>
<linearGradient id="paint0_linear_105_383" x1="256.594" y1="71.2282" x2="179.574" y2="168.135" gradientUnits="userSpaceOnUse">
<stop stop-color="white"/>
<stop offset="1" stop-color="#9FDA85"/>
</linearGradient>
<linearGradient id="paint1_linear_105_383" x1="258.129" y1="72.4487" x2="181.11" y2="169.356" gradientUnits="userSpaceOnUse">
<stop stop-color="white"/>
<stop offset="1" stop-color="#9FDA85"/>
</linearGradient>
<linearGradient id="paint2_linear_105_383" x1="266.295" y1="78.9383" x2="189.275" y2="175.845" gradientUnits="userSpaceOnUse">
<stop stop-color="white"/>
<stop offset="1" stop-color="#9FDA85"/>
</linearGradient>
<linearGradient id="paint3_linear_105_383" x1="274.46" y1="85.428" x2="197.441" y2="182.335" gradientUnits="userSpaceOnUse">
<stop stop-color="white"/>
<stop offset="1" stop-color="#9FDA85"/>
</linearGradient>
<clipPath id="clip0_105_383">
<rect width="290" height="150" fill="white" transform="translate(37 25)"/>
</clipPath>
<clipPath id="clip1_105_383">
<rect width="180" height="168" fill="white" transform="translate(108 26)"/>
</clipPath>
</defs>
</svg>
