<svg width="23" height="24" viewBox="0 0 23 24" fill="none" xmlns="http://www.w3.org/2000/svg">
<g clip-path="url(#clip0_76_282)">
<path d="M18.6939 1.93754H18.284C18.3873 1.80453 18.4693 1.73508 18.4462 1.75597L18.4457 1.75538C18.938 1.31749 18.6283 0.5 17.9687 0.5C17.639 0.5 17.502 0.693613 17.4912 0.681574C17.3972 0.765173 16.5711 1.53024 16.5326 2.63113C16.5148 3.13893 16.6667 3.89811 17.4912 4.63096C17.7899 4.89636 18.244 4.86599 18.506 4.57122C18.7697 4.27455 18.7429 3.82021 18.4463 3.55652C18.3778 3.4957 18.3173 3.43523 18.2637 3.37499H18.6939C20.2756 3.37499 21.5624 4.66182 21.5624 6.24356V19.1939C21.5624 20.7756 20.2756 22.0625 18.6939 22.0625H4.30611C2.72437 22.0625 1.43754 20.7756 1.43754 19.1939V6.24361C1.43754 4.86352 2.41728 3.70818 3.71772 3.43595C3.84638 3.80809 4.09529 4.22343 4.55376 4.63096C4.69073 4.75266 4.86116 4.81254 5.03101 4.81254C5.68759 4.81254 6.00334 3.99622 5.5088 3.55661C5.18967 3.27298 5.03352 2.99788 5.03132 2.71572C5.0271 2.17796 5.56549 1.70462 5.5088 1.75601L5.5083 1.75543C6.0006 1.31753 5.69091 0.500045 5.03132 0.500045C4.7016 0.500045 4.56454 0.693658 4.5538 0.681619C4.4782 0.748822 3.95122 1.23735 3.71184 1.97878C1.61772 2.26915 8.58307e-05 4.07088 8.58307e-05 6.24365V19.194C8.58307e-05 21.5684 1.93181 23.5 4.30615 23.5H18.6939C21.0683 23.5 23 21.5684 23 19.194V6.24361C23 3.86922 21.0683 1.93754 18.6939 1.93754V1.93754Z" fill="#555555"/>
<path d="M13.1787 4.63099C13.4774 4.89639 13.9315 4.86607 14.1935 4.57129C14.4572 4.27463 14.4304 3.82029 14.1338 3.5566C13.8147 3.27296 13.6585 2.99786 13.6563 2.71571C13.6521 2.17795 14.1905 1.7046 14.1338 1.75599C14.1283 1.7498 14.375 1.57873 14.375 1.21882C14.375 0.600514 13.641 0.271371 13.1793 0.682182C13.1726 0.67468 12.2188 1.52797 12.2188 2.70955C12.2188 3.19677 12.3853 3.92572 13.1787 4.63099V4.63099Z" fill="#555555"/>
<path d="M8.86626 4.63099C9.1649 4.89639 9.61897 4.86607 9.881 4.57129C10.1447 4.27463 10.118 3.82029 9.8213 3.5566C9.50217 3.27296 9.34602 2.99786 9.34382 2.71571C9.3396 2.17795 9.87799 1.7046 9.8213 1.75599C9.81577 1.7498 10.0625 1.57873 10.0625 1.21882C10.0625 0.600514 9.32855 0.271371 8.8668 0.682182C8.86011 0.67468 7.90628 1.52797 7.90628 2.70955C7.90628 3.19677 8.07285 3.92572 8.86626 4.63099V4.63099Z" fill="#555555"/>
<path d="M19.4063 6.96875C19.4063 6.57182 19.0845 6.25 18.6875 6.25H4.31254C3.91557 6.25 3.59379 6.57182 3.59379 6.96875C3.59379 7.36568 3.91557 7.6875 4.31254 7.6875H18.6875C19.0845 7.6875 19.4063 7.36572 19.4063 6.96875Z" fill="#555555"/>
<path d="M16.1 9.26881C13.4331 11.269 11.3874 15.3244 10.5382 17.2092L7.69574 14.3668C7.41506 14.0861 6.95996 14.0861 6.67929 14.3668C6.39857 14.6475 6.39857 15.1026 6.67929 15.3833L10.273 18.9771C10.6398 19.3437 11.2612 19.2118 11.4501 18.732C11.4735 18.6727 13.8215 12.7746 16.9625 10.4188C17.28 10.1806 17.3444 9.73007 17.1062 9.41252C16.8681 9.09501 16.4176 9.03059 16.1 9.26881V9.26881Z" fill="#555555"/>
</g>
<defs>
<clipPath id="clip0_76_282">
<rect width="23" height="23" fill="white" transform="translate(0 0.5)"/>
</clipPath>
</defs>
</svg>
