<svg width="296" height="300" viewBox="0 0 296 300" fill="none" xmlns="http://www.w3.org/2000/svg">
<g clip-path="url(#clip0_172_53)">
<path d="M286.708 150.98C284.956 138.424 281.419 126.183 276.205 114.627C275.369 112.893 274.062 111.43 272.433 110.405C270.804 109.38 268.918 108.836 266.994 108.834H232.588L231.47 129.303H260.149C263.19 137.333 265.315 145.68 266.484 154.186C269.143 174.821 264.256 190.434 251.959 200.587C245.039 206.403 236.148 209.338 227.125 208.785L226.613 218.052C226.397 221.822 225.626 225.54 224.323 229.085L224.346 229.105C226.018 229.24 227.692 229.308 229.369 229.31C242.405 229.384 255.038 224.793 264.985 216.366C282.947 201.539 290.456 178.931 286.708 150.98V150.98Z" fill="#6152BE"/>
<path d="M88.1683 252.576L78.2178 241.09C72.6465 234.659 69.3703 226.558 68.9043 218.062L61.8911 89.7161H233.632L226.619 218.052C226.152 226.548 222.875 234.649 217.303 241.08L207.352 252.566L88.1683 252.576Z" fill="#7564DE"/>
<path d="M295.379 252.576C276.715 271.043 252.792 283.281 226.895 287.609L220.475 299.857H75.0476L68.628 287.609C42.7305 283.281 18.8075 271.043 0.143555 252.576H295.379Z" fill="#08C5DA"/>
<path d="M147.761 218.605C173.973 218.605 195.222 197.356 195.222 171.145C195.222 144.933 173.973 123.685 147.761 123.685C121.55 123.685 100.301 144.933 100.301 171.145C100.301 197.356 121.55 218.605 147.761 218.605Z" fill="#F1F1FB"/>
<path d="M147.761 70.4572C146.95 70.4556 146.155 70.2338 145.46 69.8155C144.765 69.3972 144.196 68.7981 143.815 68.0821C143.434 67.3661 143.255 66.56 143.296 65.7499C143.337 64.9398 143.597 64.1561 144.049 63.4823C146.612 59.6904 147.982 55.2178 147.982 50.6406C147.982 46.0633 146.612 41.5907 144.049 37.7988C140.491 32.5305 138.589 26.3185 138.589 19.9612C138.589 13.604 140.491 7.39198 144.049 2.1237C144.722 1.16381 145.745 0.506232 146.898 0.292128C148.051 0.0780232 149.242 0.324459 150.215 0.978535C151.188 1.63261 151.866 2.64219 152.104 3.79055C152.341 4.93891 152.118 6.13452 151.484 7.12072C148.92 10.9127 147.55 15.3852 147.55 19.9625C147.55 24.5398 148.92 29.0123 151.484 32.8043C155.042 38.0721 156.944 44.2837 156.944 50.6406C156.944 56.9974 155.042 63.209 151.484 68.4768C151.074 69.0872 150.52 69.5873 149.87 69.9327C149.221 70.2781 148.497 70.4582 147.761 70.4572V70.4572Z" fill="#08C5DA"/>
<path d="M188.482 70.4571C187.67 70.456 186.875 70.2346 186.179 69.8164C185.484 69.3983 184.915 68.7993 184.534 68.0832C184.152 67.3671 183.973 66.5608 184.014 65.7505C184.055 64.9402 184.315 64.1562 184.767 63.4823C187.329 59.6899 188.699 55.2175 188.699 50.6405C188.699 46.0634 187.329 41.591 184.767 37.7987C184.132 36.8125 183.91 35.6169 184.147 34.4685C184.384 33.3202 185.062 32.3106 186.036 31.6565C187.009 31.0024 188.2 30.756 189.353 30.9701C190.505 31.1842 191.529 31.8418 192.202 32.8017C195.76 38.07 197.661 44.282 197.661 50.6392C197.661 56.9965 195.76 63.2085 192.202 68.4767C191.792 69.087 191.238 69.5869 190.59 69.9323C189.941 70.2777 189.217 70.4579 188.482 70.4571V70.4571Z" fill="#08C5DA"/>
<path d="M107.035 70.4572C106.224 70.4564 105.428 70.2352 104.732 69.8171C104.037 69.399 103.468 68.7998 103.087 68.0834C102.706 67.3671 102.526 66.5606 102.568 65.7502C102.609 64.9398 102.87 64.1559 103.323 63.4823C105.886 59.69 107.255 55.2176 107.255 50.6405C107.255 46.0635 105.886 41.5911 103.323 37.7988C102.66 36.8131 102.416 35.6046 102.645 34.439C102.873 33.2735 103.555 32.2465 104.541 31.5838C105.526 30.9212 106.735 30.6772 107.9 30.9056C109.066 31.134 110.093 31.8161 110.756 32.8017C114.315 38.0695 116.217 44.2817 116.217 50.6393C116.217 56.9968 114.315 63.209 110.756 68.4768C110.346 69.0872 109.792 69.5872 109.143 69.9326C108.495 70.2781 107.771 70.4582 107.035 70.4572V70.4572Z" fill="#08C5DA"/>
<path d="M147.761 175.625C146.574 175.624 145.435 175.152 144.596 174.313C143.756 173.473 143.284 172.334 143.284 171.147V144.742C143.284 143.554 143.755 142.416 144.595 141.576C145.435 140.736 146.574 140.264 147.761 140.264C148.949 140.264 150.088 140.736 150.927 141.576C151.767 142.416 152.239 143.554 152.239 144.742V166.67H174.164C175.351 166.67 176.49 167.141 177.33 167.981C178.17 168.821 178.641 169.96 178.641 171.147C178.641 172.335 178.17 173.474 177.33 174.313C176.49 175.153 175.351 175.625 174.164 175.625H147.761Z" fill="#08C5DA"/>
</g>
<defs>
<clipPath id="clip0_172_53">
<rect width="295.522" height="300" fill="white"/>
</clipPath>
</defs>
</svg>
