<svg width="25" height="24" viewBox="0 0 25 24" fill="none" xmlns="http://www.w3.org/2000/svg">
<g clip-path="url(#clip0_76_274)">
<path d="M20.6033 9.84106V21.4882H16.2056V16.4509C16.2056 16.0092 15.8477 15.6513 15.4061 15.6513H9.78237C9.34072 15.6513 8.98281 16.0093 8.98281 16.4509V21.4882H4.61182V9.84106H3.0127V22.2877C3.0127 22.7294 3.37065 23.0873 3.81226 23.0873H9.78242C10.2241 23.0873 10.582 22.7293 10.582 22.2877V17.2505H14.6065V22.2878C14.6065 22.7294 14.9645 23.0874 15.4061 23.0874H21.4029C21.8445 23.0874 22.2024 22.7294 22.2024 22.2878V9.84106H20.6033Z" fill="#555555"/>
<path d="M24.7469 11.9759L13.153 1.12843C12.8478 0.84244 12.3734 0.840584 12.0656 1.12335L0.258541 11.9709C-0.0666059 12.2697 -0.0879438 12.7753 0.210836 13.1004C0.368356 13.2724 0.583688 13.3592 0.79985 13.3592C0.993063 13.3592 1.18711 13.2894 1.34062 13.1484L12.6018 2.80245L23.6543 13.1436C23.9774 13.4456 24.4827 13.4283 24.7844 13.106C25.0859 12.7835 25.0693 12.2776 24.7469 11.9759Z" fill="#555555"/>
</g>
<defs>
<clipPath id="clip0_76_274">
<rect width="25" height="22.5" fill="white" transform="translate(0 0.75)"/>
</clipPath>
</defs>
</svg>
