<svg width="24" height="24" viewBox="0 0 24 24" fill="none" xmlns="http://www.w3.org/2000/svg">
<path d="M23.6236 11.3456L17.9492 7.1595C17.4892 6.82013 16.8373 7.14984 16.8373 7.72092V9.81394H15.4419V2.09302C15.442 0.938953 14.503 0 13.3489 0H2.18611C1.0342 0 0.0930939 0.938766 0.0930939 2.09302C0.0930939 2.7353 0.0930939 17.298 0.0930939 18.1835C0.0930939 18.8849 0.441516 19.536 1.02516 19.925L6.60656 23.646C7.99603 24.5723 9.86063 23.5723 9.86063 21.9045V21.0233H13.349C14.5031 21.0233 15.442 20.0844 15.442 18.9303V14.0001H16.8374V16.0931C16.8374 16.6682 17.4928 16.9913 17.9493 16.6545L23.6237 12.4684C24.0014 12.1898 24.0013 11.6242 23.6236 11.3456ZM7.38057 22.4849L1.79916 18.764C1.60458 18.6343 1.48847 18.4172 1.48847 18.1835C1.48847 17.9857 1.48847 4.70503 1.48847 2.09297C1.48847 2.007 1.50483 1.92502 1.53338 1.84894L7.96327 5.06391C8.19225 5.17838 8.46521 5.38969 8.46521 5.74608V21.9044H8.46525C8.46525 22.4622 7.84496 22.7946 7.38057 22.4849ZM14.0467 18.9303C14.0467 19.315 13.7337 19.628 13.349 19.628H9.86063V5.74613C9.86063 4.92408 9.39652 4.22053 8.58736 3.81591L3.7462 1.39538H13.349C13.7337 1.39538 14.0467 1.70836 14.0467 2.09306V9.81403H11.9536C11.5683 9.81403 11.256 10.1264 11.256 10.5117V13.3024C11.256 13.6877 11.5683 14.0001 11.9536 14.0001H14.0467V18.9303ZM18.2327 14.7114V13.3024C18.2327 12.9171 17.9204 12.6047 17.5351 12.6047H12.6513V11.2093H17.5351C17.9204 11.2093 18.2327 10.8969 18.2327 10.5116V9.10266L22.0343 11.907L18.2327 14.7114Z" fill="#555555"/>
</svg>
