<svg width="21" height="23" viewBox="0 0 21 23" fill="none" xmlns="http://www.w3.org/2000/svg">
<path d="M10.5 0C8.813 0 7.44037 1.37263 7.44037 3.05963V3.98277H9.02292V3.05963C9.02292 2.24515 9.68574 1.58255 10.5 1.58255C11.3145 1.58255 11.9773 2.24511 11.9773 3.05963V3.98277H13.5599V3.05963C13.5599 1.37263 12.187 0 10.5 0Z" fill="#555555"/>
<path d="M12.6629 19.2808C12.6629 20.459 11.7044 21.4175 10.5264 21.4175H10.4736C9.29569 21.4175 8.33715 20.459 8.33715 19.2808H6.75459C6.75459 21.3318 8.4229 23.0001 10.4736 23.0001H10.5264C12.5771 23.0001 14.2454 21.3318 14.2454 19.2808H12.6629Z" fill="#555555"/>
<path d="M20.74 18.985L18.492 15.4878V10.9988C18.492 6.54839 14.9067 2.92773 10.5 2.92773C6.09312 2.92773 2.50808 6.54839 2.50808 10.9988V15.4878L0.260059 18.9847C0.103371 19.2282 0.0923203 19.5379 0.231039 19.7918C0.369758 20.0458 0.63592 20.2041 0.925531 20.2041H20.0746C20.3642 20.2041 20.6303 20.0458 20.7688 19.7921C20.9078 19.5381 20.8967 19.2285 20.74 18.985ZM2.37485 18.6215L3.96481 16.148C4.04684 16.0206 4.09064 15.8718 4.09064 15.7202V10.9988C4.09064 7.42118 6.9659 4.51033 10.5 4.51033C14.0344 4.51033 16.9094 7.42122 16.9094 10.9988V15.7202C16.9094 15.8718 16.953 16.0203 17.035 16.148L18.625 18.6215H2.37485Z" fill="#555555"/>
</svg>
