<svg width="300" height="300" viewBox="0 0 300 300" fill="none" xmlns="http://www.w3.org/2000/svg">
<g clip-path="url(#clip0_172_13)">
<path d="M25 9.375H165.625C179.437 9.375 190.625 20.5625 190.625 34.375V53.125V209.375V228.125C190.625 241.937 179.437 253.125 165.625 253.125H115.625H25V9.375Z" fill="#F3F3F1"/>
<path d="M115.625 50V275C115.625 283.625 108.625 290.625 100 290.625C98.25 290.625 96.625 290.375 95 289.875L20 264.875C13.875 262.75 9.375 256.875 9.375 250V25C9.375 16.375 16.375 9.375 25 9.375C26.75 9.375 28.375 9.625 30 10.125L105 35.125C111.125 37.25 115.625 43.125 115.625 50V50Z" fill="#08C5DA"/>
<path d="M48.125 264.875C42 262.75 37.5 256.875 37.5 250V25C37.5 20.7625 39.225 16.925 41.975 14.1125L30 10.125C28.375 9.625 26.75 9.375 25 9.375C16.375 9.375 9.375 16.375 9.375 25V250C9.375 256.875 13.875 262.75 20 264.875L95 289.875C96.625 290.375 98.25 290.625 100 290.625C104.388 290.625 108.313 288.8 111.15 285.888L48.125 264.875Z" fill="#1BB1C1"/>
<path d="M171.875 121.875H290.626V140.625H171.875V121.875Z" fill="#333333"/>
<path d="M250.375 184.75L237.125 171.5L277.375 131.25L237.125 90.9996L250.387 77.7371L297.262 124.612C300.925 128.275 300.925 134.212 297.262 137.875L250.375 184.75Z" fill="#333333"/>
<path d="M100 300C97.3125 300 94.775 299.625 92.2375 298.838L17.0375 273.775C6.8 270.2 0 260.675 0 250V25C0 11.2125 11.2125 0 25 0C27.6875 0 30.225 0.374999 32.7625 1.1625L107.963 26.225C118.2 29.8 125 39.325 125 50V275C125 288.788 113.788 300 100 300ZM25 18.75C21.55 18.75 18.75 21.5625 18.75 25V250C18.75 252.663 20.5375 255.138 23.0875 256.025L97.9625 280.975C98.5 281.15 99.1875 281.25 100 281.25C103.45 281.25 106.25 278.438 106.25 275V50C106.25 47.3375 104.463 44.8625 101.913 43.975L27.0375 19.025C26.5 18.85 25.8125 18.75 25 18.75V18.75Z" fill="#333333"/>
<path d="M200 86.3393H181.25V34.375C181.25 25.7625 174.238 18.75 165.625 18.75H25V0H165.625C184.588 0 200 15.4125 200 34.375V86.3393Z" fill="#333333"/>
<path d="M165.625 262.5H115.625V243.75H165.625C174.238 243.75 181.25 236.737 181.25 228.125V176.161H200V228.125C200 247.087 184.588 262.5 165.625 262.5Z" fill="#333333"/>
<path d="M84.0909 145.455C79.0788 145.455 75 141.376 75 136.364C75 131.351 79.0788 127.273 84.0909 127.273C89.103 127.273 93.1818 131.351 93.1818 136.364C93.1818 141.376 89.103 145.455 84.0909 145.455Z" fill="#222222"/>
</g>
<defs>
<clipPath id="clip0_172_13">
<rect width="300" height="300" fill="white"/>
</clipPath>
</defs>
</svg>
