<svg width="32" height="33" viewBox="0 0 32 33" fill="none" xmlns="http://www.w3.org/2000/svg">
<path d="M25.6655 29.8537C25.3028 29.8537 24.9764 29.6342 24.8395 29.2984C24.7029 28.9625 24.783 28.5772 25.0426 28.3239C28.2774 25.1643 30.0588 20.9658 30.0588 16.5001C30.0588 12.0343 28.2774 7.83582 25.0426 4.67623C24.6942 4.33271 24.6879 3.77284 25.0279 3.42131C25.368 3.06977 25.9278 3.05793 26.2825 3.39448L26.2884 3.40005C29.8703 6.89794 31.8426 11.5501 31.8426 16.5001C31.8426 21.4501 29.8703 26.1022 26.2888 29.6001C26.1222 29.7631 25.8986 29.8541 25.6655 29.8537V29.8537Z" fill="#4F4F4F"/>
<path d="M21.514 25.799C21.1513 25.799 20.8249 25.5795 20.6879 25.2436C20.551 24.9078 20.6315 24.5224 20.8907 24.2692C25.1815 20.124 25.2996 13.2853 21.1544 8.99448C21.068 8.9053 20.9802 8.8175 20.8907 8.73075C20.5367 8.38828 20.5277 7.82353 20.8701 7.46956C21.2126 7.11559 21.7774 7.10653 22.1313 7.449L22.1373 7.45493C27.1325 12.2882 27.2642 20.256 22.4306 25.2516C22.3345 25.3513 22.2366 25.4488 22.1373 25.545C21.9707 25.708 21.7471 25.7993 21.514 25.799Z" fill="#4F4F4F"/>
<path d="M16.9696 21.3609C16.6069 21.3609 16.2801 21.1414 16.1436 20.8056C16.0066 20.4697 16.0868 20.0844 16.3463 19.8311C18.1852 18.0557 18.2371 15.1257 16.4623 13.2865C16.424 13.2468 16.3854 13.2081 16.3463 13.1705C15.992 12.8277 15.983 12.2633 16.3254 11.9089C16.6679 11.555 17.2326 11.5456 17.5866 11.888L17.5925 11.894C20.1369 14.3575 20.2024 18.4166 17.7389 20.961C17.6911 21.0104 17.6424 21.0592 17.5925 21.1073C17.4264 21.2703 17.2023 21.3613 16.9696 21.3609Z" fill="#4F4F4F"/>
<path d="M13.7808 33H12.4994C7.15185 33 2.57533 29.2635 1.6169 24.1156L1.17444 21.7395C0.527466 18.2765 0.527466 14.7232 1.17444 11.2598L1.6169 8.88408C2.57533 3.73654 7.15151 0 12.4994 0H13.7808C15.2736 0 16.4885 1.19569 16.4885 2.66557V7.6316C16.4885 9.10148 15.2736 10.2972 13.7808 10.2972H10.655C10.163 10.2905 9.73277 10.6271 9.62093 11.1061L9.61954 11.1135C8.88756 14.6671 8.88756 18.3329 9.61954 21.8865C9.62023 21.889 9.62058 21.8914 9.62128 21.8939C9.73277 22.3729 10.163 22.7094 10.655 22.7028H13.7808C15.2736 22.7028 16.4885 23.8985 16.4885 25.3684V30.3344C16.4885 31.8043 15.2736 33 13.7808 33ZM12.4994 1.78378C8.011 1.78378 4.17168 4.90715 3.37037 9.21087L2.92826 11.5866C2.32135 14.8343 2.32135 18.1657 2.92826 21.4134L3.37037 23.7891C4.17168 28.0928 8.011 31.2162 12.4994 31.2162H13.7808C14.279 31.227 14.6922 30.8326 14.7047 30.3344V25.3684C14.6922 24.8698 14.279 24.4755 13.7808 24.4866H10.655C9.31434 24.4911 8.15349 23.556 7.87233 22.245C7.87164 22.2419 7.87094 22.2384 7.87024 22.2353C7.09228 18.4514 7.09228 14.5486 7.87024 10.7647C7.87094 10.7612 7.87164 10.7581 7.87233 10.755C8.15349 9.44395 9.31434 8.50886 10.655 8.51339H13.7808C14.279 8.52453 14.6922 8.13015 14.7047 7.6316V2.66557C14.6922 2.16737 14.279 1.77298 13.7808 1.78378H12.4994Z" fill="#4F4F4F"/>
</svg>
