<svg width="25" height="24" viewBox="0 0 25 24" fill="none" xmlns="http://www.w3.org/2000/svg">
<path fill-rule="evenodd" clip-rule="evenodd" d="M10.059 21.4562C6.387 21.4562 3.25 20.9012 3.25 18.6772C3.25 16.4532 6.367 14.4492 10.059 14.4492C13.731 14.4492 16.867 16.4342 16.867 18.6572C16.867 20.8802 13.751 21.4562 10.059 21.4562Z" stroke="#8E8E8E" stroke-width="1.5" stroke-linecap="round" stroke-linejoin="round"/>
<path fill-rule="evenodd" clip-rule="evenodd" d="M10.0593 11.2773C12.4693 11.2773 14.4233 9.32332 14.4233 6.91332C14.4233 4.50332 12.4693 2.54932 10.0593 2.54932C7.64934 2.54932 5.69534 4.50332 5.69534 6.91332C5.68634 9.31532 7.62734 11.2693 10.0283 11.2773H10.0593Z" stroke="#8E8E8E" stroke-width="1.5" stroke-linecap="round" stroke-linejoin="round"/>
<path d="M17.3003 10.0786C18.7033 9.70364 19.7373 8.42464 19.7373 6.90264C19.7383 5.31464 18.6113 3.98864 17.1133 3.68164" stroke="#8E8E8E" stroke-width="1.5" stroke-linecap="round" stroke-linejoin="round"/>
<path d="M17.9609 13.6533C19.9489 13.6533 21.6469 15.0013 21.6469 16.2043C21.6469 16.9133 21.0619 17.6413 20.1719 17.8503" stroke="#8E8E8E" stroke-width="1.5" stroke-linecap="round" stroke-linejoin="round"/>
</svg>
