<svg width="21" height="21" viewBox="0 0 21 21" fill="none" xmlns="http://www.w3.org/2000/svg">
<path d="M17.4492 20.2085H3.44922C2.65357 20.2085 1.89051 19.8924 1.3279 19.3298C0.765289 18.7672 0.449219 18.0041 0.449219 17.2085V1.2085C0.449219 0.94328 0.554576 0.688926 0.742112 0.501389C0.929648 0.313853 1.184 0.208496 1.44922 0.208496H15.4492C15.7144 0.208496 15.9688 0.313853 16.1563 0.501389C16.3439 0.688926 16.4492 0.94328 16.4492 1.2085V13.2085H20.4492V17.2085C20.4492 18.0041 20.1331 18.7672 19.5705 19.3298C19.0079 19.8924 18.2449 20.2085 17.4492 20.2085ZM16.4492 15.2085V17.2085C16.4492 17.4737 16.5546 17.7281 16.7421 17.9156C16.9296 18.1031 17.184 18.2085 17.4492 18.2085C17.7144 18.2085 17.9688 18.1031 18.1563 17.9156C18.3439 17.7281 18.4492 17.4737 18.4492 17.2085V15.2085H16.4492ZM14.4492 18.2085V2.2085H2.44922V17.2085C2.44922 17.4737 2.55458 17.7281 2.74211 17.9156C2.92965 18.1031 3.184 18.2085 3.44922 18.2085H14.4492ZM4.44922 5.2085H12.4492V7.2085H4.44922V5.2085ZM4.44922 9.2085H12.4492V11.2085H4.44922V9.2085ZM4.44922 13.2085H9.44922V15.2085H4.44922V13.2085Z" fill="#8E8E8E"/>
</svg>
