<svg width="87" height="87" viewBox="0 0 87 87" fill="none" xmlns="http://www.w3.org/2000/svg">
<path d="M16.1061 45.7449C16.1061 30.6458 28.3471 18.4048 43.4469 18.4048C58.5461 18.4048 70.7871 30.6458 70.7871 45.7449V59.9334H16.1061V45.7449Z" fill="#FDC202"/>
<path d="M46.554 18.5787C32.9171 20.1213 22.3202 31.6965 22.3202 45.7449V59.9341H16.1061V45.7449C16.1061 30.6458 28.3471 18.4048 43.4469 18.4048C44.4976 18.4048 45.5344 18.4632 46.554 18.5787Z" fill="#F0A70A"/>
<path d="M43.4469 0C42.7115 0 42.1154 0.596054 42.1154 1.3315V7.48586C42.1154 8.2213 42.7115 8.81802 43.4469 8.81802C44.1824 8.81802 44.7784 8.2213 44.7784 7.48586V1.3315C44.7784 0.596054 44.1824 0 43.4469 0V0Z" fill="#F0A70A"/>
<path d="M27.6601 5.20782C27.4086 4.51684 26.6439 4.16041 25.9536 4.41197C25.2626 4.66354 24.9062 5.42752 25.1578 6.11849L27.2625 11.9025C27.5141 12.5934 28.2787 12.9492 28.9691 12.6983C29.66 12.4468 30.0165 11.6821 29.7649 10.9911L27.6601 5.20782Z" fill="#F0A70A"/>
<path d="M13.1703 14.5847C12.697 14.0219 11.8574 13.9482 11.2945 14.4208C10.731 14.8934 10.6573 15.7337 11.1299 16.2966L15.0859 21.0112C15.3494 21.3252 15.7264 21.4872 16.1068 21.4872C17.2272 21.4872 17.8558 20.1689 17.1263 19.2994L13.1703 14.5847Z" fill="#F0A70A"/>
<path d="M8.96206 31.0234L3.63209 27.9462C2.99488 27.5785 2.18045 27.7968 1.81339 28.4334C1.44567 29.0706 1.66338 29.885 2.30059 30.2527L7.63056 33.3299C8.26843 33.6976 9.0822 33.4786 9.44925 32.8421C9.81698 32.2055 9.5986 31.3911 8.96206 31.0234Z" fill="#F0A70A"/>
<path d="M60.9402 4.41189C60.2486 4.16033 59.4846 4.51743 59.2337 5.2084L57.1283 10.9917C56.8767 11.6827 57.2338 12.4467 57.9241 12.6982C58.6151 12.9498 59.3797 12.594 59.6313 11.9024L61.7361 6.11907C61.9876 5.42744 61.6312 4.66345 60.9402 4.41189Z" fill="#F0A70A"/>
<path d="M75.5993 14.4208C75.0358 13.9482 74.1961 14.0219 73.7235 14.5847L69.7675 19.2994C69.038 20.1689 69.666 21.4872 70.7864 21.4872C71.1667 21.4872 71.5437 21.3252 71.8072 21.0112L75.7632 16.2966C76.2358 15.7337 76.1628 14.8934 75.5993 14.4208Z" fill="#F0A70A"/>
<path d="M85.0804 28.4334C84.7127 27.7968 83.8983 27.5785 83.2617 27.9462L77.9318 31.0234C77.2945 31.3911 77.0768 32.2055 77.4446 32.8421C77.8123 33.4799 78.6267 33.697 79.2632 33.3299L84.5932 30.2527C85.2298 29.885 85.4481 29.0706 85.0804 28.4334Z" fill="#F0A70A"/>
<path d="M76.2 38.1642C71.8869 38.1303 68.1506 40.6055 66.3578 44.2163C66.2516 44.4294 65.9675 44.4632 65.8096 44.2853C64.5477 42.8675 62.7105 41.9735 60.6634 41.9735C56.8594 41.9735 53.7756 45.0573 53.7756 48.8613C53.7756 49.2463 53.8082 49.6239 53.8699 49.991C53.9031 50.1941 53.7491 50.378 53.5433 50.378H43.5352C40.9306 50.378 38.7296 52.4203 38.6579 55.0236C38.5842 57.7244 40.7514 59.9374 43.4356 59.9374H76.1124C82.065 59.9374 86.9018 55.161 86.998 49.2317C87.0956 43.2193 82.2123 38.2113 76.2 38.1642Z" fill="#A0CAFE"/>
<path d="M87 49.0517C87 55.0627 82.1247 59.938 76.1117 59.938H43.4363C40.7958 59.938 38.6566 57.7967 38.6566 55.159C38.6566 54.3917 38.8378 53.6675 39.159 53.025C39.3774 53.0568 39.6031 53.0728 39.8301 53.0728H72.5062C78.5192 53.0728 83.3945 48.1995 83.3945 42.1858C83.3945 41.7477 83.3679 41.3143 83.3161 40.8882C85.5742 42.8821 87 45.8007 87 49.0517Z" fill="#81B8FD"/>
<path d="M9.72272 45.0127C13.929 44.8162 17.6062 47.1666 19.3499 50.652C19.4534 50.8604 19.7342 50.9035 19.8895 50.7303C21.0723 49.4081 22.7908 48.5751 24.7044 48.5751C28.2728 48.5751 31.1647 51.4677 31.1647 55.0361C31.1647 55.3899 31.1355 55.737 31.0804 56.0755C31.0473 56.2766 31.2026 56.4592 31.407 56.4592H59.2822C61.7958 56.4592 63.9139 58.5162 63.8661 61.0291C63.8203 63.4651 61.8303 65.4259 59.3837 65.4259H10.2126C4.41266 65.4259 -0.258199 60.5904 0.0119504 54.7301C0.252894 49.5017 4.4943 45.2569 9.72272 45.0127Z" fill="#C0DBFF"/>
<path d="M63.8667 60.9429C63.8667 63.4194 61.8589 65.4259 59.3844 65.4259H10.2119C4.57329 65.4259 0 60.854 0 55.214C0 49.9425 3.99449 45.6055 9.12003 45.0605C8.40118 46.4591 7.99429 48.0448 7.99429 49.7261C7.99429 55.3647 12.5663 59.938 18.2062 59.938H63.7519C63.8282 60.2613 63.8667 60.5965 63.8667 60.9429Z" fill="#A0CAFE"/>
<path d="M59.2364 56.46C53.6608 56.46 48.3315 59.1143 46.2891 64.1907C46.163 64.504 45.7608 64.5996 45.5066 64.3773C39.7876 59.3778 30.5806 64.2618 31.8086 71.956C31.8577 72.262 31.6274 72.5401 31.3181 72.5401H25.0389C21.7918 72.5401 19.0724 75.1985 19.1341 78.4449C19.1946 81.5911 21.764 84.1234 24.9248 84.1234H58.7817C76.9574 84.1234 78.1282 56.46 59.2364 56.46Z" fill="#E6F1FF"/>
<path d="M70.1379 61.3226C68.4102 60.5826 66.3824 60.1597 64.05 60.1597C58.4751 60.1597 53.1457 62.8141 51.104 67.8919C50.9779 68.2038 50.575 68.3001 50.3208 68.0764C44.6025 63.077 35.3936 67.9609 36.6222 75.6572C36.672 75.9625 36.441 76.2413 36.1323 76.2413H29.8525C26.6054 76.2413 23.886 78.8969 23.9477 82.1441C23.9603 82.8297 24.0938 83.4862 24.3261 84.0935C21.4467 83.7975 19.1919 81.3913 19.1348 78.4443C19.0731 75.1972 21.7912 72.5395 25.0396 72.5395H31.3174C31.6281 72.5395 31.8571 72.2627 31.8093 71.9554C30.5807 64.2611 39.7876 59.3772 45.5059 64.3766C45.7601 64.6003 46.163 64.504 46.2891 64.1921C48.3328 59.1143 53.6602 56.46 59.237 56.46C64.2809 56.46 67.8951 58.4326 70.1379 61.3226Z" fill="#D9E9FF"/>
</svg>
