<svg width="20" height="23" viewBox="0 0 20 23" fill="none" xmlns="http://www.w3.org/2000/svg">
<path d="M16.613 2.48132H15.7759V1.47325C15.7759 1.21185 15.5617 1 15.2975 1C15.0335 1 14.8192 1.21185 14.8192 1.47325V2.48594H5.16156V1.47325C5.16156 1.21185 4.94743 1 4.68322 1C4.41902 1 4.20488 1.21185 4.20488 1.47325V2.48594H3.3917C2.07103 2.48649 1.00056 3.54558 1 4.8522V19.4805C1.00056 20.7871 2.07103 21.8462 3.3917 21.8468H16.6083C17.929 21.8462 18.9994 20.7871 19 19.4805V4.84758C19 3.54262 17.9321 2.4839 16.613 2.48132ZM18.048 19.4757C18.0457 20.259 17.4047 20.8932 16.613 20.8954H3.3917C2.6002 20.8932 1.95892 20.259 1.95668 19.4757V4.84758C1.95892 4.06431 2.6002 3.43004 3.3917 3.42782H4.20488V4.16136C4.20488 4.42276 4.41902 4.63461 4.68322 4.63461C4.94743 4.63461 5.16156 4.42276 5.16156 4.16136V3.42782H14.8192V4.16136C14.8192 4.42276 15.0335 4.63461 15.2975 4.63461C15.5617 4.63461 15.7759 4.42276 15.7759 4.16136V3.42782H16.613C17.4047 3.43004 18.0457 4.06431 18.048 4.84758V19.4757Z" fill="#8E8E8E" stroke="#8E8E8E" stroke-width="0.5"/>
<path d="M7.08384 11.0329L5.31884 12.6987L4.50566 11.8942C4.31937 11.7099 4.01742 11.7099 3.83112 11.8942C3.64483 12.0785 3.64483 12.3772 3.83112 12.5615L4.97447 13.6926C5.06416 13.782 5.18673 13.8316 5.31398 13.8299C5.43749 13.831 5.55633 13.7833 5.64415 13.6974L7.74399 11.7097C7.86824 11.5934 7.92 11.4202 7.87927 11.2558C7.83854 11.0915 7.71166 10.9614 7.54723 10.9153C7.38262 10.8691 7.20567 10.914 7.08384 11.0329Z" fill="#8E8E8E" stroke="#8E8E8E" stroke-width="0.5"/>
<path d="M15.8386 11.894H10.3377C10.0735 11.894 9.85938 12.1059 9.85938 12.3673C9.85938 12.6287 10.0735 12.8406 10.3377 12.8406H15.8386C16.1029 12.8406 16.317 12.6287 16.317 12.3673C16.317 12.1059 16.1029 11.894 15.8386 11.894Z" fill="#8E8E8E" stroke="#8E8E8E" stroke-width="0.5"/>
<path d="M7.08384 6.30048L5.31884 7.96629L4.50566 7.16176C4.31937 6.97745 4.01742 6.97745 3.83112 7.16176C3.64483 7.34607 3.64483 7.64481 3.83112 7.82912L4.97447 8.96012C5.06416 9.0496 5.18673 9.09914 5.31398 9.09748C5.43749 9.09859 5.55633 9.05089 5.64415 8.96493L7.74399 6.97727C7.86824 6.86099 7.92 6.68777 7.87927 6.52343C7.83854 6.35908 7.71166 6.22894 7.54723 6.18291C7.38262 6.13669 7.20567 6.18161 7.08384 6.30048Z" fill="#8E8E8E" stroke="#8E8E8E" stroke-width="0.5"/>
<path d="M15.8386 7.16211H10.3377C10.0735 7.16211 9.85938 7.37396 9.85938 7.63536C9.85938 7.89676 10.0735 8.10862 10.3377 8.10862H15.8386C16.1029 8.10862 16.317 7.89676 16.317 7.63536C16.317 7.37396 16.1029 7.16211 15.8386 7.16211Z" fill="#8E8E8E" stroke="#8E8E8E" stroke-width="0.5"/>
<path d="M7.08384 15.7653L5.31884 17.4311L4.50566 16.6266C4.31937 16.4423 4.01742 16.4423 3.83112 16.6266C3.64483 16.8109 3.64483 17.1097 3.83112 17.294L4.97447 18.425C5.06416 18.5144 5.18673 18.564 5.31398 18.5623C5.43749 18.5634 5.55633 18.5157 5.64415 18.4298L7.74399 16.4421C7.86824 16.3258 7.92 16.1526 7.87927 15.9883C7.83854 15.8239 7.71166 15.6938 7.54723 15.6478C7.38262 15.6015 7.20567 15.6465 7.08384 15.7653Z" fill="#8E8E8E" stroke="#8E8E8E" stroke-width="0.5"/>
<path d="M15.8386 16.627H10.3377C10.0735 16.627 9.85938 16.8388 9.85938 17.1002C9.85938 17.3616 10.0735 17.5735 10.3377 17.5735H15.8386C16.1029 17.5735 16.317 17.3616 16.317 17.1002C16.317 16.8388 16.1029 16.627 15.8386 16.627Z" fill="#8E8E8E" stroke="#8E8E8E" stroke-width="0.5"/>
</svg>
