<svg width="364" height="175" viewBox="0 0 364 175" fill="none" xmlns="http://www.w3.org/2000/svg">
<rect width="364" height="175" fill="#6152BE" fill-opacity="0.2"/>
<g clip-path="url(#clip0_125_896)">
<path d="M59.1072 174.925C59.1072 174.925 25.8767 139.202 53.4866 100.526C77.9857 66.2107 106.54 68.5629 127.499 82.4824C136.423 88.4111 162.156 83.2127 184.049 48.2958C213.911 0.683771 317.432 29.5646 298.564 102.814C289.425 138.268 326.367 139.557 307.542 174.989L59.1072 174.925Z" fill="#EBF3FA"/>
<path d="M122.908 105.875C122.908 105.875 106.475 82.4502 100.05 85.479C93.6249 88.5186 122.908 105.875 122.908 105.875Z" fill="#A8D29F"/>
<path d="M121.868 99.581C121.868 99.581 119.358 81.9667 115.399 82.6541C111.441 83.3415 121.868 99.581 121.868 99.581Z" fill="#A8D29F"/>
<path d="M107.966 154.486C107.966 154.486 109.543 146.645 103.407 145.657C103.407 145.657 99.2456 145.507 96.8 147.086C96.8 147.086 103.761 151.113 102.935 152.359C102.11 153.605 95.5021 147.322 95.5021 147.322C95.5021 147.322 88.0365 150.598 86.3739 152.961C86.3739 152.961 95.191 154.529 94.0754 155.538C92.9706 156.548 83.7137 155.334 83.7137 155.334C83.7137 155.334 77.7498 160.146 80.3456 163.969C82.9414 167.793 85.9019 167.772 86.8458 167.106C87.779 166.44 92.3699 160.951 92.9599 161.693C93.5391 162.444 91.5226 167.084 89.1306 168.577C89.1306 168.577 96.6391 171.112 98.8916 167.9C101.155 164.689 100.104 162.197 101.541 160.243C102.978 158.288 104.62 157.375 104.319 158.707C104.03 160.049 101.026 162.863 101.015 165.43C101.005 167.997 100.747 169.866 103.676 167.589C106.604 165.323 110.487 160.081 109.221 157.268C107.966 154.486 107.966 154.486 107.966 154.486Z" fill="#82B378"/>
<path d="M83.6602 162.262C83.6602 162.262 101.166 151.564 107.977 154.475C107.977 154.475 110.315 156.602 114.338 157.493L115.4 158.406C115.4 158.406 110.476 156.87 109.253 157.289C109.232 157.289 107.43 149.975 83.6602 162.262Z" fill="#82B378"/>
<path d="M114.327 157.493C114.327 157.493 119.755 158.191 122.855 163.121L122.19 163.572C122.19 163.572 118.028 159.007 114.67 158.191C111.302 157.375 114.327 157.493 114.327 157.493Z" fill="#82B378"/>
<path d="M113.329 131.609C113.329 131.609 126.04 124.477 120.108 114.811C120.108 114.811 115.367 108.871 110.283 107.346C110.283 107.346 112.997 121.771 110.283 122.114C107.569 122.458 108.417 105.821 108.417 105.821C108.417 105.821 95.03 99.377 89.774 99.8818C89.774 99.8818 98.0763 113.962 95.3625 113.629C92.6487 113.286 83.3275 99.0333 83.3275 99.0333C83.3275 99.0333 69.5976 96.4878 67.3987 104.629C65.1998 112.77 68.7502 116.841 70.7883 117.356C72.8263 117.861 85.8696 117.7 85.5371 119.397C85.1939 121.094 76.3875 123.811 71.4748 122.286C71.4748 122.286 76.9023 135.69 84.014 135.014C91.1363 134.337 93.3352 129.923 97.7438 129.579C102.152 129.235 105.37 130.427 103.171 131.62C100.972 132.812 93.5068 132.006 89.9564 135.035C86.3952 138.064 83.5205 139.933 90.128 141.286C96.7355 142.639 108.599 141.791 110.969 136.7C113.329 131.609 113.329 131.609 113.329 131.609Z" fill="#A8D29F"/>
<path d="M73.6736 107.175C73.6736 107.175 109.264 118.71 113.329 131.609C113.329 131.609 113.158 137.377 116.719 143.993V146.538C116.719 146.538 112.986 137.881 110.959 136.7C110.959 136.7 118.918 125.498 73.6736 107.175Z" fill="#82B378"/>
<path d="M116.719 143.993C116.719 143.993 122.211 152.338 119.079 162.498L117.663 162.122C117.663 162.122 119.036 150.931 116.161 145.303C113.286 139.675 116.719 143.993 116.719 143.993Z" fill="#82B378"/>
<path d="M252.666 100.161C252.666 100.161 244.106 94.6942 248.622 88.207C248.622 88.207 252.162 84.2653 255.755 83.4061C255.755 83.4061 253.299 93.3302 255.165 93.6739C257.042 94.0176 257.107 82.418 257.107 82.418C257.107 82.418 266.675 78.4655 270.311 79.0348C270.311 79.0348 263.972 88.497 265.87 88.3681C267.769 88.2393 274.816 78.7018 274.816 78.7018C274.816 78.7018 284.459 77.4774 285.671 83.2343C286.883 88.9911 284.245 91.6762 282.807 91.9447C281.37 92.2132 272.306 91.5795 272.478 92.7717C272.649 93.9639 278.667 96.2086 282.142 95.3387C282.142 95.3387 277.841 104.446 272.918 103.684C267.994 102.932 266.643 99.7744 263.586 99.3555C260.539 98.9474 258.244 99.6455 259.735 100.558C261.215 101.471 266.439 101.214 268.788 103.469C271.137 105.714 273.068 107.132 268.423 107.808C263.768 108.485 255.562 107.422 254.114 103.791C252.666 100.161 252.666 100.161 252.666 100.161Z" fill="#C7DCFB"/>
<path d="M281.209 84.7485C281.209 84.7485 256.002 91.3539 252.655 100.161C252.655 100.161 252.548 104.178 249.802 108.635L249.705 110.407C249.705 110.407 252.644 104.543 254.103 103.791C254.114 103.791 249.019 95.6822 281.209 84.7485Z" fill="#C7DCFB"/>
<path d="M249.813 108.635C249.813 108.635 245.662 114.22 247.431 121.405L248.429 121.201C248.429 121.201 247.925 113.361 250.145 109.57C252.365 105.767 249.813 108.635 249.813 108.635Z" fill="#C7DCFB"/>
<path d="M229.626 76.4463C229.626 76.4463 216.486 73.5571 219.135 63.4182C219.135 63.4182 221.742 56.8988 225.828 54.1814C225.828 54.1814 227.287 67.6606 229.776 67.231C232.264 66.8014 227.062 52.3341 227.062 52.3341C227.062 52.3341 237.177 43.0437 241.95 42.077C241.95 42.077 238.378 56.7591 240.685 55.7281C242.991 54.697 247.421 39.596 247.421 39.596C247.421 39.596 258.877 33.6673 263.006 40.2727C267.136 46.878 265.077 51.4319 263.414 52.4308C261.751 53.4296 250.167 56.7806 250.928 58.1876C251.679 59.5946 260.196 59.6376 264.133 56.9632C264.133 56.9632 262.931 70.2705 256.452 71.5809C249.974 72.8912 246.852 69.5832 242.862 70.4639C238.872 71.3446 236.351 73.2564 238.614 73.7182C240.878 74.18 247.26 71.4735 251.218 73.1919C255.176 74.9104 258.222 75.7911 252.741 78.7662C247.26 81.7413 236.544 84.1686 233.09 80.3128C229.626 76.4463 229.626 76.4463 229.626 76.4463Z" fill="#DFEBFD"/>
<path d="M258.147 44.2036C258.147 44.2036 229.776 63.9552 229.625 76.4462C229.625 76.4462 231.32 81.5049 229.947 88.3036L230.634 90.5591C230.634 90.5591 231.61 81.9131 233.09 80.3128C233.09 80.302 223.05 72.5367 258.147 44.2036Z" fill="#DFEBFD"/>
<path d="M229.947 88.3035C229.947 88.3035 227.33 97.1536 232.811 105.295L233.959 104.575C233.959 104.575 229.754 95.0485 230.784 89.3024C231.824 83.567 229.947 88.3035 229.947 88.3035Z" fill="#DFEBFD"/>
<path d="M126.244 61.9783L107.226 160.424C106.84 162.422 108.374 164.291 110.412 164.291H120.441L126.244 61.9783Z" fill="#6152BE"/>
<path d="M126.469 61.581L113.866 158.244C113.447 161.445 115.936 164.291 119.165 164.291H137.657L127.231 61.2373L126.469 61.581Z" fill="#78ACEA"/>
<path d="M126.469 61.5811L120.827 157.621C120.613 161.241 123.487 164.28 127.102 164.28H154.68L126.469 61.5811Z" fill="#699DEE"/>
<path d="M126.266 62.365L129.012 157.621C128.797 161.241 131.672 164.28 135.287 164.28H162.864L126.266 62.365Z" fill="#5288D8"/>
<path d="M258.308 164.291H149.563C146.85 164.291 144.522 162.347 144.029 159.673L127.488 69.067C126.738 64.9535 129.891 61.1621 134.074 61.1621H241.543C244.256 61.1621 246.584 63.1061 247.077 65.7805L263.854 157.654C264.465 161.101 261.816 164.291 258.308 164.291Z" fill="#D7E9FF"/>
<path d="M129.634 80.8277H249.877L246.799 63.7183C246.531 62.2361 245.243 61.1514 243.731 61.1514H127.263C126.63 61.1514 126.148 61.7313 126.266 62.3543L129.634 80.8277Z" fill="#7263CF"/>
<path d="M132.455 56.0066C129.58 56.0066 127.241 58.348 127.241 61.2264H128.239C128.239 58.8958 130.127 57.0055 132.455 57.0055C134.782 57.0055 136.67 58.8958 136.67 61.2264C136.67 61.6883 136.595 62.1394 136.455 62.5582C136.037 63.7934 135.072 64.7815 133.838 65.2111C133.474 65.34 133.098 65.4152 132.701 65.4367V66.4355C133.162 66.414 133.613 66.3389 134.031 66.1992C135.726 65.6622 137.045 64.2874 137.496 62.5582C137.603 62.1286 137.668 61.6883 137.668 61.2264C137.668 58.348 135.329 56.0066 132.455 56.0066Z" fill="#78ACEA"/>
<path d="M134.064 65.9092C134.064 66.0166 134.053 66.1133 134.021 66.2099C133.892 66.6932 133.452 67.0369 132.937 67.0369C132.315 67.0369 131.811 66.5321 131.811 65.9092C131.811 65.2863 132.315 64.7815 132.937 64.7815C133.302 64.7815 133.624 64.9533 133.828 65.2218C133.978 65.4044 134.064 65.6407 134.064 65.9092Z" fill="#78ACEA"/>
<path d="M151.14 56.0066C148.265 56.0066 145.927 58.348 145.927 61.2264H146.925C146.925 58.8958 148.812 57.0055 151.14 57.0055C153.468 57.0055 155.356 58.8958 155.356 61.2264C155.356 61.6883 155.28 62.1394 155.141 62.5582C154.723 63.7934 153.757 64.7815 152.524 65.2111C152.159 65.34 151.784 65.4152 151.387 65.4367V66.4355C151.848 66.414 152.299 66.3389 152.717 66.1992C154.412 65.6622 155.731 64.2874 156.181 62.5582C156.289 62.1286 156.353 61.6883 156.353 61.2264C156.353 58.348 154.015 56.0066 151.14 56.0066Z" fill="#78ACEA"/>
<path d="M152.749 65.9092C152.749 66.0166 152.738 66.1133 152.706 66.2099C152.578 66.6932 152.138 67.0369 151.623 67.0369C151.001 67.0369 150.497 66.5321 150.497 65.9092C150.497 65.2863 151.001 64.7815 151.623 64.7815C151.988 64.7815 152.309 64.9533 152.513 65.2218C152.663 65.4044 152.749 65.6407 152.749 65.9092Z" fill="#78ACEA"/>
<path d="M169.836 56.0066C166.961 56.0066 164.623 58.348 164.623 61.2264H165.621C165.621 58.8958 167.508 57.0055 169.836 57.0055C172.164 57.0055 174.052 58.8958 174.052 61.2264C174.052 61.6883 173.976 62.1394 173.837 62.5582C173.419 63.7934 172.453 64.7815 171.22 65.2111C170.855 65.34 170.48 65.4152 170.083 65.4367V66.4355C170.544 66.414 170.995 66.3389 171.413 66.1992C173.108 65.6622 174.427 64.2874 174.878 62.5582C174.985 62.1286 175.049 61.6883 175.049 61.2264C175.049 58.348 172.711 56.0066 169.836 56.0066Z" fill="#78ACEA"/>
<path d="M171.445 65.9092C171.445 66.0166 171.434 66.1133 171.402 66.2099C171.273 66.6932 170.834 67.0369 170.319 67.0369C169.697 67.0369 169.192 66.5321 169.192 65.9092C169.192 65.2863 169.697 64.7815 170.319 64.7815C170.683 64.7815 171.005 64.9533 171.209 65.2218C171.359 65.4044 171.445 65.6407 171.445 65.9092Z" fill="#78ACEA"/>
<path d="M188.522 56.0066C185.647 56.0066 183.309 58.348 183.309 61.2264H184.306C184.306 58.8958 186.194 57.0055 188.522 57.0055C190.849 57.0055 192.737 58.8958 192.737 61.2264C192.737 61.6883 192.662 62.1394 192.523 62.5582C192.104 63.7934 191.139 64.7815 189.905 65.2111C189.541 65.34 189.165 65.4152 188.768 65.4367V66.4355C189.23 66.414 189.68 66.3389 190.098 66.1992C191.793 65.6622 193.113 64.2874 193.563 62.5582C193.67 62.1286 193.735 61.6883 193.735 61.2264C193.735 58.348 191.396 56.0066 188.522 56.0066Z" fill="#78ACEA"/>
<path d="M190.131 65.9092C190.131 66.0166 190.12 66.1133 190.088 66.2099C189.959 66.6932 189.519 67.0369 189.004 67.0369C188.382 67.0369 187.878 66.5321 187.878 65.9092C187.878 65.2863 188.382 64.7815 189.004 64.7815C189.369 64.7815 189.691 64.9533 189.895 65.2218C190.045 65.4044 190.131 65.6407 190.131 65.9092Z" fill="#78ACEA"/>
<path d="M207.218 56.0066C204.343 56.0066 202.005 58.348 202.005 61.2264H203.002C203.002 58.8958 204.89 57.0055 207.218 57.0055C209.545 57.0055 211.433 58.8958 211.433 61.2264C211.433 61.6883 211.358 62.1394 211.219 62.5582C210.8 63.7934 209.835 64.7815 208.602 65.2111C208.248 65.34 207.861 65.4152 207.464 65.4367V66.4355C207.926 66.414 208.376 66.3389 208.795 66.1992C210.489 65.6622 211.809 64.2874 212.259 62.5582C212.377 62.1286 212.431 61.6883 212.431 61.2264C212.431 58.348 210.092 56.0066 207.218 56.0066Z" fill="#78ACEA"/>
<path d="M208.827 65.9092C208.827 66.0166 208.816 66.1133 208.784 66.2099C208.655 66.6932 208.215 67.0369 207.701 67.0369C207.078 67.0369 206.574 66.5321 206.574 65.9092C206.574 65.2863 207.078 64.7815 207.701 64.7815C208.065 64.7815 208.387 64.9533 208.591 65.2218C208.741 65.4044 208.827 65.6407 208.827 65.9092Z" fill="#78ACEA"/>
<path d="M225.903 56.0066C223.029 56.0066 220.69 58.348 220.69 61.2264H221.688C221.688 58.8958 223.576 57.0055 225.903 57.0055C228.231 57.0055 230.119 58.8958 230.119 61.2264C230.119 61.6883 230.044 62.1394 229.904 62.5582C229.486 63.7934 228.52 64.7815 227.287 65.2111C226.933 65.34 226.547 65.4152 226.15 65.4367V66.4355C226.611 66.414 227.062 66.3389 227.48 66.1992C229.175 65.6622 230.494 64.2874 230.945 62.5582C231.052 62.1286 231.116 61.6883 231.116 61.2264C231.116 58.348 228.778 56.0066 225.903 56.0066Z" fill="#78ACEA"/>
<path d="M227.512 65.9092C227.512 66.0166 227.501 66.1133 227.469 66.2099C227.341 66.6932 226.901 67.0369 226.386 67.0369C225.764 67.0369 225.26 66.5321 225.26 65.9092C225.26 65.2863 225.764 64.7815 226.386 64.7815C226.751 64.7815 227.072 64.9533 227.276 65.2218C227.426 65.4044 227.512 65.6407 227.512 65.9092Z" fill="#78ACEA"/>
<path d="M244.6 56.0066C241.725 56.0066 239.386 58.348 239.386 61.2264H240.384C240.384 58.8958 242.272 57.0055 244.6 57.0055C246.927 57.0055 248.815 58.8958 248.815 61.2264C248.815 61.6883 248.74 62.1394 248.6 62.5582C248.182 63.7934 247.217 64.7815 245.983 65.2111C245.619 65.34 245.243 65.4152 244.846 65.4367V66.4355C245.307 66.414 245.758 66.3389 246.176 66.1992C247.871 65.6622 249.19 64.2874 249.641 62.5582C249.748 62.1286 249.813 61.6883 249.813 61.2264C249.813 58.348 247.474 56.0066 244.6 56.0066Z" fill="#78ACEA"/>
<path d="M246.208 65.9092C246.208 66.0166 246.198 66.1133 246.166 66.2099C246.037 66.6932 245.597 67.0369 245.082 67.0369C244.46 67.0369 243.956 66.5321 243.956 65.9092C243.956 65.2863 244.46 64.7815 245.082 64.7815C245.447 64.7815 245.769 64.9533 245.972 65.2218C246.123 65.4044 246.208 65.6407 246.208 65.9092Z" fill="#78ACEA"/>
<path d="M199.173 112.963H193.091C192.383 112.963 191.708 112.383 191.568 111.685L190.399 105.595C190.26 104.886 190.731 104.317 191.429 104.317H197.511C198.219 104.317 198.894 104.897 199.034 105.595L200.203 111.685C200.342 112.393 199.881 112.963 199.173 112.963Z" fill="#AFCDFB"/>
<path d="M214.512 112.963H208.43C207.722 112.963 207.046 112.383 206.907 111.685L205.738 105.595C205.598 104.886 206.07 104.317 206.767 104.317H212.849C213.557 104.317 214.233 104.897 214.372 105.595L215.542 111.685C215.681 112.393 215.22 112.963 214.512 112.963Z" fill="#AFCDFB"/>
<path d="M229.851 112.963H223.769C223.061 112.963 222.385 112.383 222.246 111.685L221.076 105.595C220.937 104.886 221.409 104.317 222.106 104.317H228.188C228.896 104.317 229.572 104.897 229.711 105.595L230.881 111.685C231.02 112.393 230.559 112.963 229.851 112.963Z" fill="#78ACEA"/>
<path d="M153.157 112.963H147.075C146.367 112.963 145.691 112.383 145.552 111.685L144.382 105.595C144.243 104.886 144.715 104.317 145.412 104.317H151.494C152.202 104.317 152.878 104.897 153.017 105.595L154.186 111.685C154.326 112.393 153.864 112.963 153.157 112.963Z" fill="#AFCDFB"/>
<path d="M146.496 94.6935H143.878C143.578 94.6935 143.278 94.4464 143.224 94.1457L142.72 91.525C142.666 91.2243 142.859 90.9773 143.16 90.9773H145.777C146.077 90.9773 146.378 91.2243 146.431 91.525L146.935 94.1457C147 94.4464 146.796 94.6935 146.496 94.6935Z" fill="#F99746"/>
<path d="M168.496 112.963H162.414C161.706 112.963 161.03 112.383 160.89 111.685L159.721 105.595C159.582 104.886 160.054 104.317 160.751 104.317H166.833C167.541 104.317 168.217 104.897 168.356 105.595L169.525 111.685C169.665 112.393 169.204 112.963 168.496 112.963Z" fill="#AFCDFB"/>
<path d="M183.834 112.963H177.752C177.044 112.963 176.369 112.383 176.229 111.685L175.06 105.595C174.921 104.886 175.393 104.317 176.09 104.317H182.172C182.88 104.317 183.555 104.897 183.695 105.595L184.864 111.685C185.003 112.393 184.542 112.963 183.834 112.963Z" fill="#AFCDFB"/>
<path d="M245.19 112.963H239.108C238.4 112.963 237.724 112.383 237.585 111.685L236.415 105.595C236.276 104.886 236.748 104.317 237.445 104.317H243.527C244.235 104.317 244.911 104.897 245.05 105.595L246.219 111.685C246.359 112.393 245.897 112.963 245.19 112.963Z" fill="#78ACEA"/>
<path d="M196.631 99.7522H190.549C189.841 99.7522 189.165 99.1722 189.026 98.4741L187.857 92.3843C187.717 91.6754 188.189 91.1062 188.886 91.1062H194.968C195.676 91.1062 196.352 91.6862 196.492 92.3843L197.661 98.4741C197.8 99.1722 197.328 99.7522 196.631 99.7522Z" fill="#AFCDFB"/>
<path d="M211.97 99.7522H205.888C205.18 99.7522 204.504 99.1722 204.365 98.4741L203.196 92.3843C203.056 91.6754 203.528 91.1062 204.225 91.1062H210.307C211.015 91.1062 211.691 91.6862 211.83 92.3843L212.999 98.4741C213.139 99.1722 212.667 99.7522 211.97 99.7522Z" fill="#AFCDFB"/>
<path d="M227.308 99.7522H221.227C220.519 99.7522 219.843 99.1722 219.703 98.4741L218.534 92.3843C218.395 91.6754 218.867 91.1062 219.564 91.1062H225.646C226.354 91.1062 227.03 91.6862 227.169 92.3843L228.338 98.4741C228.478 99.1722 228.006 99.7522 227.308 99.7522Z" fill="#78ACEA"/>
<path d="M242.647 99.7522H236.565C235.857 99.7522 235.182 99.1722 235.042 98.4741L233.873 92.3843C233.734 91.6754 234.206 91.1062 234.903 91.1062H240.985C241.693 91.1062 242.368 91.6862 242.508 92.3843L243.677 98.4741C243.816 99.1722 243.345 99.7522 242.647 99.7522Z" fill="#78ACEA"/>
<path d="M201.876 126.979H195.794C195.086 126.979 194.41 126.399 194.271 125.701L193.102 119.611C192.962 118.902 193.434 118.333 194.132 118.333H200.213C200.921 118.333 201.597 118.913 201.737 119.611L202.906 125.701C203.045 126.399 202.573 126.979 201.876 126.979Z" fill="#AFCDFB"/>
<path d="M217.215 126.979H211.133C210.425 126.979 209.749 126.399 209.61 125.701L208.441 119.611C208.301 118.902 208.773 118.333 209.47 118.333H215.552C216.26 118.333 216.936 118.913 217.075 119.611L218.245 125.701C218.384 126.399 217.912 126.979 217.215 126.979Z" fill="#AFCDFB"/>
<path d="M232.554 126.979H226.472C225.764 126.979 225.088 126.399 224.949 125.701L223.78 119.611C223.64 118.902 224.112 118.333 224.809 118.333H230.891C231.599 118.333 232.275 118.913 232.414 119.611L233.584 125.701C233.723 126.399 233.251 126.979 232.554 126.979Z" fill="#78ACEA"/>
<path d="M155.86 126.979H149.778C149.07 126.979 148.394 126.399 148.255 125.701L147.085 119.611C146.946 118.902 147.418 118.333 148.115 118.333H154.197C154.905 118.333 155.581 118.913 155.72 119.611L156.889 125.701C157.029 126.399 156.557 126.979 155.86 126.979Z" fill="#AFCDFB"/>
<path d="M171.199 126.979H165.117C164.409 126.979 163.733 126.399 163.594 125.701L162.424 119.611C162.285 118.902 162.757 118.333 163.454 118.333H169.536C170.244 118.333 170.92 118.913 171.059 119.611L172.228 125.701C172.368 126.399 171.896 126.979 171.199 126.979Z" fill="#AFCDFB"/>
<path d="M186.537 126.979H180.456C179.748 126.979 179.072 126.399 178.932 125.701L177.763 119.611C177.624 118.902 178.096 118.333 178.793 118.333H184.875C185.583 118.333 186.259 118.913 186.398 119.611L187.567 125.701C187.707 126.399 187.235 126.979 186.537 126.979Z" fill="#AFCDFB"/>
<path d="M247.893 126.979H241.811C241.103 126.979 240.427 126.399 240.288 125.701L239.118 119.611C238.979 118.902 239.451 118.333 240.148 118.333H246.23C246.938 118.333 247.614 118.913 247.753 119.611L248.922 125.701C249.062 126.399 248.59 126.979 247.893 126.979Z" fill="#78ACEA"/>
<path d="M204.579 140.984H198.497C197.789 140.984 197.114 140.404 196.974 139.706L195.805 133.616C195.666 132.908 196.137 132.338 196.835 132.338H202.917C203.624 132.338 204.3 132.918 204.44 133.616L205.609 139.706C205.738 140.415 205.276 140.984 204.579 140.984Z" fill="#AFCDFB"/>
<path d="M219.918 140.984H213.836C213.128 140.984 212.452 140.404 212.313 139.706L211.144 133.616C211.004 132.908 211.476 132.338 212.173 132.338H218.255C218.963 132.338 219.639 132.918 219.778 133.616L220.948 139.706C221.076 140.415 220.615 140.984 219.918 140.984Z" fill="#AFCDFB"/>
<path d="M235.257 140.984H229.175C228.467 140.984 227.791 140.404 227.652 139.706L226.483 133.616C226.343 132.908 226.815 132.338 227.512 132.338H233.594C234.302 132.338 234.978 132.918 235.117 133.616L236.286 139.706C236.415 140.415 235.954 140.984 235.257 140.984Z" fill="#78ACEA"/>
<path d="M158.563 140.984H152.481C151.773 140.984 151.097 140.404 150.958 139.706L149.789 133.616C149.649 132.908 150.121 132.338 150.818 132.338H156.9C157.608 132.338 158.284 132.918 158.423 133.616L159.593 139.706C159.721 140.415 159.26 140.984 158.563 140.984Z" fill="#AFCDFB"/>
<path d="M173.902 140.984H167.82C167.112 140.984 166.436 140.404 166.297 139.706L165.127 133.616C164.988 132.908 165.46 132.338 166.157 132.338H172.239C172.947 132.338 173.623 132.918 173.762 133.616L174.931 139.706C175.06 140.415 174.599 140.984 173.902 140.984Z" fill="#F99746"/>
<path d="M189.24 140.984H183.158C182.451 140.984 181.775 140.404 181.635 139.706L180.466 133.616C180.327 132.908 180.799 132.338 181.496 132.338H187.578C188.286 132.338 188.962 132.918 189.101 133.616L190.27 139.706C190.399 140.415 189.938 140.984 189.24 140.984Z" fill="#AFCDFB"/>
<path d="M250.595 140.984H244.514C243.806 140.984 243.13 140.404 242.991 139.706L241.821 133.616C241.682 132.908 242.154 132.338 242.851 132.338H248.933C249.641 132.338 250.317 132.918 250.456 133.616L251.625 139.706C251.754 140.415 251.293 140.984 250.595 140.984Z" fill="#78ACEA"/>
<path d="M207.121 154.206H201.04C200.332 154.206 199.656 153.626 199.516 152.928L198.347 146.838C198.208 146.129 198.68 145.56 199.377 145.56H205.459C206.167 145.56 206.843 146.14 206.982 146.838L208.151 152.928C208.291 153.637 207.829 154.206 207.121 154.206Z" fill="#AFCDFB"/>
<path d="M222.46 154.206H216.378C215.67 154.206 214.995 153.626 214.855 152.928L213.686 146.838C213.547 146.129 214.019 145.56 214.716 145.56H220.798C221.506 145.56 222.181 146.14 222.321 146.838L223.49 152.928C223.629 153.637 223.168 154.206 222.46 154.206Z" fill="#AFCDFB"/>
<path d="M237.799 154.206H231.717C231.009 154.206 230.333 153.626 230.194 152.928L229.025 146.838C228.885 146.129 229.357 145.56 230.054 145.56H236.136C236.844 145.56 237.52 146.14 237.659 146.838L238.829 152.928C238.968 153.637 238.507 154.206 237.799 154.206Z" fill="#78ACEA"/>
<path d="M161.105 154.206H155.023C154.315 154.206 153.639 153.626 153.5 152.928L152.331 146.838C152.191 146.129 152.663 145.56 153.361 145.56H159.442C160.15 145.56 160.826 146.14 160.966 146.838L162.135 152.928C162.274 153.637 161.802 154.206 161.105 154.206Z" fill="#AFCDFB"/>
<path d="M176.444 154.206H170.362C169.654 154.206 168.978 153.626 168.839 152.928L167.669 146.838C167.53 146.129 168.002 145.56 168.699 145.56H174.781C175.489 145.56 176.165 146.14 176.304 146.838L177.473 152.928C177.613 153.637 177.141 154.206 176.444 154.206Z" fill="#AFCDFB"/>
<path d="M191.783 154.206H185.701C184.993 154.206 184.317 153.626 184.178 152.928L183.008 146.838C182.869 146.129 183.341 145.56 184.038 145.56H190.12C190.828 145.56 191.504 146.14 191.643 146.838L192.812 152.928C192.952 153.637 192.48 154.206 191.783 154.206Z" fill="#AFCDFB"/>
<path d="M164.923 92.2875H148.823C148.587 92.2875 148.394 92.0941 148.394 91.8578C148.394 91.6216 148.587 91.4282 148.823 91.4282H164.923C165.159 91.4282 165.353 91.6216 165.353 91.8578C165.353 92.0941 165.159 92.2875 164.923 92.2875Z" fill="#AFCDFB"/>
<path d="M165.406 94.2423H149.306C149.07 94.2423 148.877 94.049 148.877 93.8127C148.877 93.5764 149.07 93.3831 149.306 93.3831H165.406C165.642 93.3831 165.835 93.5764 165.835 93.8127C165.846 94.049 165.653 94.2423 165.406 94.2423Z" fill="#AFCDFB"/>
<path d="M235.589 89.8391L234.967 88.6576C234.967 88.6576 235.278 86.5418 232.64 85.2099C232.64 85.2099 231.674 84.8126 231.127 85.6073C230.623 86.3377 232.082 86.1981 232.007 87.4439C231.932 88.6898 232.522 89.4202 233.337 89.8176L234.013 90.6016L235.589 89.8391Z" fill="#FFB27D"/>
<path d="M260.56 87.0034C260.56 87.0034 258.286 98.1519 245.801 101.804C241.907 102.942 233.047 90.0859 233.047 90.0859C233.047 90.0859 233.358 88.9045 235.31 89.173C235.31 89.173 243.934 94.8869 245.018 95.5098C245.983 96.0576 252.312 88.4319 255.208 87.1968C258.093 85.9616 260.56 87.0034 260.56 87.0034Z" fill="#233862"/>
<path d="M224.047 86.7979L224.547 89.5015L238.143 86.9804L237.642 84.2769L224.047 86.7979Z" fill="#C65447"/>
<path d="M221.141 88.7435L224.552 89.5061L224.048 86.7996L221.141 88.7435Z" fill="#FFB27D"/>
<path d="M239.386 84.8877L239.547 85.747C239.644 86.2732 239.301 86.7781 238.775 86.8747L238.142 86.9929L237.638 84.2862L238.325 84.1573C238.818 84.0607 239.29 84.3936 239.386 84.8877Z" fill="#FFB27D"/>
<path d="M275.47 157.106C275.47 157.106 277.015 158.524 276.714 159.523C276.414 160.532 275.009 161.198 274.827 162.433C274.633 163.658 273.883 164.334 273.207 164.334C272.531 164.334 269.967 164.334 269.967 164.334C269.967 164.334 269.463 163.464 270.675 163.207C271.888 162.949 272.338 161.499 272.263 160.156C272.188 158.814 272.381 157.031 272.381 157.031L274.955 156.44L275.47 157.106Z" fill="#233862"/>
<path d="M256.463 160.769C256.463 160.769 256.742 163.991 256.066 164.324L247.367 164.302C247.367 164.302 247.367 163.293 248.761 163.078C250.156 162.852 252.612 162.036 253.031 160.21C253.438 158.384 256.463 160.769 256.463 160.769Z" fill="#233862"/>
<path d="M249.115 115.261C249.115 115.261 249.576 120.911 250.113 127.699C250.842 136.925 251.732 148.245 251.818 150.393C251.968 154.12 252.569 160.081 252.569 160.081C252.569 160.081 254.006 161.499 256.881 160.897C256.881 160.897 259.445 152.391 260.174 143.39C260.185 143.24 260.196 143.09 260.206 142.95C260.882 133.789 261.944 114.488 261.944 114.488L249.115 115.261Z" fill="#F99746"/>
<path d="M249.115 115.261C249.115 115.261 249.576 120.911 250.113 127.699L260.174 143.39C260.185 143.24 260.196 143.09 260.206 142.95C260.882 133.789 261.944 114.488 261.944 114.488L249.115 115.261Z" fill="#ED7D2B"/>
<path d="M251.218 115.927C251.218 115.927 259.488 136.377 264.937 145.99C270.375 155.602 272.081 158.287 272.081 158.287C272.081 158.287 275.202 157.063 275.481 156.215C275.481 156.215 273.4 137.655 269.753 133.133C267.694 130.577 265.28 122.909 265.162 120.224C265.044 117.538 264.422 112.233 264.422 112.233L251.218 115.927Z" fill="#F99746"/>
<path d="M262.105 84.4151C262.105 84.4151 256.506 87.1217 253.277 86.1121C253.277 86.1121 254.071 85.1132 255.466 84.3614C255.358 83.717 255.262 83.1477 255.219 82.6752C255.079 81.5689 255.079 80.946 255.079 80.946L257.235 79.249L259.284 77.6165C259.123 82.1918 262.105 84.4151 262.105 84.4151Z" fill="#FFB27D"/>
<path d="M248.761 115.723C248.858 115.809 248.976 115.852 249.094 115.852C250.306 115.831 253.846 116.497 256.838 116.196C259.37 115.949 261.601 115.219 264.003 114.166C264.325 114.016 265.055 113.629 265.044 113.285C265.033 112.899 264.99 112.34 264.947 111.631C264.851 110.235 264.701 108.248 264.658 105.896C264.626 104.156 264.647 102.201 264.765 100.139C264.776 99.9994 264.776 99.8598 264.787 99.7202C264.819 98.9683 264.84 98.2058 264.84 97.4539C264.851 95.0588 264.679 92.7711 264.336 90.7197C263.725 87.1646 262.588 84.3936 260.893 83.1585C260.668 82.9866 259.273 83.6633 257.986 84.2862C256.806 84.8662 255.626 84.9199 254.511 84.7051L253.395 85.6825C252.044 86.9176 250.553 88.6146 249.898 91.1923C249.351 93.3726 249.03 97.3143 248.858 101.406C248.772 103.264 248.708 105.123 248.686 106.905V106.97C248.676 107.153 248.676 107.335 248.676 107.518C248.611 112.061 248.676 115.67 248.761 115.723Z" fill="#2B478B"/>
<path d="M259.316 79.3669C259.316 79.3669 257.9 81.9446 255.208 82.675C255.069 81.5687 255.069 80.9458 255.069 80.9458L257.225 79.2488L259.316 79.3669Z" fill="#ED985F"/>
<path d="M254.093 80.8707C254.093 80.8707 259.434 81.7406 259.938 78.4541C260.443 75.1675 261.462 73.0624 258.083 72.3643C254.693 71.6662 253.835 72.8261 253.395 73.8787C252.956 74.942 252.709 80.5592 254.093 80.8707Z" fill="#FFB27D"/>
<path d="M261.869 71.9777C261.923 71.924 262.03 71.8811 262.277 71.8596C262.277 71.8596 262.073 71.7307 261.815 71.7307C261.762 71.387 261.58 70.7748 260.979 70.6244C260.979 70.6244 261.301 70.7963 261.344 71.1615C260.657 70.4526 259.177 69.937 255.079 70.2593C249.684 70.6889 251.464 74.1473 252.162 74.5554C252.859 74.9635 254.618 73.8358 255.916 73.9432C257.214 74.0506 257.461 75.9302 257.911 76.1879C258.351 76.4457 258.179 75.9946 258.78 75.7154C259.381 75.4361 259.434 76.435 259.263 77.0794C259.091 77.7238 259.906 78.5723 259.906 78.5723C259.906 78.5723 259.906 78.5723 260.732 77.6809C261.558 76.7894 262.341 72.9981 261.966 72.1925C261.944 72.1281 261.912 72.0529 261.869 71.9777Z" fill="#2C3A64"/>
<path d="M234.946 88.5931C234.946 88.5931 235.128 87.8628 234.624 87.5405C234.12 87.2183 233.659 86.3269 233.444 86.445C233.004 86.6921 233.68 87.4654 233.562 88.432C233.519 88.7757 234.313 89.6671 234.946 88.5931Z" fill="#FFB27D"/>
<path d="M264.669 105.896C264.636 104.156 264.658 102.201 264.776 100.139C264.787 99.9993 264.787 99.8597 264.797 99.7201C264.293 97.1961 263.521 94.9621 262.395 94.8977C262.395 94.8977 259.027 100.203 264.669 105.896Z" fill="#233862"/>
<path d="M269.12 115.036C269.12 115.036 268.841 117.764 268.53 118.29C268.219 118.806 266.911 120.46 266.353 120.782C265.795 121.104 266.696 118.602 266.578 118.118C266.46 117.635 266.117 119.01 265.87 119.042C265.623 119.074 265.688 117.839 265.677 117.388C265.666 116.937 266.878 115.831 267.297 114.864C267.737 113.908 269.12 115.036 269.12 115.036Z" fill="#FFB27D"/>
<path d="M260.904 83.137C260.904 83.137 264.283 84.7373 265.902 87.2076C268.412 91.0311 271.33 104.951 271.384 106.25C271.437 107.539 269.26 116.647 269.26 116.647C269.26 116.647 267.05 116.497 266.482 115.38C266.482 115.38 266.921 106.025 266.643 105.423C266.364 104.822 257.428 92.8785 258.426 90.3223C259.424 87.7768 260.904 83.137 260.904 83.137Z" fill="#2B478B"/>
<path d="M222.878 87.5728L223.061 89.173L221.141 88.7434L222.878 87.5728Z" fill="#C65447"/>
<path d="M147.654 77.7453H142.119C141.669 77.7453 141.293 77.3694 141.293 76.9183C141.293 76.4672 141.669 76.0913 142.119 76.0913H147.643C148.094 76.0913 148.469 76.4672 148.469 76.9183C148.469 77.3802 148.105 77.7453 147.654 77.7453Z" fill="white"/>
<path d="M162.811 77.7453H157.286C156.836 77.7453 156.46 77.3694 156.46 76.9183C156.46 76.4672 156.836 76.0913 157.286 76.0913H162.811C163.261 76.0913 163.636 76.4672 163.636 76.9183C163.636 77.3802 163.261 77.7453 162.811 77.7453Z" fill="white"/>
<path d="M177.978 77.7453H172.454C172.003 77.7453 171.628 77.3694 171.628 76.9183C171.628 76.4672 172.003 76.0913 172.454 76.0913H177.978C178.428 76.0913 178.804 76.4672 178.804 76.9183C178.804 77.3802 178.428 77.7453 177.978 77.7453Z" fill="white"/>
<path d="M193.145 77.7453H187.621C187.17 77.7453 186.795 77.3694 186.795 76.9183C186.795 76.4672 187.17 76.0913 187.621 76.0913H193.145C193.595 76.0913 193.971 76.4672 193.971 76.9183C193.96 77.3802 193.595 77.7453 193.145 77.7453Z" fill="white"/>
<path d="M208.301 77.7453H202.777C202.327 77.7453 201.951 77.3694 201.951 76.9183C201.951 76.4672 202.327 76.0913 202.777 76.0913H208.301C208.752 76.0913 209.127 76.4672 209.127 76.9183C209.127 77.3802 208.752 77.7453 208.301 77.7453Z" fill="white"/>
<path d="M223.468 77.7453H217.944C217.494 77.7453 217.118 77.3694 217.118 76.9183C217.118 76.4672 217.494 76.0913 217.944 76.0913H223.468C223.919 76.0913 224.294 76.4672 224.294 76.9183C224.294 77.3802 223.919 77.7453 223.468 77.7453Z" fill="white"/>
<path d="M238.636 77.7453H233.112C232.661 77.7453 232.286 77.3694 232.286 76.9183C232.286 76.4672 232.661 76.0913 233.112 76.0913H238.636C239.086 76.0913 239.462 76.4672 239.462 76.9183C239.451 77.3802 239.086 77.7453 238.636 77.7453Z" fill="white"/>
<path d="M203.678 99.8704C202.455 99.8704 201.565 99.4837 201.082 98.7319C200.149 97.2927 200.868 95.2627 203.217 92.7173C204.933 90.8592 206.928 89.3878 206.95 89.3663C207.025 89.3126 207.143 89.3233 207.196 89.4092C207.25 89.4844 207.239 89.6026 207.154 89.6563C207.079 89.71 199.377 95.4239 201.383 98.5386C202.016 99.5267 203.378 99.5911 204.408 99.473C206.317 99.2474 208.805 98.2271 211.058 96.7234C213.396 95.1661 215.048 93.4154 215.574 91.9118C215.928 90.9236 215.821 90.2255 215.252 89.8389C214.523 89.3341 213 89.3341 211.176 89.8389C209.428 90.3222 207.679 91.1921 206.596 92.1051C206.521 92.1695 206.413 92.1588 206.349 92.0836C206.285 92.0084 206.295 91.901 206.371 91.8366C207.486 90.8914 209.299 89.9892 211.079 89.4952C213.032 88.9581 214.619 88.9796 215.445 89.5489C215.939 89.8926 216.411 90.5907 215.896 92.0299C215.338 93.598 213.643 95.4131 211.24 97.0134C208.934 98.5493 206.392 99.5911 204.429 99.8274C204.182 99.8489 203.925 99.8704 203.678 99.8704Z" fill="#C65447"/>
<path d="M296.011 174.291H286.272C285.746 173.851 286.636 172.841 287.559 172.777C287.956 172.745 288.471 172.83 289.05 172.949C289.178 171.166 289.951 163.153 292.836 163.476C296.076 163.841 292.836 167.009 291.924 168.878C291.249 170.263 290.53 172.261 290.197 173.196C290.466 173.249 290.734 173.314 291.013 173.357C291.442 172.036 293.04 167.589 295.078 167.847C297.47 168.148 296.505 169.931 294.81 170.994C293.566 171.767 292.042 172.873 291.313 173.41C291.924 173.507 292.568 173.582 293.222 173.561C294.885 173.529 295.7 174.023 296.011 174.291Z" fill="#82B378"/>
<path d="M73.6844 173.818C73.1695 173.002 71.6142 170.897 69.544 171.176C67.2914 171.477 72.0325 172.97 73.4913 173.818C73.1695 173.818 72.8906 173.797 72.6868 173.722C71.7107 173.378 70.0481 174.044 69.5225 174.27H78.7687C78.7044 174.044 78.5435 173.69 78.1037 173.421C77.9535 173.324 77.6425 173.314 77.2563 173.346C77.8034 172.701 78.1895 170.629 76.6556 171.155C75.5401 171.542 75.5401 172.809 75.6473 173.561C75.4114 173.593 75.1646 173.636 74.9287 173.668C74.4674 171.316 72.837 164.431 69.544 164.249C66.1973 164.066 72.3758 171.391 74.4352 173.733C74.1778 173.786 73.9204 173.808 73.6844 173.818Z" fill="#82B378"/>
<path d="M276.801 165H109.193C109.087 165 109 164.806 109 164.569V164.431C109 164.194 109.087 164 109.193 164H276.807C276.913 164 277 164.194 277 164.431V164.569C276.994 164.806 276.907 165 276.801 165Z" fill="#DDDDDD"/>
</g>
<defs>
<clipPath id="clip0_125_896">
<rect width="290" height="150" fill="white" transform="translate(37 25)"/>
</clipPath>
</defs>
</svg>
