<svg width="22" height="22" viewBox="0 0 22 22" fill="none" xmlns="http://www.w3.org/2000/svg">
<path d="M11.5276 21.3121C8.62404 21.3121 5.89965 20.1867 3.85623 18.1433C1.81281 16.1 0.6875 13.3754 0.6875 10.4718C0.687067 8.46879 1.24169 6.50481 2.2898 4.79788C3.33791 3.09094 4.83851 1.70783 6.62505 0.802052C6.80885 0.708356 7.01618 0.670874 7.22115 0.694283C7.42612 0.717692 7.61966 0.800956 7.7776 0.933681C7.93554 1.0664 8.05089 1.24271 8.10925 1.44059C8.16761 1.63847 8.1664 1.84915 8.10575 2.04634C7.59596 3.69299 7.54585 5.44765 7.96086 7.12071C8.37586 8.79377 9.24019 10.3216 10.4604 11.5391C11.3361 12.4213 12.3781 13.1211 13.5261 13.5979C14.674 14.0746 15.9052 14.319 17.1482 14.3168C18.0991 14.3175 19.0447 14.1748 19.9531 13.8937C20.1503 13.833 20.361 13.8318 20.5589 13.8901C20.7568 13.9485 20.9331 14.0638 21.0658 14.2218C21.1986 14.3797 21.2818 14.5733 21.3052 14.7783C21.3286 14.9833 21.2911 15.1906 21.1974 15.3744C20.2916 17.161 18.9085 18.6616 17.2016 19.7097C15.4946 20.7578 13.5307 21.3125 11.5276 21.3121ZM6.58754 2.39641C5.20217 3.23932 4.05778 4.42549 3.26507 5.84017C2.47235 7.25486 2.05814 8.85018 2.0625 10.4718C2.0625 15.6909 6.3085 19.9371 11.5276 19.9371C13.1493 19.9414 14.7446 19.5272 16.1593 18.7345C17.574 17.9418 18.7602 16.7974 19.6031 15.412C18.7981 15.5983 17.9745 15.6922 17.1483 15.6919C15.7246 15.6946 14.3146 15.4149 12.9997 14.869C11.6849 14.3231 10.4914 13.5218 9.48832 12.5115C8.18523 11.2109 7.23507 9.59965 6.72753 7.82989C6.21999 6.06012 6.17181 4.19022 6.58754 2.39666V2.39641Z" fill="#222222"/>
</svg>
