<svg width="22" height="16" viewBox="0 0 22 16" fill="none" xmlns="http://www.w3.org/2000/svg">
<g clip-path="url(#clip0_251_460)">
<path d="M2.33028 15.9851C1.04876 15.9851 0.00585938 14.9088 0.00585938 13.5863C0.00585938 12.2639 1.0482 11.1876 2.33028 11.1876C3.61236 11.1876 4.65526 12.2639 4.65526 13.5863C4.65526 14.9088 3.6118 15.9851 2.33028 15.9851ZM2.33028 12.3512C1.68236 12.3512 1.15572 12.9048 1.15572 13.5858C1.15572 14.2667 1.68236 14.8204 2.33028 14.8204C2.9782 14.8204 3.5054 14.2667 3.5054 13.5858C3.5054 12.9048 2.9782 12.3512 2.33028 12.3512Z" fill="#222222"/>
<path d="M8.09646 7.43853C6.81495 7.43853 5.77148 6.36222 5.77148 5.03978C5.77148 3.71791 6.81438 2.6416 8.09646 2.6416C9.37854 2.6416 10.4209 3.71791 10.4209 5.03978C10.4209 6.36222 9.37854 7.43853 8.09646 7.43853ZM8.09646 3.80573C7.44855 3.80573 6.92134 4.35938 6.92134 5.03978C6.92134 5.72075 7.44855 6.2744 8.09646 6.2744C8.74438 6.2744 9.27102 5.72075 9.27102 5.03978C9.27102 4.35938 8.74438 3.80573 8.09646 3.80573Z" fill="#222222"/>
<path d="M8.47852 7.01362L9.30441 6.20361L12.4191 9.45756L11.5932 10.2676L8.47852 7.01362Z" fill="#222222"/>
<path d="M2.74219 12.0422L6.91744 6.3457L7.84047 7.03918L3.66522 12.7354L2.74219 12.0422Z" fill="#222222"/>
<path d="M13.7246 9.10372L18.0181 3.40527L18.9324 4.11126L14.6389 9.80971L13.7246 9.10372Z" fill="#222222"/>
<path d="M19.6687 4.79652C18.3872 4.79652 17.3438 3.72021 17.3438 2.39777C17.3438 1.07533 18.3872 -0.000976562 19.6687 -0.000976562C20.9502 -0.000976562 21.9931 1.07533 21.9931 2.39777C21.9931 3.72021 20.9508 4.79652 19.6687 4.79652ZM19.6687 1.16316C19.0208 1.16316 18.4936 1.7168 18.4936 2.39777C18.4936 3.07874 19.0208 3.63239 19.6687 3.63239C20.3166 3.63239 20.8433 3.07874 20.8433 2.39777C20.8433 1.7168 20.3166 1.16316 19.6687 1.16316Z" fill="#222222"/>
<path d="M13.0686 13.4254C11.787 13.4254 10.7441 12.3491 10.7441 11.0267C10.7441 9.70424 11.7865 8.62793 13.0686 8.62793C14.3506 8.62793 15.3935 9.70424 15.3935 11.0267C15.3935 12.3491 14.3501 13.4254 13.0686 13.4254ZM13.0686 9.79206C12.4206 9.79206 11.894 10.3457 11.894 11.0267C11.894 11.7077 12.4206 12.2613 13.0686 12.2613C13.7165 12.2613 14.2437 11.7077 14.2437 11.0267C14.2437 10.3457 13.7165 9.79206 13.0686 9.79206Z" fill="#222222"/>
</g>
<defs>
<clipPath id="clip0_251_460">
<rect width="22" height="16" fill="white"/>
</clipPath>
</defs>
</svg>
