<svg width="17" height="20" viewBox="0 0 17 20" fill="none" xmlns="http://www.w3.org/2000/svg">
<g clip-path="url(#clip0_251_370)">
<path d="M4.89229 0.0826451L4.01357 0.352645C3.22982 0.593105 2.52985 1.05664 1.99606 1.68867C1.46227 2.3207 1.1169 3.09491 1.00061 3.92015C0.636112 6.50515 1.45102 9.52765 3.41588 12.9939C5.37584 16.4514 7.53339 18.6789 9.90816 19.6539C10.6712 19.9671 11.5065 20.0506 12.3147 19.8944C13.123 19.7381 13.8702 19.3488 14.4675 18.7726L15.1339 18.1301C15.5656 17.7136 15.8342 17.1516 15.8898 16.5486C15.9453 15.9455 15.784 15.3424 15.4358 14.8514L13.7716 12.5014C13.5466 12.1841 13.2298 11.9465 12.8656 11.8219C12.5013 11.6973 12.1079 11.6918 11.7405 11.8064L9.22334 12.5901L9.15829 12.6026C8.88093 12.6439 8.24152 12.0326 7.44379 10.6251C6.60925 9.15265 6.43498 8.2914 6.6657 8.0689L7.94698 6.85265C8.41487 6.40807 8.73439 5.82548 8.86073 5.18658C8.98706 4.54768 8.91388 3.88453 8.65143 3.29015L7.84143 1.4514C7.59707 0.897526 7.16315 0.453171 6.62068 0.201296C6.07821 -0.0505789 5.46428 -0.0927539 4.89352 0.0826451H4.89229ZM6.72093 1.9639L7.53216 3.80265C7.68991 4.15918 7.73402 4.5571 7.65829 4.94049C7.58257 5.32388 7.39082 5.67347 7.10997 5.94015L5.82625 7.15765C5.00398 7.9489 5.27643 9.30265 6.37975 11.2501C7.41925 13.0826 8.3667 13.9876 9.38411 13.8301L9.53629 13.7976L12.0988 13.0014C12.2213 12.9631 12.3525 12.9648 12.474 13.0062C12.5955 13.0477 12.7012 13.1269 12.7763 13.2326L14.4405 15.5826C14.6147 15.8282 14.6955 16.1299 14.6677 16.4316C14.64 16.7332 14.5056 17.0143 14.2895 17.2226L13.6231 17.8651C13.1964 18.2764 12.6628 18.5543 12.0856 18.6658C11.5085 18.7772 10.912 18.7176 10.3672 18.4939C8.28325 17.6389 6.31348 15.6051 4.4787 12.3689C2.64025 9.12515 1.89652 6.3664 2.21561 4.09765C2.29863 3.50803 2.54535 2.95486 2.92674 2.5033C3.30812 2.05174 3.80826 1.7206 4.36825 1.5489L5.2482 1.2789C5.53349 1.19158 5.84022 1.21293 6.1112 1.33897C6.38217 1.465 6.59889 1.68712 6.72093 1.9639Z" fill="#222222"/>
</g>
<defs>
<clipPath id="clip0_251_370">
<rect width="16.3636" height="20" fill="white"/>
</clipPath>
</defs>
</svg>
