<svg width="19" height="25" viewBox="0 0 19 25" fill="none" xmlns="http://www.w3.org/2000/svg">
<path d="M7.36465 12.6402C7.52334 12.5147 7.55004 12.2845 7.42454 12.1258C4.80575 8.81615 4.25586 6.67133 4.25586 5.45464C4.25586 2.85072 6.37416 0.732422 8.97807 0.732422C11.5818 0.732422 13.7001 2.85072 13.7001 5.45464C13.7001 8.67367 10 12.8391 8.97769 13.9284C8.84685 13.7896 8.6729 13.6011 8.46938 13.3718C8.33511 13.2206 8.10374 13.2069 7.95249 13.3411C7.80124 13.4754 7.78732 13.7068 7.92159 13.858C8.39347 14.3898 8.70589 14.703 8.71906 14.716C8.78772 14.7846 8.8808 14.8233 8.97807 14.8233C9.07516 14.8233 9.16824 14.7846 9.2369 14.716C9.44919 14.5039 14.4325 9.47418 14.4325 5.45464C14.4325 2.44694 11.9858 0 8.97807 0C5.97038 0 3.52344 2.44694 3.52344 5.45464C3.52344 7.86934 5.33256 10.6625 6.85023 12.5803C6.97574 12.7388 7.20596 12.7657 7.36465 12.6402Z" fill="#222222"/>
<path d="M17.197 15.6562H16.6279C16.2739 13.8887 15.3156 12.2966 13.9059 11.1469C13.7493 11.0191 13.5185 11.0425 13.3907 11.1993C13.2627 11.3559 13.2862 11.5867 13.443 11.7145C14.6822 12.7252 15.5365 14.1126 15.8794 15.6562H15.6313C15.2136 15.6562 14.8737 15.9961 14.8737 16.4138V16.8306H10.5177V16.4138C10.5177 15.9961 10.178 15.6562 9.76009 15.6562H8.19454C7.77683 15.6562 7.43694 15.9961 7.43694 16.4138V16.8306H3.08094V16.4138C3.08094 15.9961 2.74105 15.6562 2.32334 15.6562H2.07539C2.41833 14.1126 3.27244 12.7252 4.51183 11.7145C4.66843 11.5867 4.69189 11.3559 4.56409 11.1991C4.4363 11.0425 4.20551 11.0191 4.04892 11.1469C2.6392 12.2966 1.68095 13.8887 1.32694 15.6564H0.757599C0.33989 15.6564 0 15.9961 0 16.414V17.9795C0 18.3973 0.33989 18.7371 0.757599 18.7371H1.32675C1.66645 20.4307 2.56748 21.9741 3.8866 23.1107C5.30071 24.3289 7.1085 24.9997 8.97732 24.9997C10.8459 24.9997 12.6539 24.3289 14.0678 23.1107C15.3872 21.9741 16.288 20.4307 16.6279 18.7371H17.197C17.6147 18.7371 17.9546 18.3973 17.9546 17.9795V16.4138C17.9546 15.9961 17.6147 15.6562 17.197 15.6562ZM8.16936 16.4138C8.16936 16.4001 8.18062 16.3886 8.19454 16.3886H9.76009C9.77402 16.3886 9.78527 16.3999 9.78527 16.4138V17.9795C9.78527 17.9935 9.77402 18.0047 9.76009 18.0047H8.19454C8.18062 18.0047 8.16936 17.9935 8.16936 17.9795V16.4138ZM0.732422 17.9795V16.4138C0.732422 16.4001 0.743675 16.3886 0.757599 16.3886H2.32315C2.33707 16.3886 2.34852 16.4001 2.34852 16.4138V17.9795C2.34852 17.9935 2.33707 18.0047 2.32315 18.0047H0.757599C0.743675 18.0047 0.732422 17.9935 0.732422 17.9795ZM13.5899 22.5559C12.3087 23.6594 10.6707 24.2673 8.97732 24.2673C7.28397 24.2673 5.64594 23.6594 4.36478 22.5559C3.20663 21.5581 2.40421 20.2146 2.07539 18.7371H2.32334C2.74105 18.7371 3.08094 18.3973 3.08094 17.9795V17.5628H7.43694V17.9795C7.43694 18.3973 7.77664 18.7371 8.19454 18.7371H9.76009C10.1778 18.7371 10.5177 18.3973 10.5177 17.9795V17.5628H14.8737V17.9795C14.8737 18.3973 15.2136 18.7371 15.6313 18.7371H15.8792C15.5504 20.2146 14.748 21.5581 13.5899 22.5559ZM17.2222 17.9795C17.2222 17.9935 17.211 18.0047 17.197 18.0047H15.6313C15.6174 18.0047 15.6061 17.9935 15.6061 17.9795V16.4138C15.6061 16.4001 15.6174 16.3886 15.6313 16.3886H17.197C17.211 16.3886 17.2222 16.4001 17.2222 16.4138V17.9795Z" fill="#222222"/>
<path d="M7.04688 3.88916V7.41184C7.04688 7.61421 7.21091 7.77805 7.41309 7.77805C7.61546 7.77805 7.7793 7.61421 7.7793 7.41184V3.88916C7.7793 3.68698 7.61546 3.52295 7.41309 3.52295C7.21091 3.52295 7.04688 3.68698 7.04688 3.88916Z" fill="#222222"/>
<path d="M9.34375 7.41184V6.2125H9.95601C10.6976 6.2125 11.3009 5.60921 11.3009 4.86782C11.3009 4.12624 10.6976 3.52295 9.95601 3.52295H8.97754C8.77536 3.52295 8.61133 3.68698 8.61133 3.88916V7.41184C8.61133 7.61421 8.77536 7.77805 8.97754 7.77805C9.17972 7.77805 9.34375 7.61421 9.34375 7.41184ZM9.34375 4.25537H9.95601C10.2938 4.25537 10.5685 4.53003 10.5685 4.86782C10.5685 5.20542 10.2938 5.48008 9.95601 5.48008H9.34375V4.25537Z" fill="#222222"/>
</svg>
