<svg width="22" height="22" viewBox="0 0 22 22" fill="none" xmlns="http://www.w3.org/2000/svg">
<g clip-path="url(#clip0_251_543)">
<path d="M20.0672 9.32701H19.1541V7.39501C19.1541 7.21273 19.0769 7.03901 18.9417 6.91681C18.8064 6.79461 18.6257 6.73544 18.4445 6.75379C18.3419 6.76418 16.0431 7.02414 14.8986 9.32701H12.673V1.93282C12.673 0.867066 11.8059 0 10.7402 0H1.93282C0.867066 0 0 0.867066 0 1.93282V10.7402C0 11.806 0.867066 12.673 1.93278 12.673H2.84595V14.605C2.84595 14.7873 2.92312 14.961 3.05834 15.0832C3.17737 15.1907 3.33154 15.2495 3.49044 15.2495C3.51205 15.2495 3.53384 15.2485 3.55554 15.2462C3.65814 15.2358 5.95689 14.9759 7.10136 12.673H9.32697V20.0672C9.32697 21.1329 10.194 22 11.2597 22H20.0671C21.1329 22 22 21.1329 22 20.0672V11.2598C22 10.1941 21.1329 9.32701 20.0672 9.32701ZM6.68327 11.3839C6.41884 11.3839 6.18123 11.5454 6.08395 11.7913C5.61503 12.9763 4.75123 13.5215 4.13505 13.768V12.0285C4.13505 11.6725 3.84648 11.3839 3.49052 11.3839H1.93282C1.57786 11.3839 1.28911 11.0951 1.28911 10.7402V1.93282C1.28906 1.57786 1.57786 1.28906 1.93282 1.28906H10.7402C11.0952 1.28906 11.3839 1.57786 11.3839 1.93278V10.7402C11.3839 11.0951 11.0951 11.3839 10.7402 11.3839H6.68327V11.3839ZM20.7109 20.0672C20.7109 20.4222 20.4221 20.7109 20.0672 20.7109H11.2598C10.9048 20.7109 10.6161 20.4221 10.6161 20.0672V12.673H10.7402C11.806 12.673 12.673 11.8059 12.673 10.7402V10.6161H15.3167C15.5812 10.6161 15.8188 10.4546 15.9161 10.2087C16.385 9.02365 17.2488 8.47851 17.8649 8.232V9.97154C17.8649 10.3275 18.1535 10.6161 18.5095 10.6161H20.0672C20.4221 10.6161 20.7109 10.9049 20.7109 11.2598V20.0672H20.7109Z" fill="#222222"/>
<path d="M8.92722 8.27901C8.91901 8.27897 8.12366 8.26741 7.33243 7.86084C7.78515 7.2811 8.14197 6.49447 8.24505 5.42846H8.92455C9.28051 5.42846 9.56909 5.13988 9.56909 4.78393C9.56909 4.42797 9.28051 4.1394 8.92455 4.1394H6.98185V3.74902C6.98185 3.39307 6.69327 3.10449 6.33732 3.10449C5.98137 3.10449 5.69279 3.39307 5.69279 3.74902V4.1394H3.75004C3.39409 4.1394 3.10551 4.42797 3.10551 4.78393C3.10551 5.13988 3.39409 5.42846 3.75004 5.42846H4.42955C4.53268 6.49447 4.88945 7.2811 5.34216 7.86084C4.55094 8.26741 3.75567 8.27892 3.75 8.27901C3.39405 8.27901 3.10547 8.56759 3.10547 8.92354C3.10547 9.27949 3.39405 9.56807 3.75 9.56807C3.79619 9.56807 4.894 9.56133 5.99374 8.9748C6.10649 8.91465 6.22165 8.84671 6.33723 8.77113C6.45286 8.84671 6.56798 8.91469 6.68073 8.9748C7.78047 9.56133 8.87828 9.56807 8.92447 9.56807C9.28042 9.56807 9.57033 9.27949 9.57033 8.92354C9.57033 8.56759 9.28317 8.27901 8.92722 8.27901ZM6.33732 7.03652C6.01072 6.60391 5.80636 6.06702 5.72656 5.42846H6.94804C6.86829 6.06702 6.66388 6.60391 6.33732 7.03652Z" fill="#222222"/>
<path d="M16.2401 12.788C16.1309 12.5697 15.9077 12.4317 15.6636 12.4317C15.4194 12.4317 15.1963 12.5697 15.0871 12.788L12.4998 17.9625C12.3406 18.2809 12.4697 18.6681 12.7881 18.8273C12.8806 18.8736 12.9789 18.8955 13.0758 18.8955C13.3122 18.8955 13.5398 18.7649 13.6528 18.5391L14.1214 17.6017H17.2056L17.6743 18.5391C17.8335 18.8575 18.2206 18.9866 18.539 18.8273C18.8574 18.6681 18.9865 18.2809 18.8273 17.9625L16.2401 12.788ZM14.766 16.3126L15.6636 14.5175L16.5611 16.3126H14.766Z" fill="#222222"/>
<path d="M15.7129 3.68754C15.8387 3.8134 16.0037 3.87634 16.1686 3.87634C16.3335 3.87634 16.4985 3.81344 16.6243 3.68754C16.876 3.43583 16.876 3.02775 16.6243 2.77604L16.4393 2.59102C18.8116 2.73157 20.6986 4.70573 20.6986 7.11266C20.6986 7.46862 20.9872 7.7572 21.3431 7.7572C21.6991 7.7572 21.9876 7.46862 21.9876 7.11266C21.9876 3.99 19.5151 1.4343 16.425 1.29959L16.6243 1.10026C16.876 0.848552 16.876 0.440478 16.6243 0.188767C16.3727 -0.0629009 15.9645 -0.0629438 15.7128 0.188767L14.4193 1.48243C14.1675 1.73414 14.1675 2.14221 14.4193 2.39392L15.7129 3.68754Z" fill="#222222"/>
<path d="M6.27481 18.2996C6.02314 18.0479 5.61503 18.0479 5.36332 18.2996C5.11161 18.5513 5.11161 18.9594 5.36332 19.2111L5.54834 19.3961C3.17608 19.2556 1.28906 17.2814 1.28906 14.8745C1.28906 14.5185 1.00048 14.2299 0.644531 14.2299C0.288578 14.2299 0 14.5185 0 14.8745C0 17.9971 2.47255 20.5528 5.56265 20.6875L5.36332 20.8869C5.11161 21.1386 5.11161 21.5466 5.36332 21.7983C5.48917 21.9242 5.65413 21.9871 5.81904 21.9871C5.98396 21.9871 6.14896 21.9242 6.27477 21.7983L7.56839 20.5047C7.8201 20.253 7.8201 19.8449 7.56839 19.5932L6.27481 18.2996Z" fill="#222222"/>
</g>
<defs>
<clipPath id="clip0_251_543">
<rect width="22" height="22" fill="white"/>
</clipPath>
</defs>
</svg>
