<svg width="25" height="25" viewBox="0 0 25 25" fill="none" xmlns="http://www.w3.org/2000/svg">
<g clip-path="url(#clip0_251_416)">
<path d="M4.55725 11.4241H12.2865C12.5618 11.4241 12.7851 11.2008 12.7851 10.9254C12.7851 10.6501 12.5618 10.4268 12.2865 10.4268H4.55725C4.28174 10.4268 4.05859 10.6501 4.05859 10.9254C4.05859 11.2008 4.28174 11.4241 4.55725 11.4241Z" fill="#222222"/>
<path d="M9.18465 13.6685H4.55725C4.28174 13.6685 4.05859 13.8918 4.05859 14.1671C4.05859 14.4425 4.28174 14.6658 4.55725 14.6658H9.18465C9.46 14.6658 9.68331 14.4425 9.68331 14.1671C9.68331 13.8918 9.46 13.6685 9.18465 13.6685Z" fill="#222222"/>
<path d="M17.8422 12.5611V3.9444C17.8419 2.56747 16.7257 1.45157 15.3489 1.4511H13.3044V0.49866C13.3044 0.22315 13.0813 0 12.8058 0C12.5304 0 12.3071 0.22315 12.3071 0.49866V1.4511H5.52535V0.49866C5.52535 0.22315 5.3022 0 5.02669 0C4.75134 0 4.52803 0.22315 4.52803 0.49866V1.4511H2.48353C1.10676 1.45157 -0.0091423 2.56747 -0.00976562 3.9444V17.4531C-0.0091423 18.8299 1.10676 19.9458 2.48353 19.9464H11.7139C12.6733 22.4038 15.2464 23.8303 17.839 23.3423C20.4315 22.8544 22.3099 20.59 22.3104 17.9517C22.3152 15.2739 20.3854 13.04 17.8422 12.5611ZM2.48867 2.44842H4.53317V3.40086C4.53317 3.67621 4.75632 3.89952 5.03183 3.89952C5.30719 3.89952 5.53049 3.67621 5.53049 3.40086V2.44842H12.3123V3.40086C12.3123 3.67621 12.5354 3.89952 12.8109 3.89952C13.0863 3.89952 13.3096 3.67621 13.3096 3.40086V2.44842H15.3541C16.1792 2.45076 16.8476 3.11912 16.8501 3.9444V5.15115H0.992695V3.9444C0.993318 3.11834 1.66277 2.44904 2.48867 2.44842ZM2.48867 18.9491C1.66339 18.9467 0.995033 18.2782 0.992695 17.4531V6.14349H16.8449V12.4665H16.83C15.2014 12.469 13.6579 13.1938 12.616 14.4457C11.5739 15.6975 11.1413 17.3471 11.4345 18.9491H2.48867ZM16.83 22.4397C14.3515 22.4397 12.342 20.4304 12.342 17.9517C12.342 15.4731 14.3515 13.4638 16.83 13.4638C19.3086 13.4638 21.3179 15.4731 21.3179 17.9517C21.3141 20.4288 19.307 22.4359 16.83 22.4397Z" fill="#222222"/>
<path d="M19.1385 16.1616L16.1766 18.989L14.6456 17.4531C14.4516 17.2589 14.1368 17.2589 13.9426 17.4531C13.7483 17.6473 13.7483 17.962 13.9426 18.1562L15.8224 20.0362C15.9159 20.1303 16.0437 20.1825 16.1766 20.1808C16.3053 20.1819 16.4291 20.1317 16.5205 20.041L19.8317 16.8745C19.927 16.7833 19.9822 16.6582 19.9851 16.5262C19.9878 16.3942 19.9381 16.2666 19.8466 16.1715C19.6524 15.9768 19.3381 15.9722 19.1385 16.1616Z" fill="#222222"/>
</g>
<defs>
<clipPath id="clip0_251_416">
<rect width="25" height="25" fill="white"/>
</clipPath>
</defs>
</svg>
