<svg width="22" height="22" viewBox="0 0 22 22" fill="none" xmlns="http://www.w3.org/2000/svg">
<path d="M13.7852 15.9755H15.5032V19.4111C15.5032 20.832 14.3472 21.9877 12.9264 21.9877H2.57661C1.15596 21.9877 0 20.832 0 19.4111V2.57661C0 1.15596 1.15596 0 2.57661 0H12.9264C14.3472 0 15.5032 1.15596 15.5032 2.57661V6.01227H13.7852V2.57661C13.7852 2.10312 13.4 1.71774 12.9264 1.71774H2.57661C2.10312 1.71774 1.71774 2.10312 1.71774 2.57661V19.4111C1.71774 19.8846 2.10312 20.27 2.57661 20.27H12.9264C13.4 20.27 13.7852 19.8846 13.7852 19.4111V15.9755ZM17.951 6.94482L16.7363 8.15953L18.7117 10.1351H7.60127V11.8528H18.7117L16.7363 13.8282L17.951 15.0429L22 10.994L17.951 6.94482Z" fill="#222222"/>
</svg>
