<svg width="18" height="23" viewBox="0 0 18 23" fill="none" xmlns="http://www.w3.org/2000/svg">
<g clip-path="url(#clip0_251_573)">
<path d="M17.3026 4.68957L12.8104 0.197387C12.6841 0.0710215 12.5127 0 12.334 0H2.45117C1.08883 0 -0.0195312 1.10836 -0.0195312 2.4707V20.5293C-0.0195312 21.8916 1.08883 23 2.45117 23H15.0293C16.3916 23 17.5 21.8916 17.5 20.5293V5.16602C17.5 4.98732 17.429 4.81594 17.3026 4.68957ZM13.0078 2.30058L15.1994 4.49219H13.0078V2.30058ZM15.0293 21.6523H2.45117C1.83192 21.6523 1.32812 21.1485 1.32812 20.5293V2.4707C1.32812 1.85146 1.83192 1.34766 2.45117 1.34766H11.6602V5.16602C11.6602 5.53815 11.9619 5.83984 12.334 5.83984H16.1523V20.5293C16.1523 21.1485 15.6485 21.6523 15.0293 21.6523Z" fill="#222222"/>
<path d="M13.2324 9.07422C12.3809 9.07422 11.6154 8.6011 11.2347 7.83959L11.1398 7.64988C11.0257 7.42154 10.7924 7.27734 10.5371 7.27734H6.94336C6.68811 7.27734 6.45479 7.42154 6.34064 7.64984L6.24581 7.8395C5.86505 8.6011 5.09954 9.07422 4.24805 9.07422C3.87591 9.07422 3.57422 9.37591 3.57422 9.74805V13.5932C3.57422 15.105 4.05124 16.5453 4.95368 17.7582C5.85611 18.9711 7.09856 19.8419 8.54662 20.2763C8.60978 20.2952 8.67501 20.3047 8.74023 20.3047C8.80546 20.3047 8.87069 20.2952 8.93385 20.2763C10.3819 19.8419 11.6244 18.9711 12.5268 17.7582C13.4292 16.5453 13.9062 15.105 13.9062 13.5932V9.74805C13.9062 9.37591 13.6046 9.07422 13.2324 9.07422ZM12.5586 13.5932C12.5586 16.0305 11.0326 18.1476 8.74023 18.9237C6.44792 18.1476 4.92188 16.0305 4.92188 13.5932V10.3591C5.94165 10.1666 6.82822 9.5415 7.35327 8.62495H10.1272C10.6522 9.54145 11.5388 10.1666 12.5586 10.3591V13.5932Z" fill="#222222"/>
<path d="M10.1693 12.044L8.10458 14.1087L7.31045 13.3146C7.04734 13.0515 6.62067 13.0515 6.35752 13.3146C6.09437 13.5778 6.09437 14.0044 6.35752 14.2675L7.6281 15.5381C7.75967 15.6697 7.93213 15.7355 8.10454 15.7355C8.27695 15.7355 8.44945 15.6697 8.58098 15.5381L11.1221 12.997C11.3853 12.7338 11.3853 12.3072 11.1221 12.044C10.8591 11.7809 10.4324 11.7809 10.1693 12.044Z" fill="#222222"/>
</g>
<defs>
<clipPath id="clip0_251_573">
<rect width="17.48" height="23" fill="white"/>
</clipPath>
</defs>
</svg>
