<svg width="25" height="25" viewBox="0 0 25 25" fill="none" xmlns="http://www.w3.org/2000/svg">
<path d="M23.2453 10.8997C23.1496 8.17275 22.0453 5.62275 20.1062 3.68369C18.0738 1.65088 15.3726 0.531738 12.5008 0.531738C6.70039 0.531738 1.96094 5.14854 1.75664 10.8997C0.871484 11.2931 0.251953 12.179 0.251953 13.2087V16.0454C0.251953 17.4384 1.38516 18.572 2.77851 18.572C3.68008 18.572 4.41328 17.8388 4.41328 16.9372V12.3165C4.41328 11.47 3.76406 10.7798 2.93867 10.6978C3.24336 5.68721 7.41445 1.70361 12.5008 1.70361C15.0601 1.70361 17.4668 2.70127 19.2781 4.5126C20.9414 6.17588 21.9148 8.34385 22.0613 10.6981C21.2367 10.781 20.5887 11.4708 20.5887 12.3165V16.9368C20.5887 17.7903 21.248 18.4849 22.0832 18.5571V19.7247C22.0832 21.0396 21.0133 22.1091 19.6984 22.1091H17.9324C17.8457 21.8614 17.7098 21.6325 17.5191 21.4427C17.1851 21.1071 16.7398 20.9224 16.2656 20.9224H14.4453C14.184 20.9224 13.9332 20.9778 13.7035 21.0849C13.0769 21.3728 12.6723 22.0048 12.6723 22.695C12.6723 23.1692 12.857 23.6146 13.1918 23.9478C13.5266 24.2833 13.9719 24.4681 14.4453 24.4681H16.2656C17.0203 24.4681 17.6855 23.9802 17.9336 23.281H19.6984C21.6598 23.281 23.2551 21.6856 23.2551 19.7247V18.3485C24.1348 17.9528 24.7496 17.07 24.7496 16.0446V13.2079C24.7496 12.179 24.1301 11.2931 23.2453 10.8997ZM3.24101 12.3165V16.9368C3.24101 17.1919 3.03359 17.3997 2.77812 17.3997C2.03125 17.3997 1.42344 16.7919 1.42344 16.045V13.2083C1.42344 12.461 2.03125 11.8536 2.77812 11.8536C3.03359 11.8536 3.24101 12.0614 3.24101 12.3165ZM16.8535 22.8208C16.7953 23.0966 16.5476 23.297 16.2652 23.297H14.4449C14.2848 23.297 14.1344 23.2345 14.0195 23.1196C13.9062 23.0067 13.8437 22.856 13.8437 22.6958C13.8437 22.4618 13.9809 22.2481 14.1957 22.1493C14.2723 22.1134 14.3562 22.095 14.4449 22.095H16.2652C16.4254 22.095 16.5758 22.1571 16.6902 22.272C16.8035 22.3849 16.866 22.5356 16.866 22.6958C16.8664 22.7388 16.8617 22.7817 16.8535 22.8208ZM23.5777 16.045C23.5777 16.7919 22.9699 17.3997 22.223 17.3997C21.968 17.3997 21.7601 17.1923 21.7601 16.9368V12.3165C21.7601 12.0614 21.9676 11.8536 22.223 11.8536C22.9699 11.8536 23.5777 12.4614 23.5777 13.2083V16.045Z" fill="#222222"/>
<path d="M16.2957 16.2468C17.6648 16.2468 18.7785 15.1327 18.7785 13.764V8.70498C18.7785 8.04326 18.5199 7.41982 18.0504 6.95029C17.5809 6.48076 16.9578 6.22217 16.2957 6.22217H8.70742C7.33828 6.22217 6.22461 7.33584 6.22461 8.70498V13.764C6.22461 15.1331 7.33828 16.2468 8.70742 16.2468H8.75391V17.5577C8.75391 18.0577 9.05195 18.5015 9.51289 18.6886C9.66172 18.7483 9.81641 18.778 9.96953 18.778C10.2887 18.778 10.5996 18.6515 10.8273 18.4159L13.0082 16.2468H16.2957ZM12.3539 15.2452L9.99375 17.5925C9.9832 17.6034 9.97539 17.6116 9.95313 17.6018C9.92617 17.5909 9.92617 17.5733 9.92617 17.5577V15.6608C9.92617 15.3374 9.66406 15.0749 9.34023 15.0749H8.70781C7.98477 15.0749 7.39687 14.4866 7.39687 13.764V8.70498C7.39687 7.98193 7.98477 7.39404 8.70781 7.39404H16.2961C16.6453 7.39404 16.9738 7.53076 17.2223 7.77881C17.4707 8.02725 17.607 8.35615 17.607 8.70498V13.764C17.607 14.487 17.0188 15.0749 16.2961 15.0749H12.7672C12.6121 15.0749 12.4637 15.1362 12.3539 15.2452Z" fill="#222222"/>
<path d="M9.65352 10.4639C9.17695 10.4639 8.78906 10.8521 8.78906 11.3283C8.78906 11.8045 9.17734 12.1928 9.65352 12.1928C10.1305 12.1928 10.5188 11.8045 10.5188 11.3283C10.5188 10.8521 10.1309 10.4639 9.65352 10.4639Z" fill="#222222"/>
<path d="M12.5012 10.4639C12.0246 10.4639 11.6367 10.8521 11.6367 11.3283C11.6367 11.8045 12.025 12.1928 12.5012 12.1928C12.9785 12.1928 13.3664 11.8045 13.3664 11.3283C13.3664 10.8521 12.9785 10.4639 12.5012 10.4639Z" fill="#222222"/>
<path d="M15.3469 10.4639C14.8703 10.4639 14.4824 10.8521 14.4824 11.3283C14.4824 11.8045 14.8707 12.1928 15.3469 12.1928C15.8238 12.1928 16.2121 11.8045 16.2121 11.3283C16.2121 10.8521 15.8238 10.4639 15.3469 10.4639Z" fill="#222222"/>
</svg>
