<svg width="20" height="24" viewBox="0 0 20 24" fill="none" xmlns="http://www.w3.org/2000/svg">
<g clip-path="url(#clip0_251_451)">
<path d="M17.462 1.67194H16.5272V0.534152C16.5272 0.239116 16.2881 0 15.9931 0C15.6982 0 15.4589 0.239116 15.4589 0.534152V1.67715H4.67447V0.534152C4.67447 0.239116 4.43535 0 4.14032 0C3.84528 0 3.60617 0.239116 3.60617 0.534152V1.67715H2.69811C1.22334 1.67778 0.0279697 2.87315 0.0273438 4.34791V20.8586C0.0279697 22.3334 1.22334 23.5288 2.69811 23.5294H17.4568C18.9315 23.5288 20.1269 22.3334 20.1275 20.8586V4.3427C20.1275 2.86981 18.9351 1.67486 17.462 1.67194ZM19.0645 20.8532C19.062 21.7373 18.3461 22.4532 17.462 22.4557H2.69811C1.81425 22.4532 1.09815 21.7373 1.09565 20.8532V4.3427C1.09815 3.45863 1.81425 2.74275 2.69811 2.74024H3.60617V3.56818C3.60617 3.86321 3.84528 4.10233 4.14032 4.10233C4.43535 4.10233 4.67447 3.86321 4.67447 3.56818V2.74024H15.4589V3.56818C15.4589 3.86321 15.6982 4.10233 15.9931 4.10233C16.2881 4.10233 16.5272 3.86321 16.5272 3.56818V2.74024H17.462C18.3461 2.74275 19.062 3.45863 19.0645 4.3427V20.8532Z" fill="#222222"/>
<path d="M6.82146 11.3243L4.85052 13.2044L3.94246 12.2964C3.73443 12.0883 3.39725 12.0883 3.18922 12.2964C2.9812 12.5044 2.9812 12.8416 3.18922 13.0496L4.46597 14.3262C4.56613 14.4271 4.703 14.4831 4.8451 14.4812C4.98302 14.4824 5.11572 14.4286 5.21379 14.3316L7.55863 12.0881C7.69739 11.9569 7.75518 11.7614 7.7097 11.5759C7.66421 11.3904 7.52253 11.2435 7.33892 11.1916C7.1551 11.1394 6.9575 11.1901 6.82146 11.3243Z" fill="#222222"/>
<path d="M16.5968 12.2959H10.4541C10.159 12.2959 9.91992 12.535 9.91992 12.8301C9.91992 13.1251 10.159 13.3642 10.4541 13.3642H16.5968C16.8919 13.3642 17.131 13.1251 17.131 12.8301C17.131 12.535 16.8919 12.2959 16.5968 12.2959Z" fill="#222222"/>
<path d="M6.82146 5.98246L4.85052 7.86264L3.94246 6.95458C3.73443 6.74655 3.39725 6.74655 3.18922 6.95458C2.9812 7.1626 2.9812 7.49979 3.18922 7.70781L4.46597 8.98436C4.56613 9.08534 4.703 9.14126 4.8451 9.13938C4.98302 9.14064 5.11572 9.0868 5.21379 8.98978L7.55863 6.74634C7.69739 6.6151 7.75518 6.41959 7.7097 6.2341C7.66421 6.0486 7.52253 5.90171 7.33892 5.84976C7.1551 5.79759 6.9575 5.8483 6.82146 5.98246Z" fill="#222222"/>
<path d="M16.5968 6.95508H10.4541C10.159 6.95508 9.91992 7.1942 9.91992 7.48923C9.91992 7.78427 10.159 8.02339 10.4541 8.02339H16.5968C16.8919 8.02339 17.131 7.78427 17.131 7.48923C17.131 7.1942 16.8919 6.95508 16.5968 6.95508Z" fill="#222222"/>
<path d="M6.82146 16.6656L4.85052 18.5457L3.94246 17.6377C3.73443 17.4297 3.39725 17.4297 3.18922 17.6377C2.9812 17.8457 2.9812 18.1829 3.18922 18.3909L4.46597 19.6675C4.56613 19.7685 4.703 19.8244 4.8451 19.8225C4.98302 19.8238 5.11572 19.7699 5.21379 19.6729L7.55863 17.4294C7.69739 17.2982 7.75518 17.1027 7.7097 16.9172C7.66421 16.7317 7.52253 16.5848 7.33892 16.5329C7.1551 16.4807 6.9575 16.5314 6.82146 16.6656Z" fill="#222222"/>
<path d="M16.5968 17.6377H10.4541C10.159 17.6377 9.91992 17.8768 9.91992 18.1719C9.91992 18.4669 10.159 18.706 10.4541 18.706H16.5968C16.8919 18.706 17.131 18.4669 17.131 18.1719C17.131 17.8768 16.8919 17.6377 16.5968 17.6377Z" fill="#222222"/>
</g>
<defs>
<clipPath id="clip0_251_451">
<rect width="20" height="23.5294" fill="white"/>
</clipPath>
</defs>
</svg>
