<svg width="25" height="25" viewBox="0 0 25 25" fill="none" xmlns="http://www.w3.org/2000/svg">
<path d="M8.27979 17.0335C8.8042 16.6937 9.22991 16.2219 9.51413 15.6654C9.79834 15.109 9.93104 14.4875 9.89887 13.8635C9.8667 13.2395 9.6708 12.6349 9.33087 12.1106C8.99094 11.5863 8.51897 11.1608 7.9624 10.8767C7.45536 10.6129 6.89187 10.4761 6.32031 10.4781C5.54996 10.4745 4.79916 10.7204 4.18019 11.1791C3.56121 11.6377 3.10732 12.2843 2.88639 13.0223C2.66546 13.7603 2.68936 14.55 2.95452 15.2733C3.21968 15.9966 3.71184 16.6146 4.35742 17.0349C3.40398 17.363 2.57651 17.9801 1.99015 18.8004C1.4038 19.6206 1.08774 20.6033 1.08594 21.6116V23.4182C1.08594 23.5316 1.13095 23.6402 1.21108 23.7204C1.2912 23.8005 1.39987 23.8455 1.51318 23.8455H11.1267C11.24 23.8455 11.3487 23.8005 11.4288 23.7204C11.5089 23.6402 11.554 23.5316 11.554 23.4182V21.6116C11.5522 20.6027 11.2359 19.6195 10.649 18.7989C10.0621 17.9783 9.23395 17.3612 8.27979 17.0335V17.0335ZM3.59009 14.0494C3.59254 13.3274 3.88127 12.6359 4.39293 12.1266C4.90459 11.6173 5.59739 11.3317 6.31934 11.3326C6.76044 11.331 7.1953 11.4368 7.58642 11.6408C7.97754 11.8447 8.31318 12.1408 8.56439 12.5034C8.81561 12.8659 8.97486 13.2842 9.02842 13.722C9.08198 14.1599 9.02824 14.6042 8.87183 15.0166C8.67261 15.5292 8.32406 15.97 7.87135 16.2821C7.41863 16.5942 6.88262 16.7632 6.33276 16.7671H6.31104C5.5904 16.7656 4.89966 16.4789 4.38979 15.9697C3.87993 15.4604 3.59241 14.77 3.59009 14.0494V14.0494ZM10.6995 22.9898H1.94043V21.6116C1.94159 20.5538 2.36234 19.5396 3.11036 18.7915C3.85837 18.0435 4.87257 17.6228 5.93042 17.6216H6.31006H6.31934H6.33179H6.70947C7.76731 17.6228 8.78146 18.0436 9.52947 18.7916C10.2775 19.5396 10.6982 20.5538 10.6995 21.6116V22.9898Z" fill="#222222"/>
<path d="M20.6401 7.64163C21.1645 7.30182 21.5902 6.82995 21.8744 6.27345C22.1586 5.71695 22.2913 5.09543 22.2592 4.47139C22.227 3.84735 22.0311 3.24277 21.6912 2.71844C21.3513 2.19411 20.8793 1.7685 20.3228 1.48441C19.8154 1.22078 19.2517 1.08422 18.6799 1.08646C17.9096 1.08287 17.1587 1.32876 16.5397 1.78735C15.9207 2.24594 15.4668 2.89259 15.2458 3.63061C15.0248 4.36862 15.0487 5.15833 15.3139 5.88164C15.579 6.60495 16.0712 7.22299 16.7168 7.64334C15.7634 7.97139 14.9359 8.58849 14.3495 9.40876C13.7632 10.229 13.4471 11.2117 13.4453 12.22V14.0266C13.4454 14.0828 13.4566 14.1383 13.4781 14.1901C13.4997 14.242 13.5313 14.289 13.5711 14.3286C13.6108 14.3682 13.658 14.3996 13.7099 14.421C13.7618 14.4423 13.8174 14.4533 13.8735 14.4532H23.4871C23.6004 14.4532 23.709 14.4081 23.7892 14.328C23.8693 14.2479 23.9143 14.1392 23.9143 14.0259V12.2193C23.9126 11.2105 23.5962 10.2273 23.0093 9.40681C22.4224 8.58629 21.5943 7.96925 20.6401 7.64163ZM15.9504 4.65775C15.953 3.93579 16.2417 3.2443 16.7534 2.73499C17.2651 2.22567 17.958 1.94011 18.6799 1.94096C19.121 1.93946 19.5558 2.04526 19.9469 2.24925C20.338 2.45324 20.6736 2.74928 20.9248 3.11186C21.176 3.47444 21.3352 3.89267 21.3888 4.3305C21.4423 4.76833 21.3886 5.21261 21.2322 5.62503C21.033 6.1376 20.6845 6.57852 20.2317 6.89068C19.779 7.20283 19.243 7.37183 18.6931 7.37577H18.6714C17.9507 7.37422 17.26 7.08746 16.7501 6.57815C16.2403 6.06884 15.9528 5.37841 15.9504 4.65775V4.65775ZM23.0598 13.5987H14.3008V12.22C14.302 11.1622 14.7228 10.1481 15.4708 9.4001C16.2188 8.65213 17.233 8.23142 18.2908 8.23026H18.6704H18.6799H18.6921H19.0698C20.1276 8.23142 21.1418 8.65213 21.8898 9.4001C22.6378 10.1481 23.0586 11.1622 23.0598 12.22V13.5987Z" fill="#222222"/>
<path d="M19.9606 16.311C19.8473 16.311 19.7386 16.356 19.6585 16.4362C19.5784 16.5163 19.5334 16.625 19.5334 16.7383C19.5334 16.7747 19.5334 16.8115 19.5314 16.8467C19.5281 16.9597 19.5698 17.0695 19.6473 17.1518C19.7248 17.2342 19.8317 17.2825 19.9448 17.2861H19.9587C20.0694 17.2863 20.1758 17.2434 20.2555 17.1666C20.3353 17.0897 20.382 16.9849 20.3859 16.8743C20.3874 16.8291 20.3884 16.7837 20.3884 16.7383C20.3883 16.6821 20.3773 16.6266 20.3557 16.5747C20.3342 16.5229 20.3027 16.4757 20.263 16.4361C20.2233 16.3964 20.1761 16.3649 20.1242 16.3435C20.0724 16.322 20.0168 16.311 19.9606 16.311V16.311Z" fill="#222222"/>
<path d="M16.6989 19.9043C16.6276 19.9119 16.5559 19.9175 16.4834 19.9204C16.37 19.9226 16.2623 19.9698 16.1837 20.0515C16.1052 20.1332 16.0623 20.2428 16.0645 20.3561C16.0668 20.4694 16.1139 20.5772 16.1956 20.6557C16.2773 20.7343 16.3869 20.7771 16.5002 20.7749H16.5178C16.6097 20.771 16.701 20.7641 16.7917 20.7541C16.9032 20.7405 17.0048 20.6834 17.0746 20.5954C17.1443 20.5073 17.1766 20.3954 17.1644 20.2837C17.1522 20.172 17.0965 20.0697 17.0094 19.9987C16.9223 19.9278 16.8107 19.8941 16.6989 19.9048V19.9043Z" fill="#222222"/>
<path d="M18.7557 18.8232C18.7084 18.8777 18.6591 18.9308 18.608 18.9824C18.5283 19.0629 18.4838 19.1718 18.4844 19.2852C18.485 19.3985 18.5305 19.507 18.6111 19.5867C18.6916 19.6665 18.8006 19.7109 18.9139 19.7104C19.0272 19.7098 19.1357 19.6642 19.2155 19.5837C19.2798 19.5186 19.3417 19.4517 19.4013 19.383C19.4387 19.3407 19.4674 19.2914 19.4857 19.238C19.504 19.1845 19.5115 19.128 19.5078 19.0716C19.5041 19.0152 19.4893 18.9602 19.4642 18.9096C19.439 18.859 19.4041 18.8139 19.3614 18.7768C19.3187 18.7398 19.2692 18.7116 19.2155 18.6939C19.1619 18.6762 19.1052 18.6693 19.0489 18.6736C18.9926 18.6779 18.9377 18.6934 18.8873 18.719C18.837 18.7447 18.7923 18.7801 18.7557 18.8232Z" fill="#222222"/>
<path d="M14.0435 19.9233H13.9214C13.8081 19.9233 13.6994 19.9684 13.6193 20.0485C13.5392 20.1286 13.4941 20.2373 13.4941 20.3506C13.4941 20.4639 13.5392 20.5726 13.6193 20.6527C13.6994 20.7328 13.8081 20.7778 13.9214 20.7778H14.0435C14.1568 20.7778 14.2654 20.7328 14.3456 20.6527C14.4257 20.5726 14.4707 20.4639 14.4707 20.3506C14.4707 20.2373 14.4257 20.1286 14.3456 20.0485C14.2654 19.9684 14.1568 19.9233 14.0435 19.9233V19.9233Z" fill="#222222"/>
<path d="M11.6189 1.08643H4.15625C3.80991 1.08681 3.47786 1.22453 3.23292 1.46939C2.98797 1.71424 2.85013 2.04624 2.84961 2.39258V7.08008C2.85 7.4265 2.98779 7.75862 3.23274 8.00358C3.4777 8.24854 3.80983 8.38633 4.15625 8.38672H7.72656L10.0588 10.4504C10.1369 10.5198 10.2377 10.558 10.342 10.5579C10.3981 10.5579 10.4537 10.5468 10.5055 10.5253C10.5573 10.5039 10.6044 10.4724 10.6441 10.4327C10.6837 10.393 10.7152 10.3459 10.7366 10.2941C10.7581 10.2423 10.7691 10.1867 10.769 10.1306V8.38843H11.6189C11.9656 8.3883 12.2981 8.25066 12.5434 8.0057C12.7887 7.76074 12.9268 7.42847 12.9275 7.08179V2.39258C12.9266 2.046 12.7884 1.71389 12.5431 1.46905C12.2978 1.22421 11.9655 1.08662 11.6189 1.08643V1.08643ZM12.073 7.08179C12.0725 7.2019 12.0245 7.31694 11.9394 7.40169C11.8543 7.48645 11.739 7.534 11.6189 7.53394H10.3411C10.2278 7.53394 10.1191 7.57895 10.039 7.65907C9.95883 7.7392 9.91382 7.84787 9.91382 7.96118V9.18188L8.17163 7.6416C8.09356 7.57233 7.9928 7.53411 7.88843 7.53418H4.15625C4.03637 7.53405 3.92144 7.48637 3.83668 7.40161C3.75191 7.31684 3.70423 7.20191 3.7041 7.08203V2.39258C3.70423 2.27268 3.7519 2.15772 3.83666 2.07292C3.92142 1.98811 4.03635 1.94038 4.15625 1.94019H11.6189C11.7391 1.94012 11.8543 1.98771 11.9395 2.07251C12.0246 2.15732 12.0726 2.27242 12.073 2.39258V7.08179Z" fill="#222222"/>
</svg>
