<svg width="23" height="23" viewBox="0 0 23 23" fill="none" xmlns="http://www.w3.org/2000/svg">
<g clip-path="url(#clip0_251_591)">
<path d="M7.46883 4.43115H3.44727C3.07508 4.43115 2.77344 4.7328 2.77344 5.10498C2.77344 5.47717 3.07508 5.77881 3.44727 5.77881H7.46883C7.84084 5.77881 8.14265 5.47717 8.14265 5.10498C8.14265 4.7328 7.84084 4.43115 7.46883 4.43115Z" fill="#222222"/>
<path d="M7.46883 7.12646H3.44727C3.07508 7.12646 2.77344 7.42811 2.77344 7.80029C2.77344 8.17248 3.07508 8.47412 3.44727 8.47412H7.46883C7.84084 8.47412 8.14265 8.17248 8.14265 7.80029C8.14265 7.42811 7.84084 7.12646 7.46883 7.12646Z" fill="#222222"/>
<path d="M7.46883 9.82178H3.44727C3.07508 9.82178 2.77344 10.1234 2.77344 10.4956C2.77344 10.8678 3.07508 11.1694 3.44727 11.1694H7.46883C7.84084 11.1694 8.14265 10.8678 8.14265 10.4956C8.14265 10.1234 7.84084 9.82178 7.46883 9.82178Z" fill="#222222"/>
<path d="M7.46883 12.5176H3.44727C3.07508 12.5176 2.77344 12.8192 2.77344 13.1914C2.77344 13.5636 3.07508 13.8652 3.44727 13.8652H7.46883C7.84084 13.8652 8.14265 13.5636 8.14265 13.1914C8.14265 12.8192 7.84084 12.5176 7.46883 12.5176Z" fill="#222222"/>
<path d="M7.46883 15.2583H3.44727C3.07508 15.2583 2.77344 15.5601 2.77344 15.9321C2.77344 16.3043 3.07508 16.606 3.44727 16.606H7.46883C7.84084 16.606 8.14265 16.3043 8.14265 15.9321C8.14265 15.5601 7.84084 15.2583 7.46883 15.2583Z" fill="#222222"/>
<path d="M9.73242 5.77881H13.754C14.1262 5.77881 14.4278 5.47717 14.4278 5.10498C14.4278 4.7328 14.1262 4.43115 13.754 4.43115H9.73242C9.36041 4.43115 9.05859 4.7328 9.05859 5.10498C9.05859 5.47717 9.36041 5.77881 9.73242 5.77881Z" fill="#222222"/>
<path d="M9.73242 8.47412H13.754C14.1262 8.47412 14.4278 8.17248 14.4278 7.80029C14.4278 7.42811 14.1262 7.12646 13.754 7.12646H9.73242C9.36041 7.12646 9.05859 7.42811 9.05859 7.80029C9.05859 8.17248 9.36041 8.47412 9.73242 8.47412Z" fill="#222222"/>
<path d="M12.3432 10.4956C12.3432 10.1234 12.0415 9.82178 11.6693 9.82178H9.73242C9.36041 9.82178 9.05859 10.1234 9.05859 10.4956C9.05859 10.8678 9.36041 11.1694 9.73242 11.1694H11.6693C12.0415 11.1694 12.3432 10.8678 12.3432 10.4956Z" fill="#222222"/>
<path d="M18.7267 15.5423C18.4365 15.3094 18.0126 15.3559 17.7795 15.6462L16.0441 17.8098L14.9696 17.0314C14.6683 16.8129 14.2468 16.8803 14.0285 17.1816C13.8102 17.4831 13.8776 17.9044 14.1789 18.1227L15.7728 19.2775C15.8921 19.3638 16.0304 19.4058 16.1678 19.4058C16.3655 19.4058 16.561 19.3189 16.6937 19.1534L18.8308 16.4895C19.0637 16.1993 19.0172 15.7752 18.7267 15.5423Z" fill="#222222"/>
<path d="M20.4298 13.4739C19.5521 12.5808 18.4243 12.0178 17.2023 11.852V2.71374C17.2023 1.21745 15.9848 0 14.4885 0H2.71391C1.21745 0 0 1.21745 0 2.71374V18.3229C0 19.8193 1.21745 21.0368 2.71374 21.0368H12.184C13.2497 22.2886 14.7819 23 16.4397 23C19.5254 23 22.0358 20.4879 22.0358 17.4C22.0358 15.9218 21.4655 14.5275 20.4298 13.4739ZM1.34766 18.3229V2.71374C1.34766 1.96059 1.96059 1.34766 2.71391 1.34766H14.4885C15.2419 1.34766 15.8546 1.96059 15.8546 2.71374V11.8306C13.0428 12.1242 10.8435 14.5098 10.8435 17.4C10.8435 18.2011 11.0106 18.9756 11.331 19.6889H2.71391C1.96059 19.6889 1.34766 19.0762 1.34766 18.3229ZM16.4397 21.6523C15.0939 21.6523 13.8568 21.0345 13.0452 19.9574C12.4865 19.2157 12.191 18.3315 12.191 17.4C12.191 15.0553 14.097 13.1477 16.4397 13.1477C16.4618 13.1477 16.484 13.1481 16.5062 13.1484L16.5165 13.1486C17.6348 13.1684 18.6833 13.6194 19.4687 14.4185C20.255 15.2185 20.6881 16.2775 20.6881 17.4C20.6881 19.7447 18.7823 21.6523 16.4397 21.6523Z" fill="#222222"/>
</g>
<defs>
<clipPath id="clip0_251_591">
<rect width="22.08" height="23" fill="white"/>
</clipPath>
</defs>
</svg>
