<svg width="23" height="20" viewBox="0 0 23 20" fill="none" xmlns="http://www.w3.org/2000/svg">
<g clip-path="url(#clip0_251_486)">
<path d="M11.4583 10.3472H0.347222C0.255133 10.3472 0.166816 10.3106 0.101699 10.2455C0.0365822 10.1804 0 10.0921 0 9.99999C0 9.9079 0.0365822 9.81959 0.101699 9.75447C0.166816 9.68935 0.255133 9.65277 0.347222 9.65277H11.4583C11.5504 9.65277 11.6387 9.68935 11.7039 9.75447C11.769 9.81959 11.8056 9.9079 11.8056 9.99999C11.8056 10.0921 11.769 10.1804 11.7039 10.2455C11.6387 10.3106 11.5504 10.3472 11.4583 10.3472Z" fill="#222222"/>
<path d="M9.72242 19.7222C7.87665 19.7219 6.06911 19.1961 4.51111 18.2064C2.95312 17.2167 1.70904 15.804 0.924333 14.1333C0.139621 12.4626 -0.153303 10.6031 0.0798051 8.77214C0.312913 6.94115 1.06242 5.21435 2.24071 3.79361C3.41899 2.37287 4.97737 1.31689 6.73365 0.749139C8.48993 0.181384 10.3715 0.125309 12.1585 0.587468C13.9455 1.04963 15.564 2.01092 16.8248 3.35898C18.0856 4.70703 18.9366 6.38613 19.2783 8.19999C19.2953 8.29051 19.2756 8.38406 19.2235 8.46005C19.1715 8.53604 19.0914 8.58825 19.0009 8.6052C18.9104 8.62214 18.8168 8.60243 18.7408 8.5504C18.6648 8.49838 18.6126 8.41829 18.5957 8.32777C18.2557 6.53216 17.3783 4.88216 16.0798 3.59622C14.7813 2.31028 13.1228 1.44904 11.324 1.12654C9.52516 0.804033 7.6708 1.03547 6.00641 1.7902C4.34202 2.54493 2.94611 3.78737 2.00347 5.35302C1.06084 6.91867 0.615954 8.73368 0.727707 10.5578C0.839459 12.3819 1.50258 14.129 2.62929 15.5679C3.75599 17.0068 5.29313 18.0695 7.0372 18.6154C8.78127 19.1613 10.65 19.1647 12.396 18.625C12.4398 18.6105 12.4861 18.6049 12.5321 18.6085C12.5781 18.6121 12.623 18.6248 12.664 18.6459C12.705 18.667 12.7414 18.6961 12.7711 18.7315C12.8008 18.7668 12.8231 18.8078 12.8367 18.8518C12.8504 18.8959 12.8551 18.9423 12.8507 18.9882C12.8462 19.0342 12.8326 19.0787 12.8108 19.1194C12.7889 19.16 12.7591 19.1958 12.7232 19.2248C12.6873 19.2538 12.6459 19.2754 12.6016 19.2882C11.6691 19.5765 10.6985 19.7228 9.72242 19.7222Z" fill="#222222"/>
<path d="M9.72243 19.7222C6.99639 19.7222 4.86133 15.4514 4.86133 9.99999C4.86133 4.5486 6.99639 0.277771 9.72243 0.277771C12.1162 0.277771 14.0828 3.54895 14.5047 8.23263C14.513 8.32435 14.4845 8.41561 14.4255 8.48633C14.3665 8.55704 14.2819 8.60143 14.1901 8.60971C14.0984 8.618 14.0072 8.58951 13.9364 8.53052C13.8657 8.47152 13.8213 8.38685 13.813 8.29513C13.4377 4.12013 11.6783 0.972215 9.72243 0.972215C7.46549 0.972215 5.55577 5.10659 5.55577 9.99999C5.55577 14.8934 7.46549 19.0278 9.72243 19.0278C10.2861 19.0084 10.823 18.7829 11.2315 18.3941C11.2657 18.3628 11.3059 18.3387 11.3496 18.3231C11.3933 18.3076 11.4397 18.301 11.486 18.3037C11.5324 18.3065 11.5777 18.3184 11.6193 18.3389C11.6609 18.3595 11.698 18.3881 11.7283 18.4232C11.7587 18.4583 11.7817 18.4991 11.796 18.5432C11.8103 18.5874 11.8156 18.6339 11.8117 18.6802C11.8077 18.7264 11.7945 18.7713 11.7728 18.8124C11.7512 18.8534 11.7215 18.8897 11.6856 18.9191C11.1523 19.4191 10.4533 19.705 9.72243 19.7222Z" fill="#222222"/>
<path d="M17.7081 5.48589H1.73589C1.64381 5.48589 1.55549 5.44931 1.49037 5.38419C1.42525 5.31907 1.38867 5.23075 1.38867 5.13867C1.38867 5.04658 1.42525 4.95826 1.49037 4.89314C1.55549 4.82802 1.64381 4.79144 1.73589 4.79144H17.7081C17.8002 4.79144 17.8885 4.82802 17.9536 4.89314C18.0188 4.95826 18.0553 5.04658 18.0553 5.13867C18.0553 5.23075 18.0188 5.31907 17.9536 5.38419C17.8885 5.44931 17.8002 5.48589 17.7081 5.48589Z" fill="#222222"/>
<path d="M10.0692 15.2085H1.73589C1.6438 15.2085 1.55549 15.172 1.49037 15.1068C1.42525 15.0417 1.38867 14.9534 1.38867 14.8613C1.38867 14.7692 1.42525 14.6809 1.49037 14.6158C1.55549 14.5507 1.6438 14.5141 1.73589 14.5141H10.0692C10.1613 14.5141 10.2496 14.5507 10.3147 14.6158C10.3799 14.6809 10.4164 14.7692 10.4164 14.8613C10.4164 14.9534 10.3799 15.0417 10.3147 15.1068C10.2496 15.172 10.1613 15.2085 10.0692 15.2085Z" fill="#222222"/>
<path d="M16.6669 19.7224C15.5681 19.7224 14.494 19.3966 13.5804 18.7861C12.6668 18.1756 11.9547 17.308 11.5342 16.2928C11.1137 15.2777 11.0037 14.1607 11.2181 13.083C11.4324 12.0053 11.9616 11.0154 12.7385 10.2385C13.5155 9.4615 14.5054 8.93238 15.583 8.71802C16.6607 8.50366 17.7778 8.61367 18.7929 9.03416C19.808 9.45465 20.6757 10.1667 21.2861 11.0803C21.8966 11.9939 22.2224 13.068 22.2224 14.1668C22.2207 15.6397 21.6348 17.0518 20.5933 18.0933C19.5518 19.1348 18.1398 19.7206 16.6669 19.7224ZM16.6669 9.30571C15.7054 9.30571 14.7656 9.59081 13.9662 10.125C13.1668 10.6591 12.5437 11.4183 12.1758 12.3066C11.8079 13.1948 11.7116 14.1722 11.8992 15.1152C12.0867 16.0581 12.5497 16.9243 13.2296 17.6041C13.9094 18.284 14.7756 18.747 15.7185 18.9345C16.6615 19.1221 17.6389 19.0258 18.5271 18.6579C19.4154 18.29 20.1746 17.6669 20.7087 16.8675C21.2429 16.0681 21.528 15.1283 21.528 14.1668C21.5266 12.878 21.014 11.6424 20.1027 10.731C19.1913 9.81969 17.9557 9.30709 16.6669 9.30571Z" fill="#222222"/>
<path d="M16.6658 14.5141H15.2769C15.1848 14.5141 15.0965 14.4775 15.0314 14.4124C14.9663 14.3473 14.9297 14.259 14.9297 14.1669C14.9297 14.0748 14.9663 13.9865 15.0314 13.9214C15.0965 13.8562 15.1848 13.8197 15.2769 13.8197H16.3186V11.7363C16.3186 11.6442 16.3552 11.5559 16.4203 11.4908C16.4854 11.4257 16.5737 11.3891 16.6658 11.3891C16.7579 11.3891 16.8462 11.4257 16.9113 11.4908C16.9764 11.5559 17.013 11.6442 17.013 11.7363V14.1669C17.013 14.259 16.9764 14.3473 16.9113 14.4124C16.8462 14.4775 16.7579 14.5141 16.6658 14.5141Z" fill="#222222"/>
<path d="M16.6675 10.6944C16.5754 10.6944 16.4871 10.6579 16.422 10.5927C16.3569 10.5276 16.3203 10.4393 16.3203 10.3472V9.99999C16.3203 9.9079 16.3569 9.81959 16.422 9.75447C16.4871 9.68935 16.5754 9.65277 16.6675 9.65277C16.7596 9.65277 16.8479 9.68935 16.9131 9.75447C16.9782 9.81959 17.0148 9.9079 17.0148 9.99999V10.3472C17.0148 10.4393 16.9782 10.5276 16.9131 10.5927C16.8479 10.6579 16.7596 10.6944 16.6675 10.6944Z" fill="#222222"/>
<path d="M12.8468 14.5137H12.4996C12.4075 14.5137 12.3192 14.4771 12.254 14.412C12.1889 14.3469 12.1523 14.2586 12.1523 14.1665C12.1523 14.0744 12.1889 13.9861 12.254 13.921C12.3192 13.8559 12.4075 13.8193 12.4996 13.8193H12.8468C12.9389 13.8193 13.0272 13.8559 13.0923 13.921C13.1574 13.9861 13.194 14.0744 13.194 14.1665C13.194 14.2586 13.1574 14.3469 13.0923 14.412C13.0272 14.4771 12.9389 14.5137 12.8468 14.5137Z" fill="#222222"/>
<path d="M16.6675 18.6808C16.5754 18.6808 16.4871 18.6442 16.422 18.5791C16.3569 18.514 16.3203 18.4256 16.3203 18.3335V17.9863C16.3203 17.8942 16.3569 17.8059 16.422 17.7408C16.4871 17.6757 16.5754 17.6391 16.6675 17.6391C16.7596 17.6391 16.8479 17.6757 16.9131 17.7408C16.9782 17.8059 17.0148 17.8942 17.0148 17.9863V18.3335C17.0148 18.4256 16.9782 18.514 16.9131 18.5791C16.8479 18.6442 16.7596 18.6808 16.6675 18.6808Z" fill="#222222"/>
<path d="M20.8331 14.5137H20.4859C20.3938 14.5137 20.3055 14.4771 20.2404 14.412C20.1753 14.3469 20.1387 14.2586 20.1387 14.1665C20.1387 14.0744 20.1753 13.9861 20.2404 13.921C20.3055 13.8559 20.3938 13.8193 20.4859 13.8193H20.8331C20.9252 13.8193 21.0135 13.8559 21.0786 13.921C21.1438 13.9861 21.1803 14.0744 21.1803 14.1665C21.1803 14.2586 21.1438 14.3469 21.0786 14.412C21.0135 14.4771 20.9252 14.5137 20.8331 14.5137Z" fill="#222222"/>
</g>
<defs>
<clipPath id="clip0_251_486">
<rect width="22.2222" height="20" fill="white"/>
</clipPath>
</defs>
</svg>
