<svg width="25" height="25" viewBox="0 0 25 25" fill="none" xmlns="http://www.w3.org/2000/svg">
<path d="M12.5 3.81836C12.9045 3.81836 13.2324 3.49043 13.2324 3.08594V0.732422C13.2324 0.32793 12.9045 0 12.5 0C12.0955 0 11.7676 0.32793 11.7676 0.732422V3.08594C11.7676 3.49043 12.0955 3.81836 12.5 3.81836Z" fill="#222222"/>
<path d="M12.5 21.1816C12.0955 21.1816 11.7676 21.5096 11.7676 21.9141V24.2676C11.7676 24.6721 12.0955 25 12.5 25C12.9045 25 13.2324 24.6721 13.2324 24.2676V21.9141C13.2324 21.5096 12.9045 21.1816 12.5 21.1816Z" fill="#222222"/>
<path d="M24.2676 11.7676H21.9141C21.5096 11.7676 21.1816 12.0955 21.1816 12.5C21.1816 12.9045 21.5096 13.2324 21.9141 13.2324H24.2676C24.6721 13.2324 25 12.9045 25 12.5C25 12.0955 24.6721 11.7676 24.2676 11.7676Z" fill="#222222"/>
<path d="M3.81836 12.5C3.81836 12.0955 3.49043 11.7676 3.08594 11.7676H0.732422C0.32793 11.7676 0 12.0955 0 12.5C0 12.9045 0.32793 13.2324 0.732422 13.2324H3.08594C3.49043 13.2324 3.81836 12.9045 3.81836 12.5Z" fill="#222222"/>
<path d="M19.6741 6.36101L21.338 4.69709C21.6241 4.41106 21.6241 3.94734 21.338 3.6613C21.0521 3.37527 20.5883 3.37527 20.3023 3.6613L18.6384 5.32522C18.3523 5.61125 18.3523 6.07498 18.6384 6.36101C18.9243 6.647 19.3881 6.64714 19.6741 6.36101Z" fill="#222222"/>
<path d="M5.3257 18.6389L3.66179 20.3028C3.37576 20.5888 3.37576 21.0526 3.66179 21.3386C3.94773 21.6246 4.41155 21.6247 4.69758 21.3386L6.36149 19.6747C6.64753 19.3886 6.64753 18.9249 6.36149 18.6389C6.07546 18.3528 5.61169 18.3528 5.3257 18.6389Z" fill="#222222"/>
<path d="M19.6741 18.6388C19.3882 18.3528 18.9244 18.3528 18.6384 18.6388C18.3523 18.9249 18.3523 19.3886 18.6384 19.6746L20.3023 21.3386C20.5882 21.6246 21.052 21.6246 21.338 21.3386C21.6241 21.0525 21.6241 20.5888 21.338 20.3028L19.6741 18.6388Z" fill="#222222"/>
<path d="M5.32575 6.36102C5.61169 6.647 6.07551 6.6471 6.36154 6.36102C6.64758 6.07498 6.64758 5.61126 6.36154 5.32522L4.69758 3.6613C4.41159 3.37527 3.94783 3.37527 3.66179 3.6613C3.37576 3.94734 3.37576 4.41106 3.66179 4.6971L5.32575 6.36102Z" fill="#222222"/>
<path d="M12.4994 6.27588C9.06748 6.27588 6.27539 9.06797 6.27539 12.4999C6.27539 15.9317 9.06748 18.7238 12.4994 18.7238C15.9312 18.7238 18.7233 15.9317 18.7233 12.4999C18.7233 9.06797 15.9312 6.27588 12.4994 6.27588ZM12.4994 17.259C9.87519 17.259 7.74023 15.124 7.74023 12.4999C7.74023 9.87568 9.87519 7.74072 12.4994 7.74072C15.1235 7.74072 17.2585 9.87568 17.2585 12.4999C17.2585 15.124 15.1235 17.259 12.4994 17.259Z" fill="#222222"/>
</svg>
