<svg width="300" height="300" viewBox="0 0 300 300" fill="none" xmlns="http://www.w3.org/2000/svg">
<g clip-path="url(#clip0_65_195)">
<path d="M135 172.5C135 175.261 137.239 177.5 140 177.5C142.761 177.5 145 175.261 145 172.5C145 155.96 129.7 142.29 110 140.28V135C110 132.239 107.761 130 105 130C102.239 130 100 132.239 100 135V140.28C80.3 142.28 65 155.96 65 172.5C65 189.04 80.3 202.71 100 204.72V249.66C85.835 247.87 75 238.625 75 227.5C75 224.739 72.7614 222.5 70 222.5C67.2386 222.5 65 224.739 65 227.5C65 244.04 80.3 257.71 100 259.72V265C100 267.761 102.239 270 105 270C107.761 270 110 267.761 110 265V259.72C129.7 257.72 145 244.04 145 227.5C145 210.96 129.7 197.29 110 195.28V150.34C124.165 152.13 135 161.375 135 172.5ZM75 172.5C75 161.375 85.835 152.13 100 150.34V194.66C85.835 192.87 75 183.625 75 172.5ZM135 227.5C135 238.625 124.165 247.87 110 249.66V205.34C124.165 207.13 135 216.375 135 227.5Z" fill="black"/>
<path d="M18 150.865C15.4954 149.703 12.5227 150.791 11.36 153.295C3.83459 169.491 -0.043358 187.141 -6.7173e-06 205C-6.7173e-06 268.035 35.325 300 105 300C119.079 300.221 133.126 298.603 146.785 295.185C149.454 294.475 151.042 291.736 150.333 289.068C149.623 286.399 146.884 284.81 144.215 285.52C131.389 288.687 118.21 290.193 105 290C41.075 290 9.99999 262.195 9.99999 205C9.91003 188.588 13.4746 172.363 20.435 157.5C21.5934 154.995 20.5036 152.026 18 150.865V150.865Z" fill="black"/>
<path d="M285 125H175C166.716 125 160 131.716 160 140V285C160 293.284 166.716 300 175 300H285C293.284 300 300 293.284 300 285V140C300 131.716 293.284 125 285 125ZM290 285C290 287.761 287.761 290 285 290H175C172.239 290 170 287.761 170 285V140C170 137.239 172.239 135 175 135H285C287.761 135 290 137.239 290 140V285Z" fill="black"/>
<path d="M195 190H265C270.523 190 275 185.523 275 180V160C275 154.477 270.523 150 265 150H195C189.477 150 185 154.477 185 160V180C185 185.523 189.477 190 195 190ZM195 160H265V180H195V160Z" fill="black"/>
<path d="M205 205H190C187.239 205 185 207.239 185 210C185 212.761 187.239 215 190 215H205C207.761 215 210 212.761 210 210C210 207.239 207.761 205 205 205Z" fill="black"/>
<path d="M205 225H190C187.239 225 185 227.239 185 230C185 232.761 187.239 235 190 235H205C207.761 235 210 232.761 210 230C210 227.239 207.761 225 205 225Z" fill="black"/>
<path d="M205 245H190C187.239 245 185 247.239 185 250C185 252.761 187.239 255 190 255H205C207.761 255 210 252.761 210 250C210 247.239 207.761 245 205 245Z" fill="black"/>
<path d="M205 265H190C187.239 265 185 267.239 185 270C185 272.761 187.239 275 190 275H205C207.761 275 210 272.761 210 270C210 267.239 207.761 265 205 265Z" fill="black"/>
<path d="M240 205H225C222.239 205 220 207.239 220 210C220 212.761 222.239 215 225 215H240C242.761 215 245 212.761 245 210C245 207.239 242.761 205 240 205Z" fill="black"/>
<path d="M240 225H225C222.239 225 220 227.239 220 230C220 232.761 222.239 235 225 235H240C242.761 235 245 232.761 245 230C245 227.239 242.761 225 240 225Z" fill="black"/>
<path d="M240 245H225C222.239 245 220 247.239 220 250C220 252.761 222.239 255 225 255H240C242.761 255 245 252.761 245 250C245 247.239 242.761 245 240 245Z" fill="black"/>
<path d="M240 265H225C222.239 265 220 267.239 220 270C220 272.761 222.239 275 225 275H240C242.761 275 245 272.761 245 270C245 267.239 242.761 265 240 265Z" fill="black"/>
<path d="M275 205H260C257.239 205 255 207.239 255 210C255 212.761 257.239 215 260 215H275C277.761 215 280 212.761 280 210C280 207.239 277.761 205 275 205Z" fill="black"/>
<path d="M275 225H260C257.239 225 255 227.239 255 230C255 232.761 257.239 235 260 235H275C277.761 235 280 232.761 280 230C280 227.239 277.761 225 275 225Z" fill="black"/>
<path d="M275 245H260C257.239 245 255 247.239 255 250C255 252.761 257.239 255 260 255H275C277.761 255 280 252.761 280 250C280 247.239 277.761 245 275 245Z" fill="black"/>
<path d="M275 265H260C257.239 265 255 267.239 255 270C255 272.761 257.239 275 260 275H275C277.761 275 280 272.761 280 270C280 267.239 277.761 265 275 265Z" fill="black"/>
<path d="M31.625 6.315C18.46 18.375 41.59 55.575 55.22 75H52.5C47.8553 74.9831 43.3964 76.8228 40.115 80.11C36.8447 83.4052 35.0067 87.8575 35 92.5C35.0215 98.7306 38.3643 104.477 43.77 107.575C37.9336 113.748 32.4356 120.233 27.3 127C25.6431 129.209 26.0908 132.343 28.3 134C30.5091 135.657 33.6431 135.209 35.3 133C41.476 124.92 48.1559 117.238 55.3 110H157.5C163.752 110 169.529 106.665 172.655 101.25C175.782 95.8355 175.782 89.1645 172.655 83.75C169.529 78.3355 163.752 75 157.5 75H154.78C168.405 55.575 191.535 18.38 178.38 6.315C172.33 0.774997 165.28 4.815 159.065 8.35C153.413 12.2205 146.833 14.5158 140 15C134.576 14.9885 129.405 12.7033 125.745 8.7C120.274 3.13721 112.798 0.00427246 104.995 0.00427246C97.1923 0.00427246 89.7164 3.13721 84.245 8.7C80.5791 12.7097 75.3979 14.9955 69.965 15C63.1358 14.5209 56.5588 12.2249 50.915 8.35C44.705 4.805 37.66 0.779997 31.625 6.315V6.315ZM162.815 87.19C164.966 89.3359 165.61 92.5677 164.446 95.3743C163.281 98.1808 160.539 100.007 157.5 100H52.5C48.3578 100 45 96.6421 45 92.5C45 88.3579 48.3578 85 52.5 85H157.5C159.491 85.0006 161.401 85.7877 162.815 87.19ZM69.965 25C77.7707 24.9989 85.2489 21.8624 90.72 16.295C94.3717 12.2834 99.5452 9.99691 104.97 9.99691C110.395 9.99691 115.568 12.2834 119.22 16.295C124.698 21.8667 132.186 25.0033 140 25C148.585 24.549 156.89 21.796 164.045 17.03C166.328 15.4188 168.91 14.2814 171.64 13.685C176.77 18.385 163.21 46.73 142.48 75H130V50C130 47.2386 127.761 45 125 45C122.239 45 120 47.2386 120 50V75H90V50C90 47.2386 87.7614 45 85 45C82.2386 45 80 47.2386 80 50V75H67.54C46.81 46.73 33.25 18.385 38.45 13.61C41.1231 14.324 43.6581 15.4799 45.95 17.03C53.0938 21.7954 61.3894 24.5485 69.965 25Z" fill="black"/>
</g>
<defs>
<clipPath id="clip0_65_195">
<rect width="300" height="300" fill="white"/>
</clipPath>
</defs>
</svg>
