<svg width="300" height="300" viewBox="0 0 300 300" fill="none" xmlns="http://www.w3.org/2000/svg">
<g clip-path="url(#clip0_65_168)">
<path d="M202.177 197.168C199.505 197.168 197.339 199.334 197.339 202.006V290.323H54.8401V250C54.8401 247.328 52.6736 245.161 50.0013 245.161H9.67876V9.67742H197.339V97.9935C197.339 100.666 199.505 102.832 202.177 102.832C204.85 102.832 207.016 100.666 207.016 97.9935V4.83871C207.016 2.16645 204.85 0 202.177 0H4.84005C2.16779 0 0.00134277 2.16645 0.00134277 4.83871V250C0.00134277 250.162 0.00972987 250.323 0.0258589 250.483C0.0374718 250.601 0.0574718 250.715 0.0774718 250.83C0.0845686 250.87 0.0884396 250.912 0.0961815 250.953C0.123278 251.088 0.158117 251.221 0.196181 251.352C0.201988 251.372 0.205214 251.392 0.21102 251.411C0.251665 251.545 0.300052 251.675 0.351665 251.803C0.358762 251.821 0.363923 251.839 0.37102 251.856C0.421343 251.977 0.479407 252.096 0.539407 252.212C0.551665 252.236 0.561343 252.261 0.574246 252.284C0.631665 252.392 0.696182 252.495 0.761988 252.597C0.781343 252.628 0.798762 252.661 0.818762 252.691C0.883924 252.788 0.956182 252.881 1.02779 252.974C1.05296 253.006 1.07489 253.04 1.1007 253.071C1.20134 253.193 1.30715 253.311 1.41876 253.423L46.5781 298.582C46.6897 298.694 46.8072 298.8 46.9297 298.901C46.9613 298.926 46.9955 298.948 47.0272 298.974C47.1194 299.046 47.2123 299.117 47.3097 299.183C47.3401 299.203 47.3723 299.22 47.4033 299.239C47.5059 299.305 47.6091 299.369 47.7168 299.427C47.7401 299.44 47.7652 299.45 47.7891 299.462C47.9059 299.522 48.0239 299.58 48.1452 299.63C48.1626 299.637 48.1807 299.643 48.1975 299.649C48.3259 299.701 48.4562 299.749 48.5897 299.79C48.6091 299.795 48.6291 299.799 48.6484 299.805C48.7794 299.843 48.9123 299.878 49.0478 299.905C49.0884 299.914 49.1304 299.917 49.171 299.924C49.2859 299.944 49.4001 299.964 49.5175 299.975C49.6775 299.992 49.8388 300 50.0007 300H202.177C204.849 300 207.016 297.834 207.016 295.161V202.006C207.016 199.334 204.85 197.168 202.177 197.168ZM45.1626 283.48L16.5213 254.839H45.1626V283.48Z" fill="black"/>
<path d="M169.919 261.29C172.592 261.29 174.758 259.124 174.758 256.452C174.758 253.779 172.592 251.613 169.919 251.613H128.37C125.698 251.613 123.532 253.779 123.532 256.452C123.532 259.124 125.698 261.29 128.37 261.29H169.919Z" fill="black"/>
<path d="M169.919 45.1613H37.0981C34.4259 45.1613 32.2594 47.3277 32.2594 50C32.2594 52.6722 34.4259 54.8387 37.0981 54.8387H169.919C172.592 54.8387 174.758 52.6722 174.758 50C174.758 47.3277 172.592 45.1613 169.919 45.1613Z" fill="black"/>
<path d="M169.919 70.9678H37.0981C34.4259 70.9678 32.2594 73.1342 32.2594 75.8065C32.2594 78.4787 34.4259 80.6452 37.0981 80.6452H169.919C172.592 80.6452 174.758 78.4787 174.758 75.8065C174.758 73.1342 172.592 70.9678 169.919 70.9678Z" fill="black"/>
<path d="M169.919 96.7742H37.0981C34.4259 96.7742 32.2594 98.9406 32.2594 101.613C32.2594 104.285 34.4259 106.452 37.0981 106.452H169.919C172.592 106.452 174.758 104.285 174.758 101.613C174.758 98.9406 172.592 96.7742 169.919 96.7742Z" fill="black"/>
<path d="M174.758 127.419C174.758 124.747 172.592 122.581 169.919 122.581H37.0981C34.4259 122.581 32.2594 124.747 32.2594 127.419C32.2594 130.092 34.4259 132.258 37.0981 132.258H169.919C172.592 132.258 174.758 130.092 174.758 127.419Z" fill="black"/>
<path d="M151.783 153.226C151.783 150.554 149.617 148.387 146.945 148.387H37.0981C34.4259 148.387 32.2594 150.554 32.2594 153.226C32.2594 155.898 34.4259 158.065 37.0981 158.065H146.945C149.617 158.065 151.783 155.898 151.783 153.226Z" fill="black"/>
<path d="M37.0981 174.194C34.4259 174.194 32.2594 176.36 32.2594 179.032C32.2594 181.705 34.4259 183.871 37.0981 183.871H103.509C106.181 183.871 108.348 181.705 108.348 179.032C108.348 176.36 106.181 174.194 103.509 174.194H37.0981Z" fill="black"/>
<path d="M293.49 58.6878C289.291 54.4891 283.702 52.1761 277.751 52.1761C271.8 52.1761 266.211 54.4884 262.012 58.6871L246.958 73.742H246.957H246.957L233.272 87.4265H233.272C233.271 87.4271 233.271 87.4271 233.271 87.4271L135.456 185.244C135.32 185.379 135.197 185.523 135.081 185.67C135.051 185.708 135.024 185.748 134.995 185.787C134.908 185.905 134.826 186.025 134.751 186.147C134.737 186.169 134.721 186.188 134.708 186.21L106.212 234.609C105.008 236.054 104.354 237.856 104.354 239.759C104.354 241.914 105.193 243.939 106.716 245.462C108.239 246.985 110.265 247.824 112.419 247.824C114.322 247.824 116.125 247.169 117.569 245.966L165.968 217.47C165.99 217.456 166.01 217.44 166.032 217.426C166.155 217.352 166.274 217.27 166.39 217.184C166.43 217.155 166.47 217.127 166.508 217.097C166.656 216.981 166.799 216.857 166.934 216.721L264.748 118.906C264.748 118.906 264.749 118.906 264.749 118.906C264.749 118.905 264.75 118.905 264.75 118.905L278.435 105.22H278.436H278.436L293.49 90.1658C302.168 81.4871 302.168 67.3658 293.49 58.6878ZM261.328 108.641L243.536 90.849L250.379 84.0065L268.172 101.798L261.328 108.641ZM163.512 206.457L145.721 188.665L236.694 97.6923L254.485 115.484L163.512 206.457ZM135.572 224.136L128.042 216.606L139.876 196.507L155.671 212.302L135.572 224.136ZM117.261 234.917L122.97 225.22L126.958 229.208L117.261 234.917ZM286.647 83.322L275.014 94.9549L257.222 77.1632L268.856 65.5297C271.227 63.1587 274.386 61.8529 277.752 61.8529C281.117 61.8529 284.276 63.1587 286.648 65.5297C289.019 67.9007 290.325 71.06 290.325 74.4258C290.325 77.7916 289.018 80.9516 286.647 83.322Z" fill="black"/>
</g>
<defs>
<clipPath id="clip0_65_168">
<rect width="300" height="300" fill="white"/>
</clipPath>
</defs>
</svg>
