<svg width="300" height="242" viewBox="0 0 300 242" fill="none" xmlns="http://www.w3.org/2000/svg">
<g clip-path="url(#clip0_65_216)">
<path d="M82.8363 55.1729C82.8363 40.0187 70.507 27.6895 55.3529 27.6895C43.5878 27.6895 33.3198 35.2088 29.4802 45.9074L27.6814 44.0277C26.0032 42.2752 23.2212 42.2137 21.4681 43.8912C19.7144 45.5693 19.6534 48.3508 21.3316 50.1045L29.0894 58.2109C29.9384 59.0986 31.0933 59.5668 32.2657 59.5668C32.9249 59.5668 33.5894 59.4186 34.2087 59.1133L44.2704 54.1486C46.4472 53.0752 47.3407 50.4402 46.2673 48.2635C45.1933 46.0867 42.5583 45.1932 40.3821 46.2672L38.4298 47.2305C41.4421 40.8367 47.9636 36.4779 55.3534 36.4779C65.6613 36.4779 74.0478 44.8639 74.0478 55.1723C74.0478 65.4807 65.6618 73.8666 55.3534 73.8666C50.063 73.8666 44.997 71.609 41.4538 67.6738C39.8302 65.8697 37.0517 65.7238 35.2476 67.3475C33.4435 68.9711 33.2976 71.7502 34.9212 73.5537C40.1284 79.3381 47.5751 82.6557 55.3529 82.6557C70.5075 82.6568 82.8363 70.3275 82.8363 55.1729V55.1729Z" fill="black"/>
<path d="M257.138 163.511V161.018C257.138 158.591 255.17 156.624 252.743 156.624C250.316 156.624 248.348 158.591 248.348 161.018V163.671C248.225 163.706 248.102 163.735 247.978 163.772C243.122 165.235 239.686 169.062 239.012 173.761C238.379 178.169 240.29 182.41 243.999 184.829C245.189 185.604 253.484 188.819 255.115 189.421C256.658 189.99 260.198 191.597 259.73 194.216C259.379 196.183 256.982 198.22 253.58 198.22C250.082 198.22 246.715 196.81 244.574 194.447C242.944 192.649 240.165 192.512 238.366 194.142C236.568 195.772 236.432 198.551 238.061 200.349C240.711 203.274 244.358 205.367 248.348 206.36V209.023C248.348 211.451 250.315 213.418 252.742 213.418C255.169 213.418 257.137 211.451 257.137 209.023V206.623C262.908 205.384 267.411 201.201 268.382 195.761C269.258 190.857 267.031 184.449 258.155 181.176C253.833 179.581 249.808 177.844 248.573 177.305C247.614 176.534 247.646 175.459 247.71 175.011C247.799 174.39 248.251 172.87 250.512 172.189C255.478 170.691 260.082 174.334 260.2 174.429C262.057 175.969 264.813 175.723 266.368 173.873C267.929 172.015 267.689 169.243 265.831 167.682C265.616 167.498 262.173 164.659 257.138 163.511V163.511Z" fill="black"/>
<path d="M292.676 137.505H268.436V65.8809C268.436 60.2272 263.835 55.627 258.182 55.627H231.117C228.69 55.627 226.723 57.594 226.723 60.0215C226.723 62.449 228.69 64.416 231.117 64.416H258.182C258.989 64.416 259.646 65.0729 259.646 65.8809V137.505H212.814C208.775 137.505 205.49 140.79 205.49 144.829V151.686H41.9473V108.88C46.2416 109.953 50.7316 110.526 55.3529 110.526C82.7256 110.526 105.517 90.5524 109.93 64.416H210.609C213.036 64.416 215.004 62.449 215.004 60.0215C215.004 57.594 213.036 55.627 210.609 55.627H110.701C110.702 55.4758 110.706 55.3246 110.706 55.1735C110.706 24.6514 85.875 -0.180054 55.3535 -0.180054C24.832 -0.180054 0 24.6508 0 55.1729C0 77.8047 13.6553 97.3047 33.1582 105.875V197.014C33.1582 202.667 37.7584 207.268 43.4121 207.268H73.916C76.343 207.268 78.3105 205.301 78.3105 202.873C78.3105 200.446 76.343 198.479 73.916 198.479H43.4121C42.6047 198.479 41.9473 197.822 41.9473 197.014V182.512H205.49V198.479H94.4238C91.9969 198.479 90.0293 200.446 90.0293 202.873C90.0293 205.301 91.9969 207.268 94.4238 207.268H205.49V234.856C205.49 238.895 208.775 242.18 212.814 242.18H221.694C225.138 242.18 228.08 239.808 228.848 236.412C229.479 233.622 232.02 231.598 234.89 231.598C237.759 231.598 240.301 233.622 240.932 236.412C241.7 239.808 244.642 242.18 248.086 242.18H257.399C260.843 242.18 263.785 239.809 264.554 236.413C265.185 233.623 267.726 231.598 270.595 231.598C273.465 231.598 276.006 233.622 276.637 236.412C277.405 239.808 280.347 242.18 283.791 242.18H292.676C296.715 242.18 300 238.895 300 234.856V144.829C300 140.79 296.715 137.505 292.676 137.505V137.505ZM8.78906 55.1729C8.78906 29.4977 29.6777 8.60842 55.3529 8.60842C81.0281 8.60842 101.917 29.4971 101.917 55.1729C101.917 80.8487 81.0281 101.737 55.3529 101.737C29.6777 101.737 8.78906 80.8487 8.78906 55.1729ZM41.9473 173.723V160.475H205.49V173.723H41.9473ZM291.211 233.391H284.922C283.01 227.107 277.269 222.808 270.594 222.808C263.921 222.808 258.179 227.107 256.267 233.391H249.217C247.305 227.107 241.563 222.808 234.889 222.808C228.214 222.808 222.473 227.107 220.562 233.391H214.279V146.294H291.21V233.391H291.211Z" fill="black"/>
<path d="M71.1399 132.641C68.7129 132.641 66.7454 134.608 66.7454 137.036C66.7454 139.464 68.7129 141.431 71.1399 141.431H85.7461C88.1731 141.431 90.1407 139.464 90.1407 137.036C90.1407 134.608 88.1731 132.641 85.7461 132.641H71.1399Z" fill="black"/>
<path d="M107.896 132.641C105.469 132.641 103.502 134.608 103.502 137.036C103.502 139.464 105.469 141.431 107.896 141.431H122.502C124.929 141.431 126.897 139.464 126.897 137.036C126.897 134.608 124.929 132.641 122.502 132.641H107.896Z" fill="black"/>
<path d="M144.653 132.641C142.226 132.641 140.258 134.608 140.258 137.036C140.258 139.464 142.226 141.431 144.653 141.431H159.259C161.686 141.431 163.654 139.464 163.654 137.036C163.654 134.608 161.686 132.641 159.259 132.641H144.653Z" fill="black"/>
<path d="M220.165 116.959C217.999 116.959 215.833 116.136 214.184 114.486L203.567 103.87C201.969 102.271 201.089 100.147 201.089 97.8883C201.089 95.629 201.969 93.5049 203.567 91.9065L214.184 81.2893C217.482 77.9922 222.848 77.9928 226.146 81.2887L236.764 91.9065C238.362 93.5049 239.242 95.629 239.242 97.8883C239.242 100.147 238.362 102.271 236.764 103.87L226.147 114.486C224.498 116.134 222.331 116.959 220.165 116.959V116.959ZM210.015 97.8877L220.165 108.037L230.316 97.8877L220.165 87.7381L210.015 97.8877Z" fill="black"/>
</g>
<defs>
<clipPath id="clip0_65_216">
<rect width="300" height="242" fill="white"/>
</clipPath>
</defs>
</svg>
